<mxfile host="Electron" modified="2023-06-15T16:06:03.570Z" agent="Mozilla/5.0 (Windows NT 10.0; Win64; x64) AppleWebKit/537.36 (KHTML, like Gecko) draw.io/21.2.8 Chrome/112.0.5615.165 Electron/24.2.0 Safari/537.36" etag="E-Dhc15p_UoLH4uFq81n" version="21.2.8" type="device">
  <diagram id="dX7Dphyso45SB9-RoEhv" name="Page-1">
    <mxGraphModel dx="1434" dy="844" grid="1" gridSize="10" guides="1" tooltips="1" connect="1" arrows="1" fold="1" page="1" pageScale="1" pageWidth="827" pageHeight="1169" math="0" shadow="0">
      <root>
        <mxCell id="0" />
        <mxCell id="1" parent="0" />
        <mxCell id="nfxZPmU7g6QgWNAvG-ER-2" value="" style="whiteSpace=wrap;html=1;aspect=fixed;strokeWidth=5;fontFamily=xkcd;fillColor=#FFFFFF;strokeColor=#FFFFFF;" parent="1" vertex="1">
          <mxGeometry x="210" y="80" width="600" height="600" as="geometry" />
        </mxCell>
        <mxCell id="8b6ggLF4gSHIukh4vJdm-18" value="&lt;font&gt;&lt;font color=&quot;#000000&quot;&gt;&lt;span style=&quot;font-size: 24px;&quot;&gt;&lt;b&gt;Digital visionaries: redefining Possibilities&lt;/b&gt;&lt;/span&gt;&lt;/font&gt;&lt;br&gt;&lt;/font&gt;" style="text;html=1;strokeColor=none;fillColor=none;align=center;verticalAlign=middle;whiteSpace=wrap;rounded=0;fontFamily=xkcd;" parent="1" vertex="1">
          <mxGeometry x="225" y="120" width="570" height="22" as="geometry" />
        </mxCell>
        <mxCell id="8b6ggLF4gSHIukh4vJdm-24" value="&lt;font&gt;&lt;font color=&quot;#000000&quot;&gt;&lt;span style=&quot;font-size: 18px;&quot;&gt;&lt;b&gt;Unleashing innovation in the digital realm&lt;/b&gt;&lt;/span&gt;&lt;/font&gt;&lt;br&gt;&lt;/font&gt;" style="text;html=1;strokeColor=none;fillColor=none;align=center;verticalAlign=middle;whiteSpace=wrap;rounded=0;fontFamily=xkcd;" parent="1" vertex="1">
          <mxGeometry x="210" y="150" width="600" height="20" as="geometry" />
        </mxCell>
        <mxCell id="8b6ggLF4gSHIukh4vJdm-30" value="" style="endArrow=none;dashed=1;html=1;strokeWidth=2;strokeColor=#000000;" parent="1" edge="1">
          <mxGeometry width="50" height="50" relative="1" as="geometry">
            <mxPoint x="797.5" y="190" as="sourcePoint" />
            <mxPoint x="222.5" y="190" as="targetPoint" />
          </mxGeometry>
        </mxCell>
        <mxCell id="k-dpR7HA_-HZ3Fbqk2lw-16" value="" style="endArrow=none;dashed=1;html=1;strokeWidth=2;strokeColor=#000000;" parent="1" edge="1">
          <mxGeometry width="50" height="50" relative="1" as="geometry">
            <mxPoint x="800" y="584" as="sourcePoint" />
            <mxPoint x="225" y="584" as="targetPoint" />
          </mxGeometry>
        </mxCell>
        <mxCell id="k-dpR7HA_-HZ3Fbqk2lw-17" value="&lt;font style=&quot;&quot;&gt;&lt;font style=&quot;&quot; color=&quot;#000000&quot;&gt;&lt;b style=&quot;&quot;&gt;&lt;span style=&quot;font-size: 18px;&quot;&gt;Side note&lt;/span&gt;&lt;br&gt;&lt;/b&gt;&lt;/font&gt;&lt;font color=&quot;#000000&quot;&gt;&lt;span style=&quot;font-size: 14px;&quot;&gt;&lt;b&gt;Step into the our world where imagination meets technology. brace yourself for a mind-bending journey!&lt;/b&gt;&lt;/span&gt;&lt;/font&gt;&lt;br&gt;&lt;/font&gt;" style="text;html=1;strokeColor=none;fillColor=none;align=center;verticalAlign=middle;whiteSpace=wrap;rounded=0;fontFamily=xkcd;" parent="1" vertex="1">
          <mxGeometry x="210" y="577" width="600" height="80" as="geometry" />
        </mxCell>
        <mxCell id="euaHSMH8fYii958cPEId-22" style="edgeStyle=orthogonalEdgeStyle;rounded=0;orthogonalLoop=1;jettySize=auto;html=1;exitX=0.5;exitY=1;exitDx=0;exitDy=0;strokeWidth=2;" parent="1" edge="1">
          <mxGeometry relative="1" as="geometry">
            <mxPoint x="661" y="451" as="sourcePoint" />
            <mxPoint x="661" y="451" as="targetPoint" />
          </mxGeometry>
        </mxCell>
        <mxCell id="pKVuHFSoDqtFi99w7tCS-15" value="&lt;font style=&quot;&quot;&gt;&lt;font color=&quot;#000000&quot; style=&quot;font-size: 12px;&quot;&gt;&lt;b&gt;Â©2023 All rights reluctantly shared. unauthorized attempts to imitate our founder&#39;s brilliance will be met with a barrage of exceptionally witty legal jargon&lt;/b&gt;&lt;/font&gt;&lt;br&gt;&lt;/font&gt;" style="text;html=1;strokeColor=none;fillColor=none;align=center;verticalAlign=middle;whiteSpace=wrap;rounded=0;rotation=-90;fontFamily=xkcd;" parent="1" vertex="1">
          <mxGeometry x="595.5" y="377.5" width="375" height="20" as="geometry" />
        </mxCell>
        <mxCell id="_SnBmvqW-da6uGwA_qLJ-7" value="" style="shape=image;imageAspect=0;verticalLabelPosition=bottom;verticalAlign=top;image=data:image/jpeg,/9j/4AAQSkZJRgABAQEAGQAZAAD/4TZWRXhpZgAATU0AKgAAAAgABgALAAIAAAAmAAAIYgESAAMAAAABAAEAAAExAAIAAAAmAAAIiAEyAAIAAAAUAAAIrodpAAQAAAABAAAIwuocAAcAAAgMAAAAVgAAEUYc6gAAAAgAAAAAAAAAAAAAAAAAAAAAAAAAAAAAAAAAAAAAAAAAAAAAAAAAAAAAAAAAAAAAAAAAAAAAAAAAAAAAAAAAAAAAAAAAAAAAAAAAAAAAAAAAAAAAAAAAAAAAAAAAAAAAAAAAAAAAAAAAAAAAAAAAAAAAAAAAAAAAAAAAAAAAAAAAAAAAAAAAAAAAAAAAAAAAAAAAAAAAAAAAAAAAAAAAAAAAAAAAAAAAAAAAAAAAAAAAAAAAAAAAAAAAAAAAAAAAAAAAAAAAAAAAAAAAAAAAAAAAAAAAAAAAAAAAAAAAAAAAAAAAAAAAAAAAAAAAAAAAAAAAAAAAAAAAAAAAAAAAAAAAAAAAAAAAAAAAAAAAAAAAAAAAAAAAAAAAAAAAAAAAAAAAAAAAAAAAAAAAAAAAAAAAAAAAAAAAAAAAAAAAAAAAAAAAAAAAAAAAAAAAAAAAAAAAAAAAAAAAAAAAAAAAAAAAAAAAAAAAAAAAAAAAAAAAAAAAAAAAAAAAAAAAAAAAAAAAAAAAAAAAAAAAAAAAAAAAAAAAAAAAAAAAAAAAAAAAAAAAAAAAAAAAAAAAAAAAAAAAAAAAAAAAAAAAAAAAAAAAAAAAAAAAAAAAAAAAAAAAAAAAAAAAAAAAAAAAAAAAAAAAAAAAAAAAAAAAAAAAAAAAAAAAAAAAAAAAAAAAAAAAAAAAAAAAAAAAAAAAAAAAAAAAAAAAAAAAAAAAAAAAAAAAAAAAAAAAAAAAAAAAAAAAAAAAAAAAAAAAAAAAAAAAAAAAAAAAAAAAAAAAAAAAAAAAAAAAAAAAAAAAAAAAAAAAAAAAAAAAAAAAAAAAAAAAAAAAAAAAAAAAAAAAAAAAAAAAAAAAAAAAAAAAAAAAAAAAAAAAAAAAAAAAAAAAAAAAAAAAAAAAAAAAAAAAAAAAAAAAAAAAAAAAAAAAAAAAAAAAAAAAAAAAAAAAAAAAAAAAAAAAAAAAAAAAAAAAAAAAAAAAAAAAAAAAAAAAAAAAAAAAAAAAAAAAAAAAAAAAAAAAAAAAAAAAAAAAAAAAAAAAAAAAAAAAAAAAAAAAAAAAAAAAAAAAAAAAAAAAAAAAAAAAAAAAAAAAAAAAAAAAAAAAAAAAAAAAAAAAAAAAAAAAAAAAAAAAAAAAAAAAAAAAAAAAAAAAAAAAAAAAAAAAAAAAAAAAAAAAAAAAAAAAAAAAAAAAAAAAAAAAAAAAAAAAAAAAAAAAAAAAAAAAAAAAAAAAAAAAAAAAAAAAAAAAAAAAAAAAAAAAAAAAAAAAAAAAAAAAAAAAAAAAAAAAAAAAAAAAAAAAAAAAAAAAAAAAAAAAAAAAAAAAAAAAAAAAAAAAAAAAAAAAAAAAAAAAAAAAAAAAAAAAAAAAAAAAAAAAAAAAAAAAAAAAAAAAAAAAAAAAAAAAAAAAAAAAAAAAAAAAAAAAAAAAAAAAAAAAAAAAAAAAAAAAAAAAAAAAAAAAAAAAAAAAAAAAAAAAAAAAAAAAAAAAAAAAAAAAAAAAAAAAAAAAAAAAAAAAAAAAAAAAAAAAAAAAAAAAAAAAAAAAAAAAAAAAAAAAAAAAAAAAAAAAAAAAAAAAAAAAAAAAAAAAAAAAAAAAAAAAAAAAAAAAAAAAAAAAAAAAAAAAAAAAAAAAAAAAAAAAAAAAAAAAAAAAAAAAAAAAAAAAAAAAAAAAAAAAAAAAAAAAAAAAAAAAAAAAAAAAAAAAAAAAAAAAAAAAAAAAAAAAAAAAAAAAAAAAAAAAAAAAAAAAAAAAAAAAAAAAAAAAAAAAAAAAAAAAAAAAAAAAAAAAAAAAAAAAAAAAAAAAAAAAAAAAAAAAAAAAAAAAAAAAAAAAAAAAAAAAAAAAAAAAAAAAAAAAAAAAAAAAAAAAAAAAAAAAAAAAAAAAAAAAAAAAAAAAAAAAAAAAAAAAAAAAAAAAAAAAAAAAAAAAAAAAAAAAAAAAAAAAAAAAAAAAAAAAAAAAAAAAAAAAAAAAAAAAAAAAAAAAAAAAAAAAAAAAAAAAAAAAAAAAAAAAAAAAAAAAAAAAAAAAAAAAAAAAAAAAAAAAAAAAAAAAAAAAAAAAAAAAAAAAAAAAAAAAAAAAAAAAAAAAAAAAAAAAAAAAAAAAAAAAAAAAAAAAAAAAAAAAAAAAAAAAAAAAAAAAAAAAAAAAAAAAAAAAAAAAAAAAAAAAAAAAAAAAAAAAAAAAAAAAAAAAAAAAAAAAAAAAAAAAAAAAAAAAAAAAAAAAAAAAAAAAAAAAAAAAAAAAAAAAAAAAAAAAAAAAAAAAAAAAAAAAAAAAAAAAAAAAAAAAAAAAAAAAAAAAAAAAAAAAAAAAAAAAAAAAAAAAAAAAAAAAAAAAAAAAAAAAAAAAAAAAAAAAAAAAAAAAAAAAAAAAAAAAAAAAAAAAAAAAAAAAAAAAAAAAAAAAAAAAAAAAAAAAAAAAAAAAAAAAAAAAAAAAAAAAAAAAAAAAAAAAAAAAAAAAAAAAAAAAAAAAAAAAAAAAAAAAAAAAAAAAAAAAAAAAAAAAAAAAAAAAAAAAAAAAAAAAAAAAAAAAAAAAAAAAAAAAAAAAAAAAAAAAAAAAAAAAAAAAAAAAAAAAAAAAAAAAAAAAAAAAAAAAAAAAAAAAAAAAAAAAAAAAAAAAAAAAAAAAAAAAAAAAAAAAAAAAAAAAAAAAAAAAAAAAAAAAAAAAAAAAAAAAAAAAAAAAAAAAAAAAAAAAAAAAAAAAAAAAAAAAAAAAAAAAAAAAAAAAAAAAAAAAAFdpbmRvd3MgUGhvdG8gRWRpdG9yIDEwLjAuMTAwMTEuMTYzODQAV2luZG93cyBQaG90byBFZGl0b3IgMTAuMC4xMDAxMS4xNjM4NAAyMDIzOjA2OjE1IDE2OjI4OjQyAAAGkAMAAgAAABQAABEckAQAAgAAABQAABEwkpEAAgAAAAM3OQAAkpIAAgAAAAM3OQAAoAEAAwAAAAEAAQAA6hwABwAACAwAAAkQAAAAABzqAAAACAAAAAAAAAAAAAAAAAAAAAAAAAAAAAAAAAAAAAAAAAAAAAAAAAAAAAAAAAAAAAAAAAAAAAAAAAAAAAAAAAAAAAAAAAAAAAAAAAAAAAAAAAAAAAAAAAAAAAAAAAAAAAAAAAAAAAAAAAAAAAAAAAAAAAAAAAAAAAAAAAAAAAAAAAAAAAAAAAAAAAAAAAAAAAAAAAAAAAAAAAAAAAAAAAAAAAAAAAAAAAAAAAAAAAAAAAAAAAAAAAAAAAAAAAAAAAAAAAAAAAAAAAAAAAAAAAAAAAAAAAAAAAAAAAAAAAAAAAAAAAAAAAAAAAAAAAAAAAAAAAAAAAAAAAAAAAAAAAAAAAAAAAAAAAAAAAAAAAAAAAAAAAAAAAAAAAAAAAAAAAAAAAAAAAAAAAAAAAAAAAAAAAAAAAAAAAAAAAAAAAAAAAAAAAAAAAAAAAAAAAAAAAAAAAAAAAAAAAAAAAAAAAAAAAAAAAAAAAAAAAAAAAAAAAAAAAAAAAAAAAAAAAAAAAAAAAAAAAAAAAAAAAAAAAAAAAAAAAAAAAAAAAAAAAAAAAAAAAAAAAAAAAAAAAAAAAAAAAAAAAAAAAAAAAAAAAAAAAAAAAAAAAAAAAAAAAAAAAAAAAAAAAAAAAAAAAAAAAAAAAAAAAAAAAAAAAAAAAAAAAAAAAAAAAAAAAAAAAAAAAAAAAAAAAAAAAAAAAAAAAAAAAAAAAAAAAAAAAAAAAAAAAAAAAAAAAAAAAAAAAAAAAAAAAAAAAAAAAAAAAAAAAAAAAAAAAAAAAAAAAAAAAAAAAAAAAAAAAAAAAAAAAAAAAAAAAAAAAAAAAAAAAAAAAAAAAAAAAAAAAAAAAAAAAAAAAAAAAAAAAAAAAAAAAAAAAAAAAAAAAAAAAAAAAAAAAAAAAAAAAAAAAAAAAAAAAAAAAAAAAAAAAAAAAAAAAAAAAAAAAAAAAAAAAAAAAAAAAAAAAAAAAAAAAAAAAAAAAAAAAAAAAAAAAAAAAAAAAAAAAAAAAAAAAAAAAAAAAAAAAAAAAAAAAAAAAAAAAAAAAAAAAAAAAAAAAAAAAAAAAAAAAAAAAAAAAAAAAAAAAAAAAAAAAAAAAAAAAAAAAAAAAAAAAAAAAAAAAAAAAAAAAAAAAAAAAAAAAAAAAAAAAAAAAAAAAAAAAAAAAAAAAAAAAAAAAAAAAAAAAAAAAAAAAAAAAAAAAAAAAAAAAAAAAAAAAAAAAAAAAAAAAAAAAAAAAAAAAAAAAAAAAAAAAAAAAAAAAAAAAAAAAAAAAAAAAAAAAAAAAAAAAAAAAAAAAAAAAAAAAAAAAAAAAAAAAAAAAAAAAAAAAAAAAAAAAAAAAAAAAAAAAAAAAAAAAAAAAAAAAAAAAAAAAAAAAAAAAAAAAAAAAAAAAAAAAAAAAAAAAAAAAAAAAAAAAAAAAAAAAAAAAAAAAAAAAAAAAAAAAAAAAAAAAAAAAAAAAAAAAAAAAAAAAAAAAAAAAAAAAAAAAAAAAAAAAAAAAAAAAAAAAAAAAAAAAAAAAAAAAAAAAAAAAAAAAAAAAAAAAAAAAAAAAAAAAAAAAAAAAAAAAAAAAAAAAAAAAAAAAAAAAAAAAAAAAAAAAAAAAAAAAAAAAAAAAAAAAAAAAAAAAAAAAAAAAAAAAAAAAAAAAAAAAAAAAAAAAAAAAAAAAAAAAAAAAAAAAAAAAAAAAAAAAAAAAAAAAAAAAAAAAAAAAAAAAAAAAAAAAAAAAAAAAAAAAAAAAAAAAAAAAAAAAAAAAAAAAAAAAAAAAAAAAAAAAAAAAAAAAAAAAAAAAAAAAAAAAAAAAAAAAAAAAAAAAAAAAAAAAAAAAAAAAAAAAAAAAAAAAAAAAAAAAAAAAAAAAAAAAAAAAAAAAAAAAAAAAAAAAAAAAAAAAAAAAAAAAAAAAAAAAAAAAAAAAAAAAAAAAAAAAAAAAAAAAAAAAAAAAAAAAAAAAAAAAAAAAAAAAAAAAAAAAAAAAAAAAAAAAAAAAAAAAAAAAAAAAAAAAAAAAAAAAAAAAAAAAAAAAAAAAAAAAAAAAAAAAAAAAAAAAAAAAAAAAAAAAAAAAAAAAAAAAAAAAAAAAAAAAAAAAAAAAAAAAAAAAAAAAAAAAAAAAAAAAAAAAAAAAAAAAAAAAAAAAAAAAAAAAAAAAAAAAAAAAAAAAAAAAAAAAAAAAAAAAAAAAAAAAAAAAAAAAAAAAAAAAAAAAAAAAAAAAAAAAAAAAAAAAAAAAAAAAAAAAAAAAAAAAAAAAAAAAAAAAAAAAAAAAAAAAAAAAAAAAAAAAAAAAAAAAAAAAAAAAAAAAAAAAAAAAAAAAAAAAAAAAAAAAAAAAAAAAAAAAAAAAAAAAAAAAAAAAAAAAAAAAAAAAAAAAAAAAAAAAAAAAAAAAAAAAAAAAAAAAAAAAAAAAAAAAAAAAAAAAAAAAAAAAAAAAAAAAAAAAAAAAAAAAAAAAAAAAAAAAAAAAAAAAAAAAAAAAAAAAAAAAAAAAAAAAAAAAAAAAAAAAAAAAAAAAAAAAAAAAAAAAAAAAAAAAAAAAAAAAAAAAAAAAAAAAAAAAAAAAAAAAAAAAAAAAAAAAAAAAAAAAAAAAAAAAAAAAAAAAAAAAAAAAAAAAAAAAAAAAAAAAAAAAAAAAAAAAAAAAAAAAAAAAAAAAAAAAAAAAAAAAAAAAAAAAAAAAAAAAAAAAAAAAAAAAAAAAAAAAAAAAAAAAAAAAAAAAAAAAAAAAAAAAAAAAAAAAAAAAAAAAAAMjAyMzowNjoxNSAxNjoyODowNAAyMDIzOjA2OjE1IDE2OjI4OjA0AAAAAAYBAwADAAAAAQAGAAABGgAFAAAAAQAAEZQBGwAFAAAAAQAAEZwBKAADAAAAAQACAAACAQAEAAAAAQAAEaQCAgAEAAAAAQAAJKkAAAAAAAAAYAAAAAEAAABgAAAAAf/Y/9sAQwAIBgYHBgUIBwcHCQkICgwUDQwLCwwZEhMPFB0aHx4dGhwcICQuJyAiLCMcHCg3KSwwMTQ0NB8nOT04MjwuMzQy/9sAQwEJCQkMCwwYDQ0YMiEcITIyMjIyMjIyMjIyMjIyMjIyMjIyMjIyMjIyMjIyMjIyMjIyMjIyMjIyMjIyMjIyMjIy/8AAEQgAgAEAAwEhAAIRAQMRAf/EAB8AAAEFAQEBAQEBAAAAAAAAAAABAgMEBQYHCAkKC//EALUQAAIBAwMCBAMFBQQEAAABfQECAwAEEQUSITFBBhNRYQcicRQygZGhCCNCscEVUtHwJDNicoIJChYXGBkaJSYnKCkqNDU2Nzg5OkNERUZHSElKU1RVVldYWVpjZGVmZ2hpanN0dXZ3eHl6g4SFhoeIiYqSk5SVlpeYmZqio6Slpqeoqaqys7S1tre4ubrCw8TFxsfIycrS09TV1tfY2drh4uPk5ebn6Onq8fLz9PX29/j5+v/EAB8BAAMBAQEBAQEBAQEAAAAAAAABAgMEBQYHCAkKC//EALURAAIBAgQEAwQHBQQEAAECdwABAgMRBAUhMQYSQVEHYXETIjKBCBRCkaGxwQkjM1LwFWJy0QoWJDThJfEXGBkaJicoKSo1Njc4OTpDREVGR0hJSlNUVVZXWFlaY2RlZmdoaWpzdHV2d3h5eoKDhIWGh4iJipKTlJWWl5iZmqKjpKWmp6ipqrKztLW2t7i5usLDxMXGx8jJytLT1NXW19jZ2uLj5OXm5+jp6vLz9PX29/j5+v/aAAwDAQACEQMRAD8A9+FLQAUUAFFABRQAlLQAlLQAUUAFFABRQAUhYKpZiABySe1AHO6n430jT4ZXhaW/aLcGWzUOAVjaQqXJCA7VJxnPtUFvfavrOqy2M8qabFFuDi0YSyMwWF/vuuApEuCAucjIYUAS+GJ5oLi9064lmlXz5pbWSaTeTGJWRkySWbaQDk9pFHauloAKKACigAooAKKACigAooAKKACigAooAKKACigAooAKoalrWn6SF+2XIR3GUiRS8j8gfKigseSOg7igDlrvxxd3VleT6RYpClvZm8Wa958xPLLrhFOfmA7sCPTtVKW2k1HVbI6pdTXv+lvG0LuRAwW4dRmIfIeFHLAn3oAxW/5E/wD7ZL/6Z3ruNJ/5GzUP+uj/APoizoAR1NvpS6qi/PYX91I+FyWhM0gkHr935sDqUWuoByMigApKAFooAKKACqNtrWl3t7LZWmo2s91ECZIYplZkxgHIB4xkfmKAL1FABRQAUUAFFABRQAUUAFFAEVxcwWkDT3M0cMS/ekkcKo+pNcvqHj7ToIpjpsUmoPFHI5ZcpF8iyH75HzZ8qQAqGGV5xQBzt9r2uaheWsNxfC2t57dbjybIGMgmW3XaZM7jxKwyNueOKzvDkEUMqtHGqtLBbSSMBy7MLBmYnuSSSSepJNAEtp/yLt//ANi4n/pM9byf8hSz/wCv+b/0rloA55v+RP8A+2S/+md67fSf+Rs1D/ro/wD6Is6ANXRgG0+ZWAIN3dAg9/371FoO62t5tKf72nv5Ufy4DQkZiI9cLhSe7I1AGtS0AFULvWtNsZGinvIhOo3eQp3ykeyLlj+AoAg/ta7uH22GkXLqU3JPdEW8ZP8AdIOZAf8AgFAttbudpuNQgs1I+aO0h3sD/wBdJMgj/gAoAy5R4Yzturl9YlWQbo2Z70q/r5S7gn1CgCp7a7gvPFGnPbxPEiWd7HsdNpBWWAHj8KAOjooAKKACigAooAKKACigAooAwbmCKfxSzyxpI0NgGj3qDsO85I9DwOnpXmFsxfRXY97Gf/3I0AaUn/IS03/sHp/6PsqTQfvw/wDXraf+gafQAtp/yLt//wBi4n/pM9b6f8hSz/6/5v8A0rloA51v+RP/AO2S/wDpneu30n/kbNQ/66P/AOiLOgDW0T/jwl/6+7n/ANHvVPVbu10nV7G/uLmC3ScNbTGWQICoVnU8+hUgf75oAnGurMVFlp9/dg/xrD5SAeu6QqCP93NJ/wAT+5EbMdP09Qx8xRuuWZfY/IFP4MKAM+4TSY7lrTUtVvtSukbc1uHZ2UHkBooFAK4/vKaX+2rTRrO7+z6DNZxw2c96ilI4llEQXIwpJUncOqigC/8AY9YuhL5+rJbRvgxiytwJE9i8m8N+CLWJHD517f6fdySXlvHrEUYW6bzAVNrG5BB4xuJOOmTQB1o8i0gAHlwwoOBwqqP6Vy2jSxz+JbaWGRZI3j1Iq6NkEfaIehoA66igAooAKKACigAooAKo6jrOmaQivqN/b2qvnZ50gUtgZOAeuBzxQBZt7mC7to7i2mjmglUPHJGwZWB6EEcEVJQBiSf8jVcf9g0f+htXltp/yAm/68Z//cjQBpyf8hLTf+wen/o+ypNB+/D/ANetp/6Bp9AC2n/Iu3//AGLif+kz1vJ/yFLP/r/m/wDSuWgDnm/5E/8A7ZL/AOmd67fSf+Rs1D/ro/8A6Is6ANbRP+PCX/r8uf8A0e9Y+mMI2ibTdFt5L57WJ7m9ldYt5Zc4LAM7HvyMc9aAHX17rMa3FvNdW8EhksxHJaRfNGss+xhl9wY4HB2jr0p2u6BYf2Dq81ws1272sjH7XM0qghTgqjHYp/3QKAI7HV9N0rV/EP8AaF/a2vmamixieVULn7Lb8DJ5P0pmtCTXnvbext7kkaTeW/mTW7xIZJPL2AM4AbO08jI4oAP+EpnuFljtJNOWSDiVIXe/miPo0UI4P/AqrQNDcwX7AXM19PqUYkUhrPZL9njAx1ZV8sKe5yTQBbg8LzsYjNDpq+UcxtcLJfzofUTSsCD+BpulPcN4kskurl7mSK31CPzXVVJCzwAZCgDp7UAdZRQAUmaACloAKKAI554bW3kuLiVIoYkLySSMFVFAySSegA71l/21Pd4Gl6ZcThlYie5Bt4QR2O4b+exVGHvQBVvzJBA02ua6trBjmG0/c54JxuyXY8HlSvAPFZN/c6Q2heJrXTbBonjspXlumQDz2/eRt8xO9iGjYEsOexIoA6ObRVSeS602Y2N1Idz7V3RSn1ePgE8D5gQ3HXHFMj1prWVbfWYBZSMQqTht1vKfZ+Np6DDhSTwN3WgBkv8AyNdx/wBg0f8AobV5Zaf8gJv+vGf/ANyNAGnJ/wAhLTf+wen/AKPsqTQfvw/9etp/6Bp9AC2n/Iu3/wD2Lif+kz1vJ/yFLP8A6/5v/SuWgDnm/wCRP/7ZL/6Z3rt9J/5GzUP+uj/+iLOgDW0T/jwl/wCvy5/9HvXPWmrnSnjjZLVWnsbd4WubxIlchcFcfM+fohHvQBBcagdQsr26mNwLoPZKtvaWzIysLg7Cr3ARXBY9cAAA9am1LT9WWyvLq6HnQx2zyEXV87bsKSVaGJUjPp1NAF61tpdU1nXM3k1slvdpAFtkjQuPIifLPtLZy5HBHAFZ3ibT4bC0vlhadt2hahuaa4eUnAixy5J7n86AOslurPTrVZLmeC2hA+9I4RR+J4rmLSVJ9R1O+t91xbHWYpFkgUyBl+yxKSNucjPGR6GgDVuPEEsBmMumtZxJ9y41C6ihikPsQzMPxUVmaIxk17T5zNaStNbX8pNpN5sYJngOA+BnHToKAOvooASloAKKACigDA8df8k+8Sf9gu5/9FNXLeI9b1M+JY9MS9lispBco0cJ2H93BG6nePmBy56EDgcdcgGdbIuySbaPNmhnaWTHzOR9vAJPc4AHPpV8f8gfxP8A9eN1/wClV1QB6VTZI0mjaOVFeNhhlYZBHoRQBz8nh6XTrl7zRXXcYTEbO4dvKK8kBG5MfJHZlwMBR1rzYwT6baTaffQvbXaWM48uQY3DF82VPRhiRMkE43AHBoA0JTjUtOJ/6B6f+j7Kq2hXtv50KRu00n2W1+SBGlbiOxJ+VQT/AAP/AN8n0oA1NO0XXLjSZ7ZNImiafSY7NZLl1jUP5TIcjJbAJ/u810MPhjVpbu3uJ7+1tUjlkmaKGIytlpXkGJGIHG/HKHOKAMnW/BIt7TT9M0/VbwT3MkkKy3LKy4FpJGoKKAuNoAzjd75rW8PXLXHia/MsL28wkkDwydVIhtB+IJU4PQ0Ab2if8eEv/X5c/wDo96xtJ1LTdOy99eWtszWdsAZpFQkbD0z1oAbqFw2oSXV3YW1zcxobFhiIp5my4Z22l9obC85ziota8TLPY3FlixtvOheOQXd+gljBUgkJEJN2PqKAAPe2/iHWk0+e5uI5rhGmitbNRJBJ5ES482Vwh+UI2ApxuqG7efTxfyapaXF6F0m7lR7y6Qs6L5e+No40CKGyvIJPFAGhY+F5Yt7yT6fA5/1cthpyxyqPd5DJuPvgVVQTTT3mmXV9dXUUerRwFnfY5Q26SFSUC8bmJ7elAHRW2i6XaSeZb6daRSf30hUN+eM1h6X/AMjVB/ual/6UQUAdXRQAyWWOCJ5ZZFjjQFmdzgKB1JPaslvEUE8ZfTbea/TaHE0YCQbT/F5rYVh67Sx9qAMX/hI7nVGAsrp7obuI9EhEy8dVa5kAi/ABWHrXA/EHULrSPDc2p6TLfadeo9qpc3byyg+bdK6s5J3AlRwcjgegoAy9L+NXiTT2hTUIrXU43UOxdfKk5KjAKjb/ABf3e1eu+C/Gtv4z08XUNjcWhMaybZWVgQSw4IPqp6gUAWfHP/JPvEn/AGC7n/0U1cP4g/5Hm3/3r7/0lgoALb/j1H/Xvcf+39XR/wAgfxP/ANeN1/6VXVAHpVFAGZdXmoG/ks7C2tmKRJI0s8zKBuLAYUKd33T3FUdQ8O3Gu2i22sahHJBnLRW1oiq3GOsm8g89VKn3oAW18E+HrZcNp63XyhQb6R7nA44HmFto+UdMdBWhd6npOiQxJeXtnYxnCRLLKsYPoFBx+QoAjOu25m8m3tb+4cjIKWjqhHtIwCf+PVRv/EkmnhWuorDTlc7U/tLUEiLH2Chs/TNAFeG9udQn8P3F2iJL/aFwgMasFZVjmCsM84IAOe+a1tS0x5bmPUrAxx6lAhRWcfLLGTkxv3wSAQRyp55GQwBF4ZuRc6XKWjaGZLu4E0D43xMZWYK2O+1lPuCCOCKo6RbSXoCPeXEcKWNunlwlUzlM53gb8/RhQBT1LSbS2Fzp5E1xaySacXjvLiS5DZuiDnzGbggDj2rW8SXWm6T4Vv45Z7SyiNrIkSs6xgkqcADjn2FAFWz1BNK1bXzc2183nX6PF5NlLKGH2aBc5RSMZBH4Gm6xDca3FdbbSa2hbSru3EtyVQbpNmOMlh905yBigBkXiiW+icWFxpEvl8M1rPJesv1SNBz+NUbdo7uzv547y/a/l1NGb7LZC2kSUQIAoS4yMbADlvXigC9Jpuqaikf2i2vTs6GfWGtmP1W2G00mjsf+EgsEa3igaK2v42WJiwJE8Azk8knqSaAOtrM1+7ksdHlnikaNg8ab0ALKGkVSQDxnBOM8UAcENUtLu3t9TutSsoI32yxzTFr+4hLKCCRgRWzYPoVpUnOrlZbTQb/WpA+fO1RhMqHs6Jlbcj3RwfagCzcnU5S6at4jt7bycbrTT988ig/9M4wpA9mEgrkvGGk3viLwudG0G2lv5sWwiMMKpHsSS5PzOoWNW2vGSvB+bp1oAwIvhjcRSW413XdK0lhCC1sZfOuBjaf9WvB+4eQx4ye1eg+B7L/hELW3s4tW0q4kZfIFvdTfZpQiyygMPvbiTu4wOnWgDd8aa0f+EC8Qx3mm39pJJp9zEm6HzVY+W2DuiLBV9221zniD/kebf/evv/SWCgAt/wDj1H/Xvcf+39XR/wAgfxP/ANeN3/6VXVAHpVFAHO6rqEumajeTwwtITFbIdsTylQWly21AWb6Cqz3Wuzyx+X/aMsMnR7Oyitgn++Lhy35LQAo0LUp5pFuViaFxy9zqE9wG+sICIPwNR29rYaS/2M+INP06TtbWEEFuP++W3t+tAEsS6POZofK1jUSRllnS5eKT2BfEX5cU6G/j0qykaLQLXRo1Py/briC3RvfMZfH4igCK21STWJPD15JHAjHULiP9xL5sZ2RzLlWwMg4znA611lAGRaf8jVqn/XtbfzlrFt7a9uIUGmyzLILO381DcrDG3ycYYRO4OPTFAFeezmgs76yu7W0kmnNkp+0zzXqYecqM+YRnackAbRmrs+gPomhXs9nffZXht3kVLOzgijyFJHGwnt60AWLCzTUta183ctzIsN6kMcX2mQRqn2eFsbA237zMenesrxJpGm6Vb6gdP0+2tTJoeoGQwxKhcgRdSOv40AdlJcW9pbh55ooYwPvSMFH61x9rf2s1/qt/BOk9outRN50B8xcC0iBxtznnjjvQB0Vv4gs7pmWCDUGYf3tPnjB+jMgH61ytzb28uq20WrW6wtcW+pSQ29y65YmWFl4BIJxzjmgDodY8SjTbxrKCzee6Coy5JCEvvwvyhnJxG54Q8CsfUdW1bU/DAufsVpFA16scjPO6vGEuQmdhj5+7nBI69KAOa0O31FNF069tdD06BkiQvqOoylhMpUfPHJJ88WeuPKIqzeyQSwySa14sluYDygtIwUz/AHTI/wDo7D6opoAfajTpRENN8K3OoxbeHvC0oVvVUP7j/vl1rn9PuLo6n9le4uEiW6vS9upMSK6pv+4rsvDk45PbmgChNFHDqNgkUaoguNWAVRgD/Q66qOSa21W7kjntLbzbQIov5BHb3LC5uvlLFG5XOcAgnfz2oAj8QJf2fgvVHfRYSrWE/nXOm3DQ2/8Aqz0hRnDe5YAYpfEP/I823+9ff+ksFABb/wDHqP8Ar3uP/b+ro/5A/if/AK8bv/0quqAPSqKAOe1Oe/t9Su30+FpZfKtgyqgdtm+XOAWUZ+pqrJb67cMJYxqTZ6295eQWyD/gUCO/60ANuPDdxJGsj/2ZE3WT+0PO1AD/AHTJImPyoZ9ItFWFPFENmRw0FkbdAx9l2s35GgCR10WbBaHW7w/3WW7ZH/BsJ/SpLf7JaBpbbwn9jYfdklW3iB+pVyw/KgCKLVG1e40C6aJImGo3MRWOXzFykcyZDYGQdueldVQBkWn/ACNWqf8AXrbfzlrCj1n+xYoiH04yT2duUS6vlg6Jjphm/IUAMmv21K1vbuWe2tZ0NltEUc1yuVnLJxsQvuY7fl/OnXN9rEul3iaml5PaGF/NlsrBLbCbTniaZj09qAHvb3k2u6y2kxTyAXSC5SbUPs0Zk8iLldkbP9zZ36g0y+RtIhvZ7qwikn/sm7l2zX812hCbMoRJj5WyM4A6UAX9P8LNEm64fS0kI4ew0tISP++2kqvbS3v2m+06fUrmeOLVo7dZDsjcRm3SQrmNV/iY84z70AbLeHdPkbMv2yX/AGZb6Z1/75L4/SuKvYoYNZ0yBF8qJW1EIFQkLiWLA9hQBa8VBB4jmmlBWGIWryTCVo/KG26GciRBySF+Y7fm5Bp+nvHL8MlkhYSxvfOUJKYYG9OOYztx/unHpQBymiw6XPo2msLDV9WnjiQJNBL8kDYGUWa2DSbR0w5PArqbW01uK7afT/DGm6czrg3Eyp5hHqZtxcn/AHo/rQBAv2rU2ktbvxjb3Dwnc8FhI8s6e3+jmPP0ZDXKaesia6VlEm4T32DJF5TMvkDDMuBgkYJ4HJoAr3CM2p2OB0udWz/4Biuos7eZvEVxLZ6XHf3CWiiRZERWjU3N1tKSF1Kk/NnAPRaAMrxTZxWfhrXIx4f1WxuZLOZ5LiBmuQfkJw8sqcJ6hW6dKv8AiD/kebf/AHr7/wBJYKAC3/49R/173H/t/V0f8gfxP/143f8A6VXVAHpVFAHP6muoPqd2NNdlm8q2LbWVSV3S5wWVgPyqpPoep3kqyzIUkHf+2rrZ+MaBFNADZ9AgjH2nVX8PLs6TvpoDJ/wOSQ/nim6fqWkvM0UPjb7cRx9nt3tiF9gI49360AK6aJFe72j8SXEp/hIv3j/I/JU72WmNKtyngszSj7spt7ZX/N3BoABfrqV1oE62z22zULiEwuVJUpFMh+6SOo7GunoAyLT/AJGrVP8Ar1tv5y1j6br2j6Q6x6lqtjZySWlsUS4uEjLfIegJ5oAdqN5Dfy3F3Ylru3RrAl7ZGlzsuWZsbQc4HJxmrOqa3DqGk39naWOqSTSwSRoG0+aMFipA+Z1A6980ALbyX2laprch0m6uIrq7WeKSKWEAqIIkOd0ikHcjdqzdSuTr7X8LPZ2RTSLuFhNeRsyeZ5fzMEJ2qNvJz3FAF2DxJcXkX+hyaRLgfet7mS5/RYx/OqMEirDqF89/uvG1WORkj02b5JBBGoj8snecoA27gc+1AF6WXWLxN0U2rx8f8u9pbxfpMTXOXihdT0TJvnKrf+d9qeJZDJ5kWS3lqVI3dl29uexALviVpU8VPJbllmQWpSQNgJ8l0CT+7kzwSAAuckcipLZjJ8OGZzJKWv3LFlZWb/TT2YAg/UfhQBgW1w0GgaUl94ovLS3FtGEiis5yYQFGFaWHYuQODuHaiceG5blLgHU9dkH/AC8W8tqZF/FSs38zQBpGO21CNBbeEm1JU5Uar9qZh9PPi2n/AL7FcnpiomtlUi8kC51DMWwJ5Z8kZXAJGAcjgnpQBHNKY9TshgHdc6tn8LMGt66t9PvL+ZtStbnUY4bcNHa20EsrQk3Nzl9gjZDuwByc/IaAM/xBLby+DtXxceINNVLKYR297LDFHJ8hwojjcHnpyv4VpeIP+R5t/wDevv8A0lgoALf/AI9R/wBe9x/7f1dH/IH8T/8AXjd/+lV1QB6VRQBz2p2d1e6ldxWkvlyCK2Y/vni3KGlyNyfMPwqnf+G1mhzfyaO6gc/b7WS4A/F5aAKtquiWDeUnifRrNuvl2UVtD+jbq0HmsGi+bxNe3KY6W7Rk/wDkJAaAK8FxoYl2ofE0jdSWj1EqfzG2p7nStCnAmbws2oPnIM1qhbPr++IoAZBcWtxL4eNnYNYQx39xF9mZEXy2SOZW4QleoJ4PeuroAyLT/katU/69bb+ctZ+mWsmoxxxyX13FFFaW4VIHCdUyTkDP60AQXtqbCa5toLy/McklhkyXsrsN9wVbaS2VyODjFWvEOgaU/h/UZZbNJpEtZWV5iZCCFJByxNACaRp9lceIPEdxNZ28k66girK8Slgv2WA4yRnGSfzqt4xjRLa8CIq/8SLUOAMdoqAOpM0UUYMkiIMdWYCuOTULKLU9VvJLy3S1XXId07SqEH+hxD72cdeKAOiTxLoMmNmt6a2em26Q5/WuK1HZNr2kzR7JAW1JozsDBgZYxuBI44PUUAWPFayP4lkjiZPMYWoEcsIljk+S6JDqZYxjHP3uoHBqa0AX4cYJjQC/fJgjCqv+mn7qhiAPQBj9aAMbSbHWINI0650yz8OLA9rGyy31osM0g2jDM6yPyep471stqGpyoFuvE2l6a3T/AEbUYZB+T24P60AU83ErgN45s7lM4IhhnZ/zinUf+O1yunqy68yupUi4v+WRlLDyRhiHJbLDnk96AKt1/wAhOx/6+NX/APSIV2VlYXEmoy3TR6hFA0GyO4st+HcXNyWVwjBiAGUj/eagDO8XQa0vhbWiPEV6LUWE263Oi3PzjYcqZJGYAHpnjFP8Qf8AI82/+9ff+ksFABb/APHqP+ve4/8Ab+ro/wCQP4n/AOvG7/8ASq6oA9KooA5rW7WG7vLxJ7m1t40itnL3UYeI4eXhlJAP59aoRReGol+fWtDikA5a2ito8fg26gBwutKGPI8bzhR/Bb/ZCD/3zCTViO60zb82r6zd57osv/tNBQA5v7GkGT/wkRB9P7QH8qT7NoHGdN1O4P8A02t7mTP/AH2P50AJG9g8/h7+zLYW1sl/cJ5Qi8va6xzB/l9dwNdVQBkWn/I1ap/17W385a59bfVZzD/ZAJ22duJd9/5Cn5TjGIXPT3FADpEuYob2HUtOR7p2sgu3VpnDbpyE+fy1KbW+b5RzVnVNGaLSLyeeOR0iheRom1W6dXAUkqcsOD0oAgk0mXWdd1l7ePTIfs90kLtcWskxlPkRNuIEqjowXp0UVVmtLvw0uoSTQaDNnSbudfsulmA5j2fK5Mr7lO7kcdBQBtW3hhFUNIunBiOsGmxp/MtVaGa6E99psVyYVi1SO3WWKGMMENvHIeNu3OWPOOlAGkdDvS+T4m1bb/dCWwH6Q5rkdReb+3NGjmupJ5Y/7RjWWWVEZlWSPggbd3AxgA/TjNAHUx2tvdeLdUW4gimVbW0ZRIgYA7p+RnvVF4mbwjPFCFDNqsioCOM/bjigDB07wDbx2Fslx4a23axr58sOqvAHkAG5gI+mTmtu28O3FsAE0sEDoJvEF3J/6EpoAtto8svE3hrQ5B6yXLOf1hrzmKxOm+J5LVkiTZcXxCQ/cQNArBV4HABx0HSgDPuv+QnY/wDXxq//AKRCvZPDP/IDT/rvP/6OegCv46/5J94k/wCwXc/+imrh/EH/ACPNv/vX3/pLBQAlt/x6D/r3uP8A2/q8P+QP4n/68bv/ANKrqgD0qkFAHP6nFDLqlyJrua1Kx2zRyQKGfdulwACrA9+xoTKctrOtSD0Nmv8A7LCKAJGurYffuNZb6Wkw/wDQYxVSX+ypDl5PEf8AwBb5f5CgCq9noMrZZ/FefabVF/kaFg8PRADZ4nbH946m/wDPNAE8D6c8vh46Usi2v2+4GJUkV9/lzb9wk+bO7d1rqjQBlWp/4qjUxz/x7W385awIdaXRmhBn0rM1lbtsub/yXXC4+7sPHvQA2fU11KG/v/tmjJ5DWRwuoF0Gycv87bBt3dBwcmn6j4nW+0u7tftWgxieF4y51RiFyCM/6qgCwuonSNd1lFuNKk+03STFJb1o5Iz5ESbWURt/cz16MKg1CdddS9WW8023A0q7hzHctJtD7MucouFXbz9RQBoLr16QAqaacDtcyn/2lVGINi/vxe2X2h9TjmMY3sqMIEQIeA2SAG6dCKALn9r6sektgP8At1nNc3fq39raMXuYpDIL+SRoomADGSI7cE5XnjJz9KAOouG1DT/Ed5eQ6PdX0FxbQIrW8kKkMjSEgiR1/visqG51oab9kbwpqqsdQN0WM9pgIbrzcf67Odv6/nQB0cWq3LkB9E1GL3cwn/0GQ1MdTRRl7W8X6W7N/wCgg0AVX8R2UYJa31Tj+7pdy38o681vJxc+LZrxYbqOB5bpg1xbSQnBt1UZDqCMkEDI5oAwb24hj1KzLzRqEuNULEsBgNabVz9TwPU8V6t4c8Q6Imjoj6xp6v50x2m5QHBlcjvQAzxtq+nS+AvESRX1vIzaZchQkgbJMTY6VcNl4Z1O5+0s1nPcMD86XGSMgKcYPGQoBx1AGaALI8PaM6sFtU2scna7f7WQMHgHe+QODuPrVLxDpdnZeF9emtoFjkms5i5BPOQzHr0+ZmPHcmgDoyQBkkACqc+saZa5FxqNpCR18ydVx+ZoAyYm0rxHqV75F4l1AkVv+9s7oja4aU/fjYEHn171b/4Rqx/5+NV/8Gtz/wDHKAD/AIRqx/5+NV/8Gt1/8co/4Rmx/wCfjVf/AAa3X/xygBP+EYsP+fnVv/Btdf8Axyj/AIRix/5+dW/8G11/8coAqzadbaXfeH7W1EgjF7M/7yVpGLNDMzEsxJJJJPJro6AObl1a10zxRqP2gXDFrW3wsFtJMx+aXsik1Bo2radZIpvL63tfMsrV0FxIIyRs9GwaAINV1fTJ5rq6h1G0ktoX00yzJOpRMXRPzEHA49at654o8PTeH9Sji13THke1lVVW7jJJKngDNAC6VqVhaa54kiub22gkOoIwSWVVJH2W35wTVLxZe2t3b332a5hm26FqGfLkDY4i9KAOujmiZF2yoeOzCuVg51/U/wDsORf+kcVAHX1wklml3rsLSM48lNTlAUjBImixn25oA7uigBOtLQAUUAFFACEBgQQCDwQarNplg/37G2b6xKf6UAQHQNGPXSLA/W2T/Coz4a0Fl2nRdOKkYI+yp/hQA9fDuiL93RtPH0tU/wAKsxadZQ48qzt48dNkSj+lAEF3othez+fNE4l2BN8UzxnAJIHykep/OoV8O2C/dl1EZ9NSuP8A4ugCRdCtFzibUOfXUZz/ADeg6LH/AAXuoJx2u3b/ANCJoAhOhz/wa9qqfRom/wDQozSJot8hyfE2rN7NHa//ABmgBtx4enuZLeSTXtT8y3cvE4S3BUlSp/5ZY6Mam/sCB0AubzUbhu7NeSJn6qhVf0oAt2Wm2OnKy2drFBvILlFwXPqT1J+tUrOy1m0gjg+22DwxIEQfZXDYAwMnzDzj2oAsn+0wP9XZyfV2T+hqpI+vfw6VpL/71+4/9omgCsT4hlkzceHtEf8A2hqTsf1txU0C30bMX8P2Ue5drGG4BJHpyg4oAY1jZnl/CiOe+2O3P82FMPlR2jWq+Dbg27NvaFUtNhb1x5uM8CgCqtvpn8fgKVPra2jf+gyGki0qx1HW7FW8OiDT7a1uF8u4tYwiu7xEYUZGTtfn/GgD/9kA/+Ex6Gh0dHA6Ly9ucy5hZG9iZS5jb20veGFwLzEuMC8APD94cGFja2V0IGJlZ2luPSfvu78nIGlkPSdXNU0wTXBDZWhpSHpyZVN6TlRjemtjOWQnPz4NCjx4OnhtcG1ldGEgeG1sbnM6eD0iYWRvYmU6bnM6bWV0YS8iPjxyZGY6UkRGIHhtbG5zOnJkZj0iaHR0cDovL3d3dy53My5vcmcvMTk5OS8wMi8yMi1yZGYtc3ludGF4LW5zIyI+PHJkZjpEZXNjcmlwdGlvbiByZGY6YWJvdXQ9InV1aWQ6ZmFmNWJkZDUtYmEzZC0xMWRhLWFkMzEtZDMzZDc1MTgyZjFiIiB4bWxuczp4bXA9Imh0dHA6Ly9ucy5hZG9iZS5jb20veGFwLzEuMC8iPjx4bXA6Q3JlYXRvclRvb2w+V2luZG93cyBQaG90byBFZGl0b3IgMTAuMC4xMDAxMS4xNjM4NDwveG1wOkNyZWF0b3JUb29sPjx4bXA6Q3JlYXRlRGF0ZT4yMDIzLTA2LTE1VDE2OjI4OjA0Ljc4NzwveG1wOkNyZWF0ZURhdGU+PC9yZGY6RGVzY3JpcHRpb24+PC9yZGY6UkRGPjwveDp4bXBtZXRhPg0KICAgICAgICAgICAgICAgICAgICAgICAgICAgICAgICAgICAgICAgICAgICAgICAgICAgICAgICAgICAgICAgICAgICAgICAgICAgICAgICAgICAgICAgICAgICAgICAgICAgIAogICAgICAgICAgICAgICAgICAgICAgICAgICAgICAgICAgICAgICAgICAgICAgICAgICAgICAgICAgICAgICAgICAgICAgICAgICAgICAgICAgICAgICAgICAgICAgICAgICAgCiAgICAgICAgICAgICAgICAgICAgICAgICAgICAgICAgICAgICAgICAgICAgICAgICAgICAgICAgICAgICAgICAgICAgICAgICAgICAgICAgICAgICAgICAgICAgICAgICAgICAKICAgICAgICAgICAgICAgICAgICAgICAgICAgICAgICAgICAgICAgICAgICAgICAgICAgICAgICAgICAgICAgICAgICAgICAgICAgICAgICAgICAgICAgICAgICAgICAgICAgIAogICAgICAgICAgICAgICAgICAgICAgICAgICAgICAgICAgICAgICAgICAgICAgICAgICAgICAgICAgICAgICAgICAgICAgICAgICAgICAgICAgICAgICAgICAgICAgICAgICAgCiAgICAgICAgICAgICAgICAgICAgICAgICAgICAgICAgICAgICAgICAgICAgICAgICAgICAgICAgICAgICAgICAgICAgICAgICAgICAgICAgICAgICAgICAgICAgICAgICAgICAKICAgICAgICAgICAgICAgICAgICAgICAgICAgICAgICAgICAgICAgICAgICAgICAgICAgICAgICAgICAgICAgICAgICAgICAgICAgICAgICAgICAgICAgICAgICAgICAgICAgIAogICAgICAgICAgICAgICAgICAgICAgICAgICAgICAgICAgICAgICAgICAgICAgICAgICAgICAgICAgICAgICAgICAgICAgICAgICAgICAgICAgICAgICAgICAgICAgICAgICAgCiAgICAgICAgICAgICAgICAgICAgICAgICAgICAgICAgICAgICAgICAgICAgICAgICAgICAgICAgICAgICAgICAgICAgICAgICAgICAgICAgICAgICAgICAgICAgICAgICAgICAKICAgICAgICAgICAgICAgICAgICAgICAgICAgICAgICAgICAgICAgICAgICAgICAgICAgICAgICAgICAgICAgICAgICAgICAgICAgICAgICAgICAgICAgICAgICAgICAgICAgIAogICAgICAgICAgICAgICAgICAgICAgICAgICAgICAgICAgICAgICAgICAgICAgICAgICAgICAgICAgICAgICAgICAgICAgICAgICAgICAgICAgICAgICAgICAgICAgICAgICAgCiAgICAgICAgICAgICAgICAgICAgICAgICAgICAgICAgICAgICAgICAgICAgICAgICAgICAgICAgICAgICAgICAgICAgICAgICAgICAgICAgICAgICAgICAgICAgICAgICAgICAKICAgICAgICAgICAgICAgICAgICAgICAgICAgICAgICAgICAgICAgICAgICAgICAgICAgICAgICAgICAgICAgICAgICAgICAgICAgICAgICAgICAgICAgICAgICAgICAgICAgIAogICAgICAgICAgICAgICAgICAgICAgICAgICAgICAgICAgICAgICAgICAgICAgICAgICAgICAgICAgICAgICAgICAgICAgICAgICAgICAgICAgICAgICAgICAgICAgICAgICAgCiAgICAgICAgICAgICAgICAgICAgICAgICAgICAgICAgICAgICAgICAgICAgICAgICAgICAgICAgICAgICAgICAgICAgICAgICAgICAgICAgICAgICAgICAgICAgICAgICAgICAKICAgICAgICAgICAgICAgICAgICAgICAgICAgICAgICAgICAgICAgICAgICAgICAgICAgICAgICAgICAgICAgICAgICAgICAgICAgICAgICAgICAgICAgICAgICAgICAgICAgIAogICAgICAgICAgICAgICAgICAgICAgICAgICAgICAgICAgICAgICAgICAgICAgICAgICAgICAgICAgICAgICAgICAgICAgICAgICAgICAgICAgICAgICAgICAgICAgICAgICAgCiAgICAgICAgICAgICAgICAgICAgICAgICAgICAgICAgICAgICAgICAgICAgICAgICAgICAgICAgICAgICAgICAgICAgICAgICAgICAgICAgICAgICAgICAgICAgICAgICAgICAKICAgICAgICAgICAgICAgICAgICAgICAgICAgICAgICAgICAgICAgICAgICAgICAgICAgICAgICAgICAgICAgICAgICAgICAgICAgICAgICAgICAgICAgICAgICAgICAgICAgIAogICAgICAgICAgICAgICAgICAgICAgICAgICAgICAgICAgICAgICAgICAgICAgICAgICAgICAgICAgICAgICAgICAgICAgICAgICAgICAgICAgICAgICAgICAgICAgICAgICAgCiAgICAgICAgICAgICAgICAgICAgICAgICAgICAgICAgICAgICAgICAgICAgICAgICAgICAgICAgICAgICAgICAgICAgICAgICAgICAgICAgICAgICAgICAgICAgICAgICAgICAKICAgICAgICAgICAgICAgICAgICAgICAgICAgICAgICAgICAgICAgICAgICAgICAgICAgICAgICAgICAgICAgICAgICAgICAgICAgICAgICAgICAgICAgICAgICAgICAgICAgIAogICAgICAgICAgICAgICAgICAgICAgICAgICAgICAgICAgICAgICAgICAgICAgICAgICAgICAgICAgICAgICAgICAgICAgICAgICAgICAgICAgICAgICAgICAgICAgICAgICAgCiAgICAgICAgICAgICAgICAgICAgICAgICAgICAgICAgICAgICAgICAgICAgICAgICAgICAgICAgICAgICAgICAgICAgICAgICAgICAgICAgICAgICAgICAgICAgICAgICAgICAKICAgICAgICAgICAgICAgICAgICAgICAgICAgICAgICAgICAgICAgICAgICAgICAgICAgICAgICAgICAgICAgICAgICAgICAgICAgICAgICAgICAgICAgICAgICAgICAgICAgIAogICAgICAgICAgICAgICAgICAgICAgICAgICAgICAgICAgICAgICAgICAgICAgICAgICAgICAgICAgICAgICAgICAgICAgICAgICAgICAgICAgICAgICAgICAgICAgICAgICAgCiAgICAgICAgICAgICAgICAgICAgICAgICAgICAgICAgICAgICAgICAgICAgICAgICAgICAgICAgICAgICAgICAgICAgICAgICAgICAgICAgICAgICAgICAgICAgICAgICAgICAKICAgICAgICAgICAgICAgICAgICAgICAgICAgICAgICAgICAgICAgICAgICAgICAgICAgICAgICAgICAgICAgICAgICAgICAgICAgICAgICAgICAgICAgICAgICAgICAgICAgIAogICAgICAgICAgICAgICAgICAgICAgICAgICAgICAgICAgICAgICAgICAgICAgICAgICAgICAgICAgICAgICAgICAgICAgICAgICAgICAgICAgICAgICAgICAgICAgICAgICAgCiAgICAgICAgICAgICAgICAgICAgICAgICAgICAgICAgICAgICAgICAgICAgICAgICAgICAgICAgICAgICAgICAgICAgICAgICAgICAgICAgICAgICAgICAgICAgICAgICAgICAKICAgICAgICAgICAgICAgICAgICAgICAgICAgICAgICAgICAgICAgICAgICAgICAgICAgICAgICAgICAgICAgICAgICAgICAgICAgICAgICAgICAgICAgICAgICAgICAgICAgIAogICAgICAgICAgICAgICAgICAgICAgICAgICAgICAgICAgICAgICAgICAgICAgICAgICAgICAgICAgICAgICAgICAgICAgICAgICAgICAgICAgICAgICAgICAgICAgICAgICAgCiAgICAgICAgICAgICAgICAgICAgICAgICAgICAgICAgICAgICAgICAgICAgICAgICAgICAgICAgICAgICAgICAgICAgICAgICAgICAgICAgICAgICAgICAgICAgICAgICAgICAKICAgICAgICAgICAgICAgICAgICAgICAgICAgICAgICAgICAgICAgICAgICAgICAgICAgICAgICAgICAgICAgICAgICAgICAgICAgICAgICAgICAgICAgICAgICAgICAgICAgIAogICAgICAgICAgICAgICAgICAgICAgICAgICAgICAgICAgICAgICAgICAgICAgICAgICAgICAgICAgICAgICAgICAgICAgICAgICAgICAgICAgICAgICAgICAgICAgICAgICAgCiAgICAgICAgICAgICAgICAgICAgICAgICAgICAgICAgICAgICAgICAgICAgICAgICAgICAgICAgICAgICAgICAgICAgICAgICAgICAgICAgICAgICAgICAgICAgICAgICAgICAKICAgICAgICAgICAgICAgICAgICAgICAgICAgICAgICAgICAgICAgICAgICAgICAgICAgICAgICAgICAgICAgICAgICAgICAgICAgICAgICAgICAgICAgICAgICAgICAgICAgIAogICAgICAgICAgICAgICAgICAgICAgICAgICAgICAgICAgICAgICAgICAgICAgICAgICAgICAgICAgICAgICAgICAgICAgICAgICAgICAgICAgICAgICAgICAgICAgICAgICAgCiAgICAgICAgICAgICAgICAgICAgICAgICAgICAgICAgICAgICAgICAgICAgICAgICAgICAgICAgICAgICAgICAgICAgICAgICAgICAgICAgICAgICAgICAgICAgICAgICAgICAKICAgICAgICAgICAgICAgICAgICAgICAgICAgICAgICAgICAgICAgICAgICAgICAgICAgICAgICAgICAgICAgICAgICAgICAgICAgICAgICAgICAgICAgICAgICAgICAgICAgIAogICAgICAgICAgICAgICAgICAgICAgICAgICAgICAgICAgICAgICAgICAgICAgICAgICAgICAgICAgICAgICAgICAgICAgICAgICAgICAgICAgICAgICAgICAgICAgICAgICAgCiAgICAgICAgICAgICAgICAgICAgICAgICAgICAgICAgICAgICAgICAgICAgICAgICAgICAgICAgICAgICAgICAgICAgICAgICAgICAgICAgICAgICAgICAgICAgICAgICAgICAKICAgICAgICAgICAgICAgICAgICAgICAgICAgICAgICAgICAgICAgICAgICAgICAgICAgICAgICAgICAgICAgICAgICAgICAgICAgICAgICAgICAgICAgICAgICAgICAgICAgIAogICAgICAgICAgICAgICAgICAgICAgICAgICAgICAgICAgICAgICAgICAgICAgICAgICAgICAgICAgICAgICAgICAgICAgICAgICAgICAgICAgICAgICAgICAgICAgICAgICAgCiAgICAgICAgICAgICAgICAgICAgICAgICAgICAgICAgICAgICAgICAgICAgICAgICAgICAgICAgICAgICAgICAgICAgICAgICAgICAgICAgICAgICAgICAgICAgICAgICAgICAKICAgICAgICAgICAgICAgICAgICAgICAgICAgICAgICAgICAgICAgICAgICAgICAgICAgICAgICAgICAgICAgICAgICAgICAgICAgICAgICAgICAgICAgICAgICAgICAgICAgIAogICAgICAgICAgICAgICAgICAgICAgICAgICAgICAgICAgICAgICAgICAgICAgICAgICAgICAgICAgICAgICAgICAgICAgICAgICAgICAgICAgICAgICAgICAgICAgICAgICAgCiAgICAgICAgICAgICAgICAgICAgICAgICAgICAgICAgICAgICAgICAgICAgICAgICAgICAgICAgICAgICAgICAgICAgICAgICAgICAgICAgICAgICAgICAgICAgICAgICAgICAKICAgICAgICAgICAgICAgICAgICAgICAgICAgICAgICAgICAgICAgICAgICAgICAgICAgICAgICAgICAgICAgICAgICAgICAgICAgICAgICAgICAgICAgICAgICAgICAgICAgIAogICAgICAgICAgICAgICAgICAgICAgICAgICAgICAgICAgICAgICAgICAgICAgICAgICAgICAgICAgICAgICAgICAgICAgICAgICAgICAgICAgICAgICAgICAgICAgICAgICAgCiAgICAgICAgICAgICAgICAgICAgICAgICAgICAgICAgICAgICAgICAgICAgICAgICAgICAgICAgICAgICAgICAgICAgICAgICAgICAgICAgICAgICAgICAgICAgICAgICAgICAKICAgICAgICAgICAgICAgICAgICAgICAgICAgICAgICAgICAgICAgICAgICAgICAgICAgICAgICAgICAgICAgICAgICAgICAgICAgICAgICAgICAgICAgICAgICAgICAgICAgIAogICAgICAgICAgICAgICAgICAgICAgICAgICAgICAgICAgICAgICAgICAgICAgICAgICAgICAgICAgICAgICAgICAgICAgICAgICAgICAgICAgICAgICAgICAgICAgICAgICAgCiAgICAgICAgICAgICAgICAgICAgICAgICAgICAgICAgICAgICAgICAgICAgICAgICAgICAgICAgICAgICAgICAgICAgICAgICAgICAgICAgICAgICAgICAgICAgICAgICAgICAKICAgICAgICAgICAgICAgICAgICAgICAgICAgICAgICAgICAgICAgICAgICAgICAgICAgICAgICAgICAgICAgICAgICAgICAgICAgICAgICAgICAgICAgICAgICAgICAgICAgIAogICAgICAgICAgICAgICAgICAgICAgICAgICAgICAgICAgICAgICAgICAgICAgICAgICAgICAgICAgICAgICAgICAgICAgICAgICAgICAgICAgICAgICAgICAgICAgICAgICAgCiAgICAgICAgICAgICAgICAgICAgICAgICAgICAgICAgICAgICAgICAgICAgICAgICAgICAgICAgICAgICAgICAgICAgICAgICAgICAgICAgICAgICAgICAgICAgICAgICAgICAKICAgICAgICAgICAgICAgICAgICAgICAgICAgICAgICAgICAgICAgICAgICAgICAgICAgICAgICAgICAgICAgICAgICAgICAgICAgICAgICAgICAgICAgICAgICAgICAgICAgIAogICAgICAgICAgICAgICAgICAgICAgICAgICAgICAgICAgICAgICAgICAgICAgICAgICAgICAgICAgICAgICAgICAgICAgICAgICAgICAgICAgICAgICAgICAgICAgICAgICAgCiAgICAgICAgICAgICAgICAgICAgICAgICAgICAgICAgICAgICAgICAgICAgICAgICAgICAgICAgICAgICAgICAgICAgICAgICAgICAgICAgICAgICAgICAgICAgICAgICAgICAKICAgICAgICAgICAgICAgICAgICAgICAgICAgICAgICAgICAgICAgICAgICAgICAgICAgICAgICAgICAgICAgICAgICAgICAgICAgICAgICAgICAgICAgICAgICAgICAgICAgIAogICAgICAgICAgICAgICAgICAgICAgICAgICAgICAgICAgICAgICAgICAgICAgICAgICAgICAgICAgICAgICAgICAgICAgICAgICAgICAgICAgICAgICAgICAgICAgICAgICAgCiAgICAgICAgICAgICAgICAgICAgICAgICAgICAgICAgICAgICAgICAgICAgICAgICAgICAgICAgICAgICAgICAgICAgICAgICAgICAgICAgICAgICAgICAgICAgICAgICAgICAKICAgICAgICAgICAgICAgICAgICAgICAgICAgICAgICAgICAgICAgICAgICAgICAgICAgICAgICAgICAgICAgICAgICAgICAgICAgICAgICAgICAgICAgICAgICAgICAgICAgIAogICAgICAgICAgICAgICAgICAgICAgICAgICAgICAgICAgICAgICAgICAgICAgICAgICAgICAgICAgICAgICAgICAgICAgICAgICAgICAgICAgICAgICAgICAgICAgICAgICAgCiAgICAgICAgICAgICAgICAgICAgICAgICAgICAgICAgICAgICAgICAgICAgICAgICAgICAgICAgICAgICAgICAgICAgICAgICAgICAgICAgICAgICAgICAgICAgICAgICAgICAKICAgICAgICAgICAgICAgICAgICAgICAgICAgICAgICAgICAgICAgICAgICAgICAgICAgICAgICAgICAgICAgICAgICAgICAgICAgICAgICAgICAgICAgICAgICAgICAgICAgIAogICAgICAgICAgICAgICAgICAgICAgICAgICAgICAgICAgICAgICAgICAgICAgICAgICAgICAgICAgICAgICAgICAgICAgICAgICAgICAgICAgICAgICAgICAgICAgICAgICAgCiAgICAgICAgICAgICAgICAgICAgICAgICAgICAgICAgICAgICAgICAgICAgICAgICAgICAgICAgICAgICAgICAgICAgICAgICAgICAgICAgICAgICAgICAgICAgICAgICAgICAKICAgICAgICAgICAgICAgICAgICAgICAgICAgICAgICAgICAgICAgICAgICAgICAgICAgICAgICAgICAgICAgICAgICAgICAgICAgICAgICAgICAgICAgICAgICAgICAgICAgIAogICAgICAgICAgICAgICAgICAgICAgICAgICAgICAgICAgICAgICAgICAgICAgICAgICAgICAgICAgICAgICAgICAgICAgICAgICAgICAgICAgICAgICAgICAgICAgICAgICAgCiAgICAgICAgICAgICAgICAgICAgICAgICAgICAgICAgICAgICAgICAgICAgICAgICAgICAgICAgICAgICAgICAgICAgICAgICAgICAgICAgICAgICAgICAgICAgICAgICAgICAKICAgICAgICAgICAgICAgICAgICAgICAgICAgICAgICAgICAgICAgICAgICAgICAgICAgICAgICAgICAgICAgICAgICAgICAgICAgICAgICAgICAgICAgICAgICAgICAgICAgIAogICAgICAgICAgICAgICAgICAgICAgICAgICAgICAgICAgICAgICAgICAgICAgICAgICAgICAgICAgICAgICAgICAgICAgICAgICAgICAgICAgICAgICAgICAgICAgICAgICAgCiAgICAgICAgICAgICAgICAgICAgICAgICAgICAgICAgICAgICAgICAgICAgICAgICAgICAgICAgICAgICAgICAgICAgICAgICAgICAgICAgICAgICAgICAgICAgICAgICAgICAKICAgICAgICAgICAgICAgICAgICAgICAgICAgICAgICAgICAgICAgICAgICAgICAgICAgICAgICAgICAgICAgICAgICAgICAgICAgICAgICAgICAgICAgICAgICAgICAgICAgIAogICAgICAgICAgICAgICAgICAgICAgICAgICAgICAgICAgICAgICAgICAgICAgICAgICAgICAgICAgICAgICAgICAgICAgICAgICAgICAgICAgICAgICAgICAgICAgICAgICAgCiAgICAgICAgICAgICAgICAgICAgICAgICAgICAgICAgICAgICAgICAgICAgICAgICAgICAgICAgICAgICAgICAgICAgICAgICAgICAgICAgICAgICAgICAgICAgICAgICAgICAKICAgICAgICAgICAgICAgICAgICAgICAgICAgICAgICAgICAgICAgICAgICAgICAgICAgICAgICAgICAgICAgICAgICAgICAgICAgICAgICAgICAgICAgICAgICAgICAgICAgIAogICAgICAgICAgICAgICAgICAgICAgICAgICAgICAgICAgICAgICAgICAgICAgICAgICAgICAgICAgICAgICAgICAgICAgICAgICAgICAgICAgICAgICAgICAgICAgICAgICAgCiAgICAgICAgICAgICAgICAgICAgICAgICAgICAgICAgICAgICAgICAgICAgICAgICAgICAgICAgICAgICAgICAgICAgICAgICAgICAgICAgICAgICAgICAgICAgICAgICAgICAKICAgICAgICAgICAgICAgICAgICAgICAgICAgICAgICAgICAgICAgICAgICAgICAgICAgICAgICAgICAgICAgICAgICAgICAgICAgICAgICAgICAgICAgICAgICAgICAgICAgIAogICAgICAgICAgICAgICAgICAgICAgICAgICAgICAgICAgICAgICAgICAgICAgICAgICAgICAgICAgICAgICAgICAgICAgICAgICAgICAgICAgICAgICAgICAgICAgICAgICAgCiAgICAgICAgICAgICAgICAgICAgICAgICAgICAgICAgICAgICAgICAgICAgICAgICAgICAgICAgICAgICAgICAgICAgICAgICAgICAgICAgICAgICAgICAgICAgICAgICAgICAKICAgICAgICAgICAgICAgICAgICAgICAgICAgICAgICAgICAgICAgICAgICAgICAgICAgICAgICAgICAgICAgICAgICAgICAgICAgICAgICAgICAgICAgICAgICAgICAgICAgIAogICAgICAgICAgICAgICAgICAgICAgICAgICAgICAgICAgICAgICAgICAgICAgICAgICAgICAgICAgICAgICAgICAgICAgICAgICAgICAgICAgICAgICAgICAgICAgICAgICAgCiAgICAgICAgICAgICAgICAgICAgICAgICAgICAgICAgICAgICAgICAgICAgICAgICAgICAgICAgICAgICAgICAgICAgICAgICAgICAgICAgICAgICAgICAgICAgICAgICAgICAKICAgICAgICAgICAgICAgICAgICAgICAgICAgICAgICAgICAgICAgICAgICAgICAgICAgICAgICAgICAgICAgICAgICAgICAgICAgICAgICAgICAgICAgICAgICAgICAgICAgIAogICAgICAgICAgICAgICAgICAgICAgICAgICAgICAgICAgICAgICAgICAgICAgICAgICAgICAgICAgICAgICAgICAgICAgICAgICAgICAgICAgICAgICAgICAgICAgICAgICAgCiAgICAgICAgICAgICAgICAgICAgICAgICAgICAgICAgICAgICAgICAgICAgICAgICAgICAgICAgICAgICAgICAgICAgICAgICAgICAgICAgICAgICAgICAgICAgICAgICAgICAKICAgICAgICAgICAgICAgICAgICAgICAgICAgICAgICAgICAgICAgICAgICAgICAgICAgICAgICAgICAgICAgICAgICAgICAgICAgICAgICAgICAgICAgICAgICAgICAgICAgIAogICAgICAgICAgICAgICAgICAgICAgICAgICAgICAgICAgICAgICAgICAgICAgICAgICAgICAgICAgICAgICAgICAgICAgICAgICAgICAgICAgICAgICAgICAgICAgICAgICAgCiAgICAgICAgICAgICAgICAgICAgICAgICAgICAgICAgICAgICAgICAgICAgICAgICAgICAgICAgICAgICAgICAgICAgICAgICAgICAgICAgICAgICAgICAgICAgICAgICAgICAKICAgICAgICAgICAgICAgICAgICAgICAgICAgICAgICAgICAgICAgICAgICAgICAgICAgICAgICAgICAgICAgICAgICAgICAgICAgICAgICAgICAgICAgICAgICAgICAgICAgIAogICAgICAgICAgICAgICAgICAgICAgICAgICAgICAgICAgICAgICAgICAgICAgICAgICAgICAgICAgICAgICAgICAgICAgICAgICAgICAgICAgICAgICAgICAgICAgICAgICAgCiAgICAgICAgICAgICAgICAgICAgICAgICAgICAgICAgICAgICAgICAgICAgICAgICAgICAgICAgICAgICAgICAgICAgICAgICAgICAgICAgICAgICAgICAgICAgICAgICAgICAKICAgICAgICAgICAgICAgICAgICAgICAgICAgICAgICAgICAgICAgICAgICAgICAgICAgICAgICAgICAgICAgICAgICAgICAgICAgICAgICAgICAgICAgICAgICAgICAgICAgIAogICAgICAgICAgICAgICAgICAgICAgICAgICAgICAgICAgICAgICAgICAgICAgICAgICAgICAgICAgICAgICAgICAgICAgICAgICAgICAgICAgICAgICAgICAgICAgICAgICAgCiAgICAgICAgICAgICAgICAgICAgICAgICAgICAgICAgICAgICAgICAgICAgICAgICAgICAgICAgICAgICAgICAgICAgICAgICAgICAgICAgICAgICAgICAgICAgICAgICAgICAKICAgICAgICAgICAgICAgICAgICAgICAgICAgICAgICAgICAgICAgICAgICAgICAgICAgICAgICAgICAgICAgICAgICAgICAgICAgICAgICAgICAgICAgICAgICAgICAgICAgIAogICAgICAgICAgICAgICAgICAgICAgICAgICAgICAgICAgICAgICAgICAgICAgICAgICAgICAgICAgICAgICAgICAgICAgICAgICAgICAgICAgICAgICAgICAgICAgICAgICAgCiAgICAgICAgICAgICAgICAgICAgICAgICAgICAgICAgICAgICAgICAgICAgICAgICAgICAgICAgICAgICAgICAgICAgICAgICAgICAgICAgICAgICAgICAgICAgICAgICAgICAKICAgICAgICAgICAgICAgICAgICAgICAgICAgICAgICAgICAgICAgICAgICAgICAgICAgICAgICAgICAgICAgICAgICAgICAgICAgICAgICAgICAgICAgICAgICAgICAgICAgIAogICAgICAgICAgICAgICAgICAgICAgICAgICAgICAgICAgICAgICAgICAgICAgICAgICAgICAgICAgICAgICAgICAgICAgICAgICAgICAgICAgICAgICAgICAgICAgICAgICAgCiAgICAgICAgICAgICAgICAgICAgICAgICAgICAgICAgICAgICAgICAgICAgICAgICAgICAgICAgICAgICAgICAgICAgICAgICAgICAgICAgICAgICAgICAgICAgICAgICAgICAKICAgICAgICAgICAgICAgICAgICAgICAgICAgICAgICAgICAgICAgICAgICAgICAgICAgICAgICAgICAgICAgICAgICAgICAgICAgICAgICAgICAgICAgICAgICAgICAgICAgIAogICAgICAgICAgICAgICAgICAgICAgICAgICAgICAgICAgICAgICAgICAgICAgICAgICAgICAgICAgICAgICAgICAgICAgICAgICAgICAgICAgICAgICAgICAgICAgICAgICAgCiAgICAgICAgICAgICAgICAgICAgICAgICAgICAgICAgICAgICAgICAgICAgICAgICAgICAgICAgICAgICAgICAgICAgICAgICAgICAgICAgICAgICAgICAgICAgICAgICAgICAKICAgICAgICAgICAgICAgICAgICAgICAgICAgICAgICAgICAgICAgICAgICAgICAgICAgICAgICAgICAgICAgICAgICAgICAgICAgICAgICAgICAgICAgICAgICAgICAgICAgIAogICAgICAgICAgICAgICAgICAgICAgICAgICAgICAgICAgICAgICAgICAgICAgICAgICAgICAgICAgICAgICAgICAgICAgICAgICAgICAgICAgICAgICAgICAgICAgICAgICAgCiAgICAgICAgICAgICAgICAgICAgICAgICAgICAgICAgICAgICAgICAgICAgICAgICAgICAgICAgICAgICAgICAgICAgICAgICAgICAgICAgICAgICAgICAgICAgICAgICAgICAKICAgICAgICAgICAgICAgICAgICAgICAgICAgICAgICAgICAgICAgICAgICAgICAgICAgICAgICAgICAgICAgICAgICAgICAgICAgICAgICAgICAgICAgICAgICAgICAgICAgIAogICAgICAgICAgICAgICAgICAgICAgICAgICAgICAgICAgICAgICAgICAgICAgICAgICAgICAgICAgICAgICAgICAgICAgICAgICAgICAgICAgICAgICAgICAgICAgICAgICAgCiAgICAgICAgICAgICAgICAgICAgICAgICAgICAgICAgICAgICAgICAgICAgICAgICAgICAgICAgICAgICAgICAgICAgICAgICAgICAgICAgICAgICAgICAgICAgICAgICAgICAKICAgICAgICAgICAgICAgICAgICAgICAgICAgICAgICAgICAgICAgICAgICAgICAgICAgICAgICAgICAgICAgICAgICAgICAgICAgICAgICAgICAgICAgICAgICAgICAgICAgIAogICAgICAgICAgICAgICAgICAgICAgICAgICAgICAgICAgICAgICAgICAgICAgICAgICAgICAgICAgICAgICAgICAgICAgICAgICAgICAgICAgICAgICAgICAgICAgICAgICAgCiAgICAgICAgICAgICAgICAgICAgICAgICAgICAgICAgICAgICAgICAgICAgICAgICAgICAgICAgICAgICAgICAgICAgICAgICAgICAgICAgICAgICAgICAgICAgICAgICAgICAKICAgICAgICAgICAgICAgICAgICAgICAgICAgICAgICAgICAgICAgICAgICAgICAgICAgICAgICAgICAgICAgICAgICAgICAgICAgICAgICAgICAgICAgICAgICAgICAgICAgIAogICAgICAgICAgICAgICAgICAgICAgICAgICAgICAgICAgICAgICAgICAgICAgICAgICAgICAgICAgICAgICAgICAgICAgICAgICAgICAgICAgICAgICAgICAgICAgICAgICAgCiAgICAgICAgICAgICAgICAgICAgICAgICAgICAgICAgICAgICAgICAgICAgICAgICAgICAgICAgICAgICAgICAgICAgICAgICAgICAgICAgICAgICAgICAgICAgICAgICAgICAKICAgICAgICAgICAgICAgICAgICAgICAgICAgICAgICAgICAgICAgICAgICAgICAgICAgICAgICAgICAgICAgICAgICAgICAgICAgICAgICAgICAgICAgICAgICAgICAgICAgIAogICAgICAgICAgICAgICAgICAgICAgICAgICAgICAgICAgICAgICAgICAgICAgICAgICAgICAgICAgICAgICAgICAgPD94cGFja2V0IGVuZD0ndyc/Pv/bAEMAAwICAwICAwMDAwQDAwQFCAUFBAQFCgcHBggMCgwMCwoLCw0OEhANDhEOCwsQFhARExQVFRUMDxcYFhQYEhQVFP/bAEMBAwQEBQQFCQUFCRQNCw0UFBQUFBQUFBQUFBQUFBQUFBQUFBQUFBQUFBQUFBQUFBQUFBQUFBQUFBQUFBQUFBQUFP/AABEIAdUDrAMBIgACEQEDEQH/xAAfAAABBQEBAQEBAQAAAAAAAAAAAQIDBAUGBwgJCgv/xAC1EAACAQMDAgQDBQUEBAAAAX0BAgMABBEFEiExQQYTUWEHInEUMoGRoQgjQrHBFVLR8CQzYnKCCQoWFxgZGiUmJygpKjQ1Njc4OTpDREVGR0hJSlNUVVZXWFlaY2RlZmdoaWpzdHV2d3h5eoOEhYaHiImKkpOUlZaXmJmaoqOkpaanqKmqsrO0tba3uLm6wsPExcbHyMnK0tPU1dbX2Nna4eLj5OXm5+jp6vHy8/T19vf4+fr/xAAfAQADAQEBAQEBAQEBAAAAAAAAAQIDBAUGBwgJCgv/xAC1EQACAQIEBAMEBwUEBAABAncAAQIDEQQFITEGEkFRB2FxEyIygQgUQpGhscEJIzNS8BVictEKFiQ04SXxFxgZGiYnKCkqNTY3ODk6Q0RFRkdISUpTVFVWV1hZWmNkZWZnaGlqc3R1dnd4eXqCg4SFhoeIiYqSk5SVlpeYmZqio6Slpqeoqaqys7S1tre4ubrCw8TFxsfIycrS09TV1tfY2dri4+Tl5ufo6ery8/T19vf4+fr/2gAMAwEAAhEDEQA/AP1RJzQvWkpV60AOooooAKKKKACiiigAooooAKKKKACiiigAooooAKKKKACiiigAooooAKKKKACiiigAooooAKSlprUALupN1NakzQA880bTSL2p9ACAUUtFADWpKVqSgAooooAVadTVp1ABRRRQAUUUUAFFFFABRRRQAUUUUAFFFFABRRRQAUUUUAFFFFABRRRQAUUUUAFFFFABRRRQAUUUUAFFFFABRRRQAUUlGRQAUZFc946+IXhj4Z6DJrfizX9O8OaTGQrXmp3KQR7j0UFiMsewHJr4++Jn/BUXw3BpuuyfCTwXrnxPTR4XmvddjtpbXSLJUBLvLMyFyFUFsBRu7HnNAH3FkV4x8aP2x/g98ARLF4w8bafbami7v7Js2N1enJIH7mPLLkg8tgcda+Stb+Kv7Uv7UXwV1rxhpcHh/wCD3wzk0e4vVu7e4e61TUoEjYv5LjBiVwCoYrG69QTwa9P/AOCeP7NHwy0P9n3wD47t/B2mz+MNW05L261m8i+0XHmNlT5bPnyxhRwmBnJ6k0AZkP7U/wC0J+0PGsXwX+EEng3RZUyvir4huYVPPOyBc54Iww3jg8Vz/wCwv+0v42uv2iPiL8Hvid4rm8WaxbzzHTtSmWONGntjsuY41ULtRlZHVccbJPWvv9V4Ffjx4k8Lal4Y8U/Gr45eFbZ5fE3w4+KIvbkR53T6YwZZ4j6D5+TjhWf2oA/YdadWJ4J8Wad498I6N4k0edbrStWs4r21mU5DxyIGU/kRW3QAUUUUAFFFFABRRRQAUUUUAFFFFABRRRQAUUUUAFFFFABRRRQAUUUUAFFFFABRRRQAUUUUAFFFFABRRRQAUUUUAFFFFADFBpQKVaWgAooooAKKKKACiiigAooooAKKKKACiiigAooooAKKKKACiiigAooooAKKKKACiiigAooooASkahqSgBGFJtNOooAVadTVp1ABRRRQAjUm006igBu00bTTqKAEWloooAKKKKACiiigAooooAKKKKACiiigAooooAKKKKACiiigAooooAKKKKACiiigAooooAKKKKACiikzQAtFJuFYninxz4d8D6Tdap4h1zT9E061GZ7rULlIY4hjPzMxAFAG5SMwXrXxLqn7dnjv4z69q3h39nD4aN40WwuPsk/jHWrlbfSoGP3ZFTcGkQjLDLKxUAhSGFeHf2d+0T8T/wBrKb4IfED43X2hjUNCXW9R/wCEPiWGGGIc/ZoDtVlOcZkzyMghqAPsv48ftwfDL4B6+nhnUrnUvEXjOVFaHw14csXvLx2b7inGEVmwSFZgSATg18r/ABY/bo/aV0/VfBhsvhhpXwy03xdqo0jQ4fFSPc3d1LIyLG0yB0aADzEJBQkHPXGDofsw/Anw58Af+Cj3ifwp4fkvr21tvAS3b3mqz/aLme5luLfzZnbAG58c7QB7V1P/AAUqXb8Sv2Wv+x+t/wD0dbUAeI/tPfAT4j6N8QPgRqXxl+JbfEm68SeOLHTbjQIrRYdItbd5YzJHHHwGyCyFtqkocHPNfb/7XXh3SvCv7GfxV03RdNtNJ06DwzeJFa2UKxRIBEcAKoAFeTf8FEF2+P8A9l//ALKPY/8AoyOvav22R/xiP8XP+xbvP/RZoA8w+B//ACjH0n/sQ7r/ANES13v7Av8AyZ38KP8AsCRf+hNXBfA3/lGNpP8A2Id3/wCiZa739gX/AJM7+FH/AGBIv/QmoA+gK+Iv2N/C+n+NvE/7WPh/VrVL3S9U8aXVndW8gBSSKSFlZSPoTX27Xxz+wT/yU79pz/sfZf8A0A0AV/8AgnN4jvfBNr8QvgB4gumm1z4b6vJFZNMSXn0ydjJBJ+vTsroMCvs6vhz9rzd+zf8AtSfCz9oG2UQeH9Qf/hD/ABdIo4W2l5gmfsFUgksT/wAskHevuFJFkjV1YMrDIYHII9aAHUUlLQAUUUUAFFFFABRRRQAUUlGaAFoopKAFopKWgAooooAKKKKACiiigAooooAKKKKACiiigAooooAKKKKACiiigAooooAKKKKACiiigAooooAKKKKACiiigAooooAKKKKACiiigAooooAKKKKACiiigAooooAKKKKACiiigAooooAKKKKACiiigAooooAKKKKACiiigAooooAKKKKACiiigAooooAKKKKACiiigAooooAKKKKACiiigAooooAKKKKACiiigAooooAKK8L+Nn7bHwe+Acxs/E3i62m1rdsXRdJBvL0tzgGOPOzOCMuVGeK+e7L/AIKPeOvjhDqWlfA34Jatq2t2pkjur/xFdwwWmm9QjzBX+8MEmIup4IBNAH3Rr3iDS/C+lz6lrOo2ulafApaW6vZlhiQDuWYgCvm/4g/8FIPgN4J00yWPjGPxjqkjmG20jwzC13cXMvZFwAg3HABLAHPGa+dP2O/2adM/bW+H9p8W/jd4t8TfEW6m1K4jttDv79odNhEL7FdYYtuCQOQu1Tk5Bya3f+CY3grQNN+If7RQt9Is0bRvF82naa5hDPaWySThYo2OSqgKOAewoAPhr4g/aQ/b48P3mu2XjfTPgv8ADaS+nsPs2gQPNrLiM7ZEaUkbD1+dGXk/dIFeTfsl/se+AfHn7XHxs8LePF1Lx5ZeB7yD7BJrV67NcSO7h5LgKQJCRGgweCAAQa+sP+CY/P7O2qHP/M2ax/6UGuB/YvH/ABnl+1j/ANf9r/6MmoA3f+Ccek2Wg+Iv2itL0yzhsNOsfHtxbW1rboEjhiRNqIqjgKFAAA6AViQg/wDD4Kf/ALEP/Cum/wCCe/8AyPH7TH/ZRLv+Rrm4v+UwU/8A2If+FAG94R/5Su+Nf+ydwf8ApRBWL/wUu/5KV+yz/wBj9b/+jratvwn/AMpXfGv/AGTuD/0ogrE/4KXf8lK/ZZ/7H63/APR1tQBsf8FFP+R//Ze/7KPY/wDoyOvaP22v+TRvi7/2Ld5/6LNeL/8ABRT/AJH/APZe/wCyj2P/AKMjr2j9tr/k0b4u/wDYt3n/AKLNAHl/wN/5Ri6T/wBiHd/+iZa739gX/kzv4Uf9gSL/ANCauC+Bv/KMXSf+xDu//RMtd7+wL/yZ38KP+wJF/wChNQB9AV8c/sE/8lO/ac/7H2X/ANANfY1fHP7BP/JTv2nP+x9l/wDQDQB75+0d8HbL4+fBPxd4FvQi/wBrWTJbTOobybhcPDJ/wGRVP4V5d/wT4+MV98U/2e7DTNf82Pxj4NuJPDOuQTkmRZ7f5VZifvFk2ZIyNwb0r6Zavh26Zv2W/wDgolFP5fkeB/jVaCJ36RwazB0z0A3hh6lmn9BQB9xLTqatOoAKKKKACiiigApGNLTCaAEY0BqTrSgUALT6aop1ABRRRQAUUUUAFFFFABRRRQAUUUUAFFFFABRRRQAUUUUAFFFFABRRRQAUUUUAFFFFABRRRQAUUUUAFFFFABRRRQAUUUUAFFFFABRRRQAUUUUAFFFFABRRRQAUUUUAFFFFABRRRQAUUUUAFFFFABRRRQAUUUUAFFFFABRRRQAUUUUAFFFFABRRRQAUUUUAFFFFABRRRQAUUUUAFFFFABRRRQAUUlFABRkVFd3UNnA01xKkEKDLSSMFVR6knpXzh8Qv+CiXwD+G+o3Nhe+OodVu7dWMqaFbS6gqMv8AA0kSsit16sOh5GDQB9KbhxVPVNa0/Q7Ka81G+t9PtIV3S3F1KsUaD1ZmIA6d6/PbTf2nPjl+2j8V9b8EfCma3+DHhjTrC3vp9S8Raaz600UjYDrEcxgMeAox8vzb8kAeT+Ev2VdJ8S/8FBtb+EnxG8VeJPiRo1loCa3c3Gq6lKj3l0FhYbwrcIvnPhQeAcZoA+ovFH/BQ6fxl4k1Lwx8Avhnrnxf1WykMEusQ4tdHjcZ/wCXhuGHQgnarA5ViOa8V+G/xM/ah/ay+Inj34cXvxD0P4ZHwhMF12bw/pe+f5y6eRA7OxKgo/zblI45bOK9d/4Jn6VZeH7j9oPSNNtUstO034iX1ja20X3IoYgI40X2CqB+Fcj+w7/yel+1x/1/w/8Ao64oA0P+CWXwg8Hj4Sap4wuPD2nX/i5fEWoWR166tlluzHG6hQJGyV6ZODyeTk81U/4Jt5/4Sr9qznj/AITC4/8AQ7qu+/4Ja/8AJt+r/wDY26r/AOjVrgv+Cbn/ACNH7Vn/AGONx/6HdUAdt/wSS/5Mu0D/ALCmof8Ao81yv/BNL/kov7UX/Y93P/o25rqf+CSf/Jl3h/8A7Cmof+jzXLf8E0f+Si/tRf8AY93P/o25oA7/AP4Jj/8AJuuqf9jZrH/pQa4D9jH/AJPy/aw/6/7X/wBGTV6B/wAEyf8Ak3XVP+xs1j/0oNef/sY/8n5ftYf9f9r/AOjJqAOo/wCCe/8AyPH7TH/ZRLv+Rrm4v+UwU/8A2If+FdJ/wT3/AOR4/aY/7KJd/wAjXNxf8pgp/wDsQ/8ACgDf8J/8pXfGv/ZO4P8A0ogrE/4KXf8AJSv2Wf8Asfrf/wBHW1bfhP8A5Su+Nf8AsncH/pRBWJ/wUu/5KV+yz/2P1v8A+jragDY/4KKf8j/+y9/2Uex/9GR17R+21/yaN8Xf+xbvP/RZrxf/AIKKf8j/APsvf9lHsf8A0ZHXtH7bX/Jo3xd/7Fu8/wDRZoA8v+Bv/KMXSf8AsQ7v/wBEy13v7Av/ACZ38KP+wJF/6E1cF8Df+UYuk/8AYh3f/omWu9/YF/5M7+FH/YEi/wDQmoA+gK+Of2Cf+SnftOf9j7L/AOgGvsavjn9gn/kp37Tn/Y+y/wDoBoA+xa+bP+CgHwVvPjB+zzqdxoQkTxj4UmTxHoU8IzKtxb/MyrzyWj3gA8btp7V9KU1lDqVIBBGCD0NAHl/7MfxmtP2gPgX4R8c2uxZdSsl+2Qo24Q3SfJPHkgdJFbtyMHvXqVfDv7KBb9mr9rL4ofAW5PkeGtcb/hMPCKsMKsUhIuIFxwApGFUDpCx719xUAFFFFABRSUhagBSaY1LRQAKtOxQtLQAUUUUAFFFFABRRRQAUUUUAFFFFABRRRQAUUUUAFFFRzTx20bSTSLFGvV3YAD8TQBJRXhHxP/bk+Bvwj+0R698RtHe+gO17DTJDfXCnAODHCGI6jrj1ryCT/goL4v8AiWTD8FfgH4w8aKwDR6trSrpVg6noySPkN24LKaAPtXPas7W/Eel+G7VrvVtRtNMtFGWuLydIkH4sQK+Orf4fftmfGHafE/xC8K/B/SpDuNr4Ysftt6FP8DPISAQO6vWhon/BMH4b32pQ6r8R/EXi34tatG/mCbxLq0hjUkgkKiEEKSB8pY0AdN4+/wCCk3wH8E3KWNp4sbxnq0uRBp/hS2fUHmbsquo8vJ/3qyPgx+3hqfxe+Peh+Abj4S+IvBOl6xpl1qFnqPiU/ZrmZYcfMsGzlCdy5DHnHvX0B8Pfgt4D+EtqYPBvg7RfDKNyzabZRwu5wBlmA3McAck9q8A+IX/KSz4Sf9iVqn/oxqAPreiiigAooooAKKKKACiiigAooooAKKKKACiiigAooooAKKKKACiiigAooooAKKKKACiiigAooooAKKKKACiiigAooooAKKKKACiiigAooooAKKKKACiiigAooooAKKKKACiiigAooooAKKKKACiiigAoorH8R+MND8H6Rcarr+r2OiaZbqXmvNRuFt4Y1HJLO5AA+tAGvmjcK+RvF/8AwVA+CejX11pnh671rx7rMbiC3svDWly3AvJiR+7ikICMcHOQcYHGTxXivwz8ZfH39v7T/F2rRfEGP4O/D/R9QuNLm0jQbJhq0jrGsnlyTOdyMqugLKy/MXGzgGgD7y+Knxd8I/BfwldeJPGOtQaNpVvjLyZaSRiQoSONQWkYkjCqCa+HPi5/wVI8WWvg298W/Db4O6vL4JsZokl8W+LIntrSZZJNsfkRrzIHxwQ2V3LuUZr478H/AAp0X4ifsJ/FL4t+JJ9U1nxp4e1GDS9KuLzU55YrWCRLRpAqM5BLfaZBzkdMAEZr7y/4KQf8o7JP+uei/wDoyGgDwr4laH8W/wBoD45/Abw98fNVso/Bfj+S6ubXwl4VupYIIreKBZ83DA/vJGLQ4JLbQjbSpY11v7QXwP8AAfwV/bK/ZQ8P+C/C+naDpcuoTmeO3hBa5ZXhAaZzlpGA7sSea7X4nf8AJzH7DH/YM1D/ANN9vUn7an/J+H7Jv/YQuf8A0ZDQB3fwrI/4eR/HDHT/AIRbRv0C1554TXd/wWK8af8AYlL/AOgWtehfCn/lJD8cP+xW0j+lcB4R/wCUxPjP/sSU/wDQLWgDrP8AgnMc+JP2l/8Asp+qf+hmuH/Yd/5PS/a4/wCv+H/0dcV23/BOP/kYv2lv+ynap/6Ga4n9h3/k9L9rj/r/AIf/AEdcUAeh/wDBLX/k2/V/+xt1X/0atcD/AME3CP8AhKP2rP8Ascbj/wBDuq77/glr/wAm36v/ANjbqv8A6NWvP/8Agm5/yNH7Vn/Y43H/AKHdUAdx/wAEk/8Aky7w/wD9hTUP/R5rlv8Agmj/AMlF/ai/7Hu5/wDRtzXU/wDBJP8A5Mu8P/8AYU1D/wBHmuW/4Jo/8lF/ai/7Hu5/9G3NAHoH/BMn/k3XVP8AsbNY/wDSg15/+xj/AMn5ftYf9f8Aa/8AoyavQP8AgmT/AMm66p/2Nmsf+lBrz/8AYx/5Py/aw/6/7X/0ZNQB1H/BPf8A5Hj9pj/sol3/ACNc3F/ymCn/AOxD/wAK6T/gnv8A8jx+0x/2US7/AJGubi/5TBT/APYh/wCFAG/4T/5Su+Nf+ydwf+lEFYn/AAUu/wCSlfss/wDY/W//AKOtq2/Cf/KV3xr/ANk7g/8ASiCsT/gpd/yUr9ln/sfrf/0dbUAbH/BRT/kf/wBl7/so9j/6Mjr2j9tr/k0b4u/9i3ef+izXi/8AwUU/5H/9l7/so9j/AOjI69o/ba/5NG+Lv/Yt3n/os0AeX/A3/lGLpP8A2Id3/wCiZa739gX/AJM7+FH/AGBIv/Qmrgvgb/yjF0n/ALEO7/8ARMtd7+wL/wAmd/Cj/sCRf+hNQB9AV8c/sE/8lO/ac/7H2X/0A19jV8c/sE/8lO/ac/7H2X/0A0AfY1FFFAHxl/wUc8H6j4X0nwN8e/DMMkniP4Z6rHdXCQrlp9NlcJcRn2wRkn7qs54619a+DfFWneOvCejeItJuFutL1W0ivbWZCCHjkQMp/Iil8YeF9P8AHHhTWPD2rQJdaXqtpLZXUMihleORCjAg8dCa+SP+CcfijUPB+n/ED4BeJLiSTX/hrq8kFm0zEvcaZMzPbyA88c8AfdV4xgdKAPs2jIpGpKABjTaVqAtAAKcBS7aWgAooooAKKKKACiiigAooooAKKKQsBgd6AFormvGnxM8JfDnTnv8AxT4l0rw9ZoMtNqV5HAv/AI8RXzX4w/4KefB7S9Rk0nwcuv8AxR1xW2rY+E9Lln3e4dgqsPdd1AH1zTSwU4J5618Wt8bv2uPjFG48CfBzRfhjpzOTFqnjrUDLM8RztPkIA0b/AHSQVYDpz1prfsRfGD4qsX+MP7RfiC8s2bf/AGP4NhXTIFyTlC4Hzr0HKZ46nrQB9GfEj9pP4W/CJT/wl/j3QtDmwWFtcXqGdsddsSkuTyOg7189X/8AwU28M+LLhrL4QfDrxt8Wr4kxpNpelvb2SyYBCySuNydQclOBXofw2/4J7/AX4Ysk9n4Bsta1BZBKb/xAzahMZAc7/wB6SqnPPygc819A2GlWel26W9law2lugwsMEYRFHoFHAoA+Mo9c/bW+MzK1npPg34H6LMCrNqEn9p6nEOfnVQGjJ6YVlXvn0qeH/gnPL8QJVuvjP8YvG3xLkdcTabHdf2fpz9CP3KE46diK+0OnSloA8c+F/wCyL8Hfg75LeFfh5oun3cSeWt9Nbi4uscdZpNznoO/avYEjWNQqgKoGAoGAKfRQAmBS1V1LVbLR7Vrm/vLext1GWmuZVjQAepJAr58+I/8AwUM/Z/8Ahjvj1H4iafqd2shiNroYa/kDDqCYgyr/AMCIoA+inr5L+IX/ACks+En/AGJWqf8Aoxq7D9mv9tDw3+034u8UaDovhvxB4fn0OCC5b+3oI4WmilZ1VgiuzL90HDYyGBrj/iF/ykt+Ev8A2Jeqf+jGoA+t6KKKACiiigAooooAKKKKACiiigAooooAKKKKACiiigAooooAKKKKACiiigAooooAKKKKACiiigAooooAKKKKACiiigAooooAKKKKACiiigAooooAKKKKACiiigAooooAKKKKACiiigAooooARmC9TivC/i1+2l8JfhH9qttQ8VQ6vrVufLOi6Fi8uzJjIQqhwhP+0R1FSftv3Etn+yT8V5oJpIJV8P3WJInKsPlweR7Vxn7CvwB+Hng34BfDzxVpHhHTLXxLrWgWd/f6sYQ9xLNLEsjne2Sq7mOFXCjgAACgDxv44ftqfH1vhXefEDwT8NF8B+DbOSLdf+Lot+oXCyOI12WpKbfmIyTuG3kGvLvEPwv8U/Gb9qj9nGP4165b+PNC8Y6deap/YkFs1raaeiWrzpENjDO5xFuOMkJtJYE5+sP+ClDTWv7IviuS3j82RbrTyV9QLyLP6Zryhbx2/aU/Yr2zKkc3ha8DREHLY01z+GMUAYUfgvQvAf8AwVu8G6N4b0ax0HSbfwcRFZadbpBEv7qcZCqAM4A5613H/BNj/kQfj9/2UTWP/RUVYPib/lMZ4W/7E4/+i563f+Ca/wDyT/4//wDZQ9Y/9ExUAfH/AMGx/wAaoPjp/wBjFZ/+itNr6/8A+CkP/KOx/wDc0X/0ZFXyD8G/+UT/AMc/+xjtP/ROm19e/wDBSL/lHa3+5ov/AKHFQBm/E3n9pj9hj/sGah/6b7epP21P+T8P2Tf+whc/+jIaj+JX/JzP7C//AGC9R/8ASC3qX9tT/k/H9kz/ALCFz/6MhoA7n4U/8pIvjh/2K2kf0rgPCP8AymK8Z/8AYkp/6Ba16B8Kf+UkXxw/7FbSP6VwHhH/AJTF+M/+xJT/ANAtKAOp/wCCcf8AyMX7S3/ZTtU/9DNcT+w7/wAnpftcf9f8P/o64rtv+Ccf/Iw/tLf9lO1T/wBDNcT+w7/yel+1x/1/w/8Ao64oA9D/AOCWv/Jt+r/9jbqv/o1a8/8A+Cbn/I0ftWf9jjcf+h3Vegf8Etf+Tb9X/wCxt1X/ANGrXn//AATc/wCRo/as/wCxxuP/AEO6oA7j/gkn/wAmXeH/APsKah/6PNct/wAE0f8Akov7UX/Y93P/AKNua6n/AIJJ/wDJl3h//sKah/6PNct/wTR/5KL+1F/2Pdz/AOjbmgD0H/gmSMfs66n/ANjZrH/pQa8+/Yx/5Py/aw/6/wC1/wDRk1ehf8EzP+TddS/7GvV//Sg157+xj/yfl+1h/wBf9r/6MmoA6j/gnv8A8jx+0x/2US7/AJGubi/5TBT/APYh/wCFdJ/wT3/5Hj9pj/sol3/I1zcX/KYKf/sQ/wDCgDf8J/8AKV3xr/2TuD/0ogrE/wCCl3/JSv2Wf+x+t/8A0dbVt+E/+UrvjX/sncH/AKUQVif8FLv+Slfss/8AY/W//o62oA2P+Cin/I//ALL3/ZR7H/0ZHXtH7bX/ACaN8Xf+xbvP/RZrxf8A4KKf8j/+y9/2Uex/9GR17R+21/yaN8Xf+xbvP/RZoA8v+Bv/ACjF0n/sQ7v/ANEy13v7Av8AyZ38KP8AsCRf+hNXBfA3/lGLpP8A2Id3/wCiZa739gX/AJM7+FH/AGBIv/QmoA+gK+Of2Cf+SnftOf8AY+y/+gGvsavjn9gn/kp37Tn/AGPsv/oBoA+xqKKKAE3CviX9qqzb9n39q/4X/Hy022+gaireEvFjgcCGQgwStxgBSCWYkf6pB3r7WNeeftAfCuL41fBvxX4Ndo47jU7J1tJ5k3rDcqN0MhGRkLIFOMjjNAHoUU6zRq6nKsMgin186fsI/FjVPih8AdMtvEsb2/jLwxK+ga1bynLrPBhQzHuWTYT1+bdycV9FLQAtOApFp1ABRRRQAUUUUAFFMkmjhjaSR1SNRksxwAPWvFPin+2p8FPg4tyniT4h6PHe2+A+n2E3226BJwAYoQzA/XGO9AHt1JkV8Wzf8FCtd+JEklv8Fvgb408eg48nVdRiXTNOkBH3llbOR7HaeO3WopPBf7aPxk3nVfGXhH4KaVIdy2+hWh1G+VSCCjs5K5Gc5Vx07UAfZeqa1p+h2b3epX1vp9qgJee6lWNFA6ksxAFfOnxE/wCCjHwF+H9wtkPG0fiXVHYolj4ZgfUJGYHG0Mg8sHPGC1cdpf8AwTF8D67ff2j8U/GfjP4t6gXEpXXtXkS2R8kkpHGQyg56biOOMc19F/Dv4B/Dn4SwmPwd4J0Pw8Ty0tjYxpKxxjLPjcfxNAHzQv7Y3x0+Ln7r4Rfs76vaWkyMseueP510+GNucOYQQXXp918np701v2c/2p/jEySfEX462fgTTJUMc+i/D+yKNt+b7ty211bkc5bpj3r7WwKWgD5O8D/8Ey/gt4dvo9U8S2WrfErXVzv1LxhqMl2z5JPMY2xnr3U/nk19KeEvAfhvwDpsen+GtA03QLGNQiW+m2kcCADoMIBW7RQAUVXvtQtdLt2uLy5htIF+9LPIEUfUnivn/wCJH/BQT4A/C4OuqfEbTNQulcxm10QtqEoYdQRCGC/ViBQB9EUV8UP+374++JG+P4Pfs6+MvFC5+XUvEO3SrN0IOHRmyHBI6blODzg8V0n7KX7QHxb8ffHb4lfD/wCKumeHtKvvDthZXsdpoSOwgM5dgjStIwk/dmPJAHOce4B9WX19b6bay3N3PHbW0S7pJpmCog9STwBXz78Sv+Cg3wB+FoZNT+I2m6jdq5T7Joe7UJNw6g+SGVf+BEVnf8FJgD+xb8SMjP8Ao0H/AKUR12H7Pn7PPwy+H3gXw3qXh3wHoGl6ldaXayz30NhGbiRjErEmQgseST170AeKf8N8fEP4kwsPg/8As5eMfEi7sLqXiNk0q0KkHDKzZDgnH8S8enSiXwB+2p8XPNGufEHwb8HdNd9yW/huxOoXYU7vkZpMjgEcrIMn0r7UVQvA6UtAHxrY/wDBMPwR4ju3vfin458cfFq8Z/M267rEsdujZJYokZDKDnpv4xxivfvh3+zX8K/hKQ/hHwBoGiXG0Kbq3sIzOwHTMpBc/ia9MprUAfEv7OH/ACkf/ai/69NG/wDSeKul+IX/ACks+Ev/AGJeqf8Aoxq5v9m//lJB+1D/ANemjf8ApPFXSfEL/lJZ8JP+xK1T/wBGNQB9b0UUUAFFFFABRRRQAUUUUAFFFFABRRRQAUUUUAFFFFABRRRQAUUUUAFFFFABRRRQAUUUUAFFFFABRRRQAUUUUAFFFFABRRRQAUUUUAFFFFABRRRQAUUUUAFFFFABRRRQAUUUUAFFFFABSbqRqSgDxT9taGO6/ZR+KUUrbI30O4Vm9sCtT9lOEW/7M3wsiX7qeGtPUfQW6VmftpSxQ/spfFN5ozLEug3BZF6n5elX/wBkpWH7L/wpDDDDwxp4IznH+jpQB5Z/wU81KTSP2OfFl1GNzR3mnfKe+b2EY/WvGo5zc/tTfsNTFdpk8IXzFfrpjV61/wAFUh/xhT4x/wCvzTf/AEthryCz/wCTnv2Ff+xNvf8A02NQBr+Jv+Uxnhb/ALE4/wDou4re/wCCa/8AyT/4/wD/AGUPWP8A0TFWF4m/5TGeF/8AsTj/AOi7it3/AIJr/wDJP/j/AP8AZQ9Y/wDRMVAHyB8G/wDlE/8AHP8A7GO0/wDROm19e/8ABSL/AJR2t/uaL/6HFXyF8G/+UT/xz/7GO0/9E6bX17/wUi/5R2t/uaL/AOhxUAZvxK/5OZ/YX/7Beo/+kFvUv7an/J+P7Jn/AGELn/0ZDUXxK/5OZ/YX/wCwXqP/AKQW9S/tqf8AJ+P7Jn/YQuf/AEZDQB3Xwp/5SRfHD/sVtI/pXAeEf+UxfjP/ALElP/QLSu/+FP8Ayki+OH/YraR/SuA8I/8AKYvxn/2JKf8AoFpQB1P/AATj/wCRh/aW/wCynap/6Ga4n9h3/k9L9rj/AK/4f/R1xXbf8E4/+Rh/aW/7Kdqn/oZrif2Hf+T0v2uP+v8Ah/8AR1xQB6H/AMEtf+Tb9X/7G3Vf/Rq15/8A8E3P+Ro/as/7HG4/9Duq9A/4Ja/8m36v/wBjbqv/AKNWvP8A/gm5/wAjR+1Z/wBjjcf+h3VAHcf8Ek/+TLvD/wD2FNQ/9HmuX/4Jo/8AJRP2ov8Asern/wBG3FdR/wAEk/8Aky7w/wD9hTUP/R5rl/8Agmh/yUT9qP8A7Hq4/wDR1xQB6B/wTLbd+zrqX/Y16v8A+lBrz79jH/k/L9rD/r/tf/Rk1d//AMExv+Tc9T/7GzWP/Sg1wH7GP/J+X7WH/X/a/wDoyagDqP8Agnv/AMjx+0x/2US7/ka5uL/lMFP/ANiH/hXSf8E9/wDkeP2mP+yiXf8AI1zcX/KYKf8A7EP/AAoA3/Cf/KV3xr/2TuD/ANKIKxP+Cl3/ACUr9ln/ALH63/8AR1tW34T/AOUrvjX/ALJ3B/6UQVif8FLv+Slfss/9j9b/APo62oA2P+Cin/I//svf9lHsf/Rkde0fttf8mjfF3/sW7z/0Wa8X/wCCin/I/wD7L3/ZR7H/ANGR17R+21/yaN8Xf+xbvP8A0WaAPL/gb/yjF0n/ALEO7/8ARMtd7+wL/wAmd/Cj/sCRf+hNXBfA3/lGLpP/AGId3/6Jlrvf2Bf+TO/hR/2BIv8A0JqAPoCvjn9gn/kp37Tn/Y+y/wDoBr7Gr45/YJ/5Kd+05/2Psv8A6AaAPsaiiigCMrSU9qa1AHx08f8Awzh+3a1zJIYPB3xdthGoOFit9VgHQdAN+7Pcs03oK+xFr5D/AOCl+nwS/CPwLqHlj7fY+OdIe1nUkPEzSMCVI9f8K+nvF3j/AMMfD3S5dR8T+IdM8PWMa7nuNUvI7dAPq5FAHQrS18leMv8Agpt8GNF1CXSfCtxrXxM15cbNO8IaZJdGTJA+WRgqMBkcqT+eBXPt+0L+1T8Ycp8OfgbZ+ANMmQSQa38QL7a5U7etsu11bk9mGBz6UAfa1ef/ABE/aA+G3wlhD+MPHOg+H2OQsN7fRrK+BnCx53H8BXzPJ+xl8bvi5+9+Lv7RWtQ2kgDNongSFdOhjbGCvm4G9f8AeT3r0D4cf8E6fgH8N7gXcPgeDxDqW4O994jle/dnBzv2yEoDnnIUUAcbqX/BTrwT4iuBY/CnwR41+LV+7+UraJo8sVsj8ACSSQBlBz12YABziqa+LP20/jIqDS/CfhD4KaVN8rT6zcnUb9VP8aKmVz7Mq/hX2RpekWOh2cdpptlb6faRjCQWsSxoo9AqgAVboA+LF/4J16v8RWS4+NPxv8Z/EBnJ+0aVYzDTdOlX+6Ylzx7rt/pXtPwv/Yz+C3wdNu/hj4d6Lb3kGQmoXkP2u6GTk/vpdz/r7V7VRQAkMaQxqiKqIowqqMAD0FPzVa8vrbTbZ7i7uIrW3QZaWZwiKPcngV4F8SP2/vgH8LVlTVfiRpV7dxyGFrPRS2oTK4zlWEIbYQQQdxGDwcUAfQ9FfFkn/BQLxl8RGlg+Dv7PnjTxdz+61LXEXSrKReRvV3yCOBwSp+lI3hH9tP4uOTqnjHwZ8G9Lk+ZYtEtW1G+QH+Ft/wApI9QwoA+zL7ULXTbdri8uYbSBfvSzuEUfUnipYZo7iGOWJ1likUMkiEFWUjIII6ivzm/aN/YFsPDfwF+IXjnxv8TfGvxK8S6PolxfWo1rUMWUVyibldYBnjI+6WI9q+vP2O/+TUPg9/2KWl/+ksdAHlHxS/bW8Y2nxa8VfDT4T/BzVfiJ4m8NPAmo3Mt/DaWcPnQiVG3Ek4IbA3bMlWweKwpfBP7afxc3/wBr+N/Bvwc01zvSHQLM6heBTn5WMmVyARyrjJ9Ks/sx/wDKQH9q/wCmg/8ApI1fZdAHxhZ/8Ex/Cfii6+2/FT4geOvirdN8zQaxq7xWofjJRIzuX/vuvf8A4a/sw/Cn4Qxr/wAIn8P9A0ecKqG7jske5YDpumYFz+Jr1CigAr49+Bn/ACka/aL/AOwNon/okV9hV8e/Az/lI1+0X/2BtE/9EigDqP8AgpN/yZb8SP8Ar2g/9KI69y+Fn/JMfCH/AGB7P/0QleG/8FJv+TLfiR/17Qf+lEde5fCz/kmPhD/sD2f/AKISgDqKKKKACmtS5pGIoA+Jv2b/APlJB+1D/wBemjf+k8VdJ8Qv+Ulnwk/7ErVP/RjVzf7OIK/8FIP2oc/8+ein/wAloq6T4hf8pLPhJ/2JWqf+jGoA+t6KKKACiiigAooooAKKKKACiiigAooooAKKKKACiiigAooooAKKSloAKSlpDQAUtIBiloAKKKKACiiigAooooAKKKKACiiigAooooAKKKKACiiigAooooAKKKKACiiigAooooAKKKKACkpGNN3UAONNalpdtAHiP7ad0LL9lH4pzld4j0K4bb64FaX7Itwbv9lz4TzkYMvhfTnx9bdDWP8AtyjH7IfxZ/7F+5/9BrS/Y5/5NR+EH/YqaZ/6TJQB5R/wVU/5Mp8Y/wDX5pv/AKWw15BZf8nP/sK/9ibe/wDpsavX/wDgqp/yZT4x/wCvzTf/AEthryCy/wCTn/2Ff+xNvf8A02NQBr+J/wDlMb4X/wCxOP8A6LuK3f8Agmv/AMk/+P8A/wBlD1j/ANExVheJ/wDlMb4X/wCxOP8A6LuK3f8Agmv/AMk/+P8A/wBlD1j/ANExUAfIHwb/AOUT/wAc/wDsY7T/ANE6bX17/wAFIv8AlHa3+5ov/ocVfIXwb/5RP/HP/sY7T/0TptfXv/BSL/lHa3+5ov8A6HFQBm/Er/k5n9hf/sF6j/6QW9S/tqf8n4/smf8AYQuf/RkNRfEr/k5n9hf/ALBeo/8ApBb1L+2p/wAn4/smf9hC5/8ARkNAHdfCn/lJF8cP+xW0j+lcB4R/5TF+M/8AsSU/9AtK7/4U/wDKSL44f9itpH9K4Dwj/wApi/Gf/Ykp/wCgWlAHU/8ABOP/AJGH9pb/ALKdqn/oZrif2Hf+T0v2uP8Ar/h/9HXFdt/wTj/5GH9pb/sp2qf+hmuJ/Yd/5PS/a4/6/wCH/wBHXFAHof8AwS1/5Nv1f/sbdV/9GrXn/wDwTc/5Gj9qz/scbj/0O6r0D/glr/ybfq//AGNuq/8Ao1a8/wD+Cbn/ACNH7Vn/AGONx/6HdUAdx/wST/5Mu8P/APYU1D/0ea5f/gmh/wAlE/aj/wCx6uP/AEdcV1H/AAST/wCTLvD/AP2FNQ/9HmuX/wCCaH/JRP2o/wDserj/ANHXFAHff8Exv+Tc9T/7GzWP/Sg1wH7GP/J+X7WH/X/a/wDoyau//wCCY3/Juep/9jZrH/pQa4D9jH/k/L9rD/r/ALX/ANGTUAdR/wAE9/8AkeP2mP8Asol3/I1zcX/KYKf/ALEP/Cuk/wCCe/8AyPH7TH/ZRLv+Rrm4v+UwU/8A2If+FAG/4T/5Su+Nf+ydwf8ApRBWJ/wUu/5KV+yz/wBj9b/+jratvwn/AMpXfGv/AGTuD/0ogrE/4KXf8lK/ZZ/7H63/APR1tQBsf8FFP+R//Ze/7KPY/wDoyOvaP22v+TRvi7/2Ld5/6LNeL/8ABRT/AJH/APZe/wCyj2P/AKMjr2j9tr/k0b4u/wDYt3n/AKLNAHl/wN/5Ri6T/wBiHd/+iZa739gX/kzv4Uf9gSL/ANCauC+Bv/KMXSf+xDu//RMtd7+wL/yZ38KP+wJF/wChNQB9AV8c/sE/8lO/ac/7H2X/ANANfY1fHP7BP/JTv2nP+x9l/wDQDQB9jUUUUAeKfH79sL4Yfs16hpmmeNdZuINZ1OJprLS7GxmuZ51DbcgIpC5bgbiM4OM4NeML+2l8Y/io8SfCL9nPxBc2Mkhj/trxpOul26j5cOEb764JJIfPHAJ4rW+IltDdf8FMPhak0STJ/wAIRqR2yKGGfNbnmvrygD4J8Xfsl/tKftRadZWXxk+KPh/wjoNvfR3y6F4N00ytvTBR/Ocqyup3Y+ZwOvOeO98F/wDBMX4OaPqcer+LU134m68Dl9R8Xam9wZPYou1SB2DA19c0UAc54N+HPhb4c6amn+FfDul+HbJF2iDTLSOBce+0DP410O01FeX1vp1u9xdzxW0CDLSzOEVR6kngVwWiftE/DHxN48TwVo/jvQdW8VMsjDS7G9SaX5Blx8pIBA5xnOATQB6DRXg/7X37S19+zV4P8NX2j+GF8Wa74i1uHQ9PsJbwWsZmkR2XdIVOMlAozgZYZIAJryNvDX7avxiQHUfE/g34J6XMA4g0m2/tLUIuOY3ZtyHkdUcdeM9aAPs68vbfT7d7i6nitoIxl5ZnCKo9STwK8G+JX7enwG+FXnR6z8RtJuryF/Ley0hzfzK/91lhDbf+BYxXmVp/wTM8OeLLj7X8WviX46+K1y5Ej2+pao9vZiTuyRISU9gH4r3n4c/ss/CP4TlH8K/D3QdKuVAH2sWayXBx0zK+WP50AfO/iD/go1r2vaXqV98MPgR4y8T6ZYwtcza7rkJ0zT0hUZeQOVcsAMnaMHjpX0f+zV8Wrv46fA3wh47vrCHS7zWrMXEtpbuXjjbcVIUnnHHerP7QqhfgJ8RVUAKPDl+AoHH/AB7vXnP/AATz/wCTMfhZ/wBgxv8A0dJQB87eG/2efDn7XP7Wn7QVh8TdS8Ra3onhTVrKPTdFTWJorNFlgJP7tTxgxjG0r95s54x9gfDf9lv4S/CNUPhL4faDpM6qE+1rZrJcEDpmV9zk8nqe9eG/sh/8ngftaf8AYZ0v/wBES19iUACrtUADAHGBS7TQtOoA8R/ba/5NF+L3/YtXn/os1e/Y7/5NQ+D3/YpaX/6Sx1S/bb/5NF+Lv/YtXn/os1d/Y7/5NQ+D3/YpaX/6Sx0AeKfsx/8AKQH9q/6aD/6SNX2XXxp+zH/ykA/aw+mgf+kjV9lZFAC0UmRVPVNa0/Q7U3OpX1tp9svWa6mWJB+LECgC7Xx78Df+Ujf7Rf8A2BtE/wDRIruPiB/wUI/Z++G+9dR+JGmahcKxjNvooe/cMAflPkhgvQjkgA9cV5P+xv4v/wCFv/tefG34maToeuaf4R1zStKisLzVtOktRM0SlGClhhvubuCeCKAPSP8AgpN/yZb8SP8Ar2g/9KI69x+FrBfhf4RJOANHs8k/9cErlP2oPg3cftAfA3xR4Cs9Th0i51eKOOO8niMscZWVH+ZQQSCFI4PevnfSv+CdnibxRp9lb/E/9oDxx4mgt41gGm6JMNMsvKVQoQxgtu+UAZ4P50AfTHxA/aI+GPwsUf8ACWePfD+hSNnbDeahGsrYxnCAlj1HQd6+f9b/AOCpHwmkvJLHwNpHi/4oahHJ5bweF9Elk2/ew2ZNmVJXGQDnORmuy8A/8E7/ANn34dsslj8OtP1O4DiTz9cZ79twxyBKzKOmeAK91tbDw94G00CCDTdA0+IYHlpHbRIPwwBQB8jt+0L+1X8UZnj8Dfs/2fgmylXMOq+OdVwRwPvW6bHB5PYjj14p3/DNv7UvxOkSTx7+0Hb+ELCYEXGk+BNLCbV5+VLhtjjtyc9OnevVviB+3b8Bfhn566z8TNFlnhcxyW2lym/mRgcEFIA7A59RxXl7f8FIrTxlMlv8K/g58QviM0w/c30Olm1sWOCeZmztGFJyQBQB6j+zh+x94W/Zr1XXta03XfEXinxHrsccWo6x4jvVuJpljJKjKovTOMtuOABnAArhPiF/yks+En/Ylap/6Marf7Kn7WPjf43fFz4g+BfHPgK18B6t4XtLS4exivjdTRtNk7JGwFJKFGG3pnB5zip8Qv8AlJZ8JP8AsStU/wDRjUAfW9FFFABRRRQAUUUUAFFFFABRRRQAUUUUAFFFFABRRRQAlG6kak9qAFY0LTc44pR1oAfRRRQAUUUUAFFFFABRRRQAUUUUAFFFFABRRRQAUUUUAFFFFABRRRQAUUUUAFFFR3FxFawvNNIkMMY3PJIwVVA7knoKAJKK+afiz/wUO+CnwrvG0uPxN/wmXiMs8UeieE4jqE7yqceVuQ+WrZ4wzA8HjivAtW/4KoeLPCvxIh07xN8C9e0Xw42nHV5Lcu76xFp43D7Y8HlhEjBU5DsuACd3qAfonRXnnwY+PvgP4/eGE13wN4jtdcs+BNFGds9sxGdksR+ZG+o57Zr0HeKAFzSbqaWpM0AOY03FOWl20AA606kxS0AeFftzf8mh/Fn/ALF+5/8AQa0f2Of+TUfhB/2Kmmf+kyVnftzf8mh/Fn/sX7n/ANBrR/Y5/wCTUfhB/wBippn/AKTJQB5R/wAFVP8Akynxj/1+ab/6Ww15BZf8nP8A7Cv/AGJt7/6bGr1//gqp/wAmU+Mf+vzTf/S2GvILL/k5/wDYV/7E29/9NjUAa/if/lMb4X/7E4/+i7it3/gmv/yT/wCP/wD2UPWP/RMVYXif/lMb4X/7E4/+i7it3/gmv/yT/wCP/wD2UPWP/RMVAHyB8G/+UT/xz/7GO0/9E6bX17/wUi/5R2t/uaL/AOhxV8hfBv8A5RP/ABz/AOxjtP8A0TptfXv/AAUi/wCUdrf7mi/+hxUAZvxK/wCTmf2F/wDsF6j/AOkFvUv7an/J+P7Jn/YQuf8A0ZDUXxK/5OZ/YX/7Beo/+kFvUv7an/J+P7Jn/YQuf/RkNAHdfCn/AJSRfHD/ALFbSP6VwHhH/lMX4z/7ElP/AEC0rv8A4U/8pIvjh/2K2kf0rgPCP/KYvxn/ANiSn/oFpQB1P/BOP/kYf2lv+ynap/6Ga4n9h3/k9L9rj/r/AIf/AEdcV23/AATj/wCRh/aW/wCynap/6Ga4n9h3/k9L9rj/AK/4f/R1xQB6H/wS1/5Nv1f/ALG3Vf8A0atef/8ABNz/AJGj9qz/ALHG4/8AQ7qvQP8Aglr/AMm36v8A9jbqv/o1a8//AOCbn/I0ftWf9jjcf+h3VAHcf8Ek/wDky7w//wBhTUP/AEea5f8A4Jof8lE/aj/7Hq4/9HXFdR/wST/5Mu8P/wDYU1D/ANHmuX/4Jof8lE/aj/7Hq4/9HXFAHff8Exv+Tc9T/wCxs1j/ANKDXAfsY/8AJ+X7WH/X/a/+jJq7/wD4Jjf8m56n/wBjZrH/AKUGuA/Yx/5Py/aw/wCv+1/9GTUAdR/wT3/5Hj9pj/sol3/I1zcX/KYKf/sQ/wDCuk/4J7/8jx+0x/2US7/ka5uL/lMFP/2If+FAG/4T/wCUrvjX/sncH/pRBWJ/wUu/5KV+yz/2P1v/AOjratvwn/yld8a/9k7g/wDSiCsT/gpd/wAlK/ZZ/wCx+t//AEdbUAbH/BRT/kf/ANl7/so9j/6Mjr2j9tr/AJNG+Lv/AGLd5/6LNeL/APBRT/kf/wBl7/so9j/6Mjr2j9tr/k0b4u/9i3ef+izQB5f8Df8AlGLpP/Yh3f8A6Jlrvf2Bf+TO/hR/2BIv/Qmrgvgb/wAoxdJ/7EO7/wDRMtd7+wL/AMmd/Cj/ALAkX/oTUAfQFfHP7BP/ACU79pz/ALH2X/0A19jV8c/sE/8AJTv2nP8AsfZf/QDQB9jUUUUAfI/j7/lJp8Lv+xH1L/0aa9f+On7VHwx/ZvgtH8f+KIdGnu0MltZrFJPcTKGClljjUkjJ69K8f8f/APKTT4W/9iPqX/o01hfHyzt9Q/4KTfs+wXUEdzC2haoTHMgdSQkhBwfQgH6gUAD/APBRDxB8RZHh+DHwH8cePA6hoNV1KAabpzqdp3CZgwPDcAlSevTmmt4f/bY+MUgOoeIPBnwT0mVQ6x6ZCdS1GL/YfcWjJ9SrD2r7VVQqhVGFHAA6ClwaAPjS3/4Jo6J4wkNz8Xfif45+KtzIVeS11DVHtrHcP7kKHKj2Dcdq4/8A4Uf4G+BP/BQ74IaN4F8N2fh2wm8OatLMlqGLTOI3AZ2YlmOOMk19+18e/F7/AJSWfAr/ALFnV/8A0F6AMr/gpr/x4/AIf9VM0v8AlJX2pXxZ/wAFNP8Ajz+AP/ZTdL/k9fadABS7TQtOoA87/aG/5IP8Rf8AsXdQ/wDSd684/wCCen/JmPwr/wCwY3/o6SvSP2iP+SD/ABF/7F3UP/Sd683/AOCen/JmPws/7Bjf+jpKAOD/AGQ/+TwP2tP+wzpf/oiWvsSvjL9lPU7PSf2tv2t7m+u4LK3TWNLZpriQRooEEuSSTgV6n8Qv27fgN8MVnGs/EvRpbmE7XtNLkN9MDkDGyEMQee/9KAPe1p1fFkv/AAUgl8bzfZfhH8FPHvxBknXNrqElibHT5OCcmZg21fcgUq+Iv22/iowax8NeBfg7psoK/wDE1uTqV9H1+YbC8ZPTAKj3oA9l/bb/AOTRfi7/ANi1ef8Aos1d/Y7/AOTT/g9/2KWl/wDpLHXg15/wT98efFSzMHxg/aJ8Y+J7WQMs2l6EsemWcqMfmR4xuVwQMcr9MV9d+A/BemfDjwToPhTRY5I9I0Wxh060SVy7iGJAiAsepwo5oA/PCy/aa0T9m39u39pSXUvD/iHxTqOtPoyWGl+GrIXVxJ5NqnmMy7htUCZOT15A5r1xP2nv2mfig8a/D39nRvDenXA+TV/HWppbmIcjL2wKSDnHAyfbHNfV/iPxZ4X8ErNqGuatpWhjbmW5vriKAkAcZLEZ4H6V4F45/wCCkn7PXgWZbd/H0GvXbhtkHh+2lvizDGFDxqUyc8ZbnBoA4pfgP+1v8UFVvG/x00bwFZSArLpngjSg7bSO08gV1b/gRx29auaX/wAEuvhdf3kN94/1/wAZfFHUIjuWfxNrcr7ckEgBCpwSOQSc1Sf9vj4g+PZLiH4V/s2+OPEIjcqL3xEq6VbsMkAhmBB6dN2R3xTV039t34qkm41PwH8HtMnAKi1ifUNQtx6HdvjZvfIHNAH0T4D/AGbPhV8KVMnhbwB4e0SXaA91DYR+cwGcFpCCxxk9T3rutO1zS9Qu7iystQs7m5tQvnW1vMjPCDnbuUHK5wcZ9DXyDH/wTy1/xzPDdfFf4/8Aj3xm+AJtP066/s2xcYII8pSwGeORg8c5rnP2MfhP4Z+B/wC2z8dPBfhCyk0/QNM0TSBBDNM0z5dS7sztyxLMx56AgDgCgD62+OXxg0r4C/CvX/HetWt1e6dpESySW1mFMshZ1RVXcQo5YckjjNfM9v8AtTftMfFVbdvhz+zxHoWl3qB7fXPGmqrHGqkEiRoVKsQRj7pPX05ruf8AgpP/AMmW/Ef/AK97f/0pir3T4U/8kv8ACH/YHtP/AESlAHytH8C/2vPidtk8Z/HLRPh/akkNpvgvSRMdp7+dIFcH/gRAqxp//BLv4dasyzfETxb44+KNyrbw3iHXZditjBKhCGH4sT719l0UAeSeAf2T/g/8MWjk8NfDfw5p1zGu0XRsEluPxlfLH869WhhWGMJGixovRUAAH4VLRQB8R/s5f8pIv2of+vLR/wD0mirpfiF/yks+En/Ylap/6Maua/Zz/wCUkf7UP/Xno/8A6TRV0vxC/wCUlnwk/wCxK1T/ANGNQB9b0UUUAFFFFABRRRQAUUUUAFFFFABRRRQAUUUUAFFJSFqABqSiigBNtOxSrS0AFFFFABRRRQAUUUUAFFFFABRRRQAUUUUAFFFFABRRRQAUUUm4DqaAFory/wCL37TPww+Bdm83jXxrpWiTKjOtjJMJLuUL12QJmRuo6DvXzpJ+3n49+MzSWX7PvwZ1rxTE52p4o8Tgadpag8CRQSDKoPJUMrYHSgD7aZgoJJwBzXh/xk/bW+DPwJWWPxR43sP7Sj4Olaa32u8z2zHHkr9WwPevEx+yH8dvjtItz8b/AI23elaTIwkbwn8P1+xwJxjY05AZ1PcMG5PB6V7d8Gf2M/g98B/Ik8KeB9Oi1GIEDVr5TdXhzyf3smSOey4FAHiI/a1+P/x+jaL4JfBOfw3pTgAeKPiM/wBljHQkrbg5cYIwyM4znjg1JD+wL4y+MF1HfftAfGfXvGUJO5/DPh9v7O0sAjmNgoBcA9G2q2B1r7X44A6UlAHm3wj/AGbfhl8C7FbfwP4N0vQ5AgR7yOAPdSgdN87ZdvxavnHVBn/grdpHv8ND/wClUtfbC18Ual/ylu0j/smZ/wDSqWgDofjV/wAE+fDnibxE3jv4Uaxc/B74mRyiZdY0PKWl03mB3W4t1IVgx64wCcbg44rlPDH7aHxC+AfiCw8H/tN+DW0tbib7PafELw5GZ9KuiQxBlRRujPAHyjPUmNQM19x1l+IvDOleLdHutK1nT7bVNNukMc9peRLLFIpGCGVgQRg0AReG/E2k+LtHt9V0TUrXVtMuVDw3dnKssTg+jA4rTr418VfsX+MPgj4huvGX7Nnin/hHJZMyXvgbWZHm0m+OR9wnJjbAwM56KAyCtf4T/t/6He+LU8A/GPQrv4O/EVQoFprXy2F4zMVBguPu4OB97CknCsxBoA+tVp4qKGRZY1dGV0YAqynIIPQg1ItADqKKKAPCv25v+TQ/iz/2L9z/AOg1o/sc/wDJqHwg/wCxU03/ANJkrO/bo/5NB+LX/Yv3H8hWj+xz/wAmn/B//sVNN/8ASZKAPKP+Cqn/ACZT4x/6/NN/9LYa8gsv+Tn/ANhX/sTb3/02NXr/APwVU/5Mp8Y/9fmm/wDpbDXkFl/yc/8AsK/9ibe/+mxqANfxP/ymN8L/APYnH/0XcVu/8E1/+Sf/AB//AOyh6x/6JirC8T/8pjfC/wD2Jx/9F3Fbv/BNf/kn/wAf/wDsoesf+iYqAPkD4N/8on/jn/2Mdp/6J02vr3/gpF/yjtb/AHNF/wDQ4q+Qvg3/AMon/jn/ANjHaf8AonTa+vf+CkX/ACjtb/c0X/0OKgDN+JX/ACcz+wv/ANgvUf8A0gt6l/bU/wCT8f2TP+whc/8AoyGoviV/ycz+wv8A9gvUf/SC3qX9tT/k/H9kz/sIXP8A6MhoA7r4U/8AKSL44f8AYraR/SuA8I/8pi/Gf/Ykp/6BaV3/AMKf+UkXxw/7FbSP6VwHhH/lMX4z/wCxJT/0C0oA6n/gnH/yMP7S3/ZTtU/9DNcT+w7/AMnpftcf9f8AD/6OuK7b/gnH/wAjD+0t/wBlO1T/ANDNcT+w7/yel+1x/wBf8P8A6OuKAPQ/+CWv/Jt+r/8AY26r/wCjVrz/AP4Juf8AI0ftWf8AY43H/od1XoH/AAS1/wCTb9X/AOxt1X/0atef/wDBNz/kaP2rP+xxuP8A0O6oA7j/AIJJ/wDJl3h//sKah/6PNcv/AME0P+SiftR/9j1cf+jriuo/4JJ/8mXeH/8AsKah/wCjzXL/APBND/kon7Uf/Y9XH/o64oA77/gmN/ybnqf/AGNmsf8ApQa4D9jH/k/L9rD/AK/7X/0ZNXf/APBMb/k3PU/+xs1j/wBKDXAfsY/8n5ftYf8AX/a/+jJqAOo/4J7/API8ftMf9lEu/wCRrm4v+UwU/wD2If8AhXSf8E9/+R4/aY/7KJd/yNc3F/ymCn/7EP8AwoA3/Cf/ACld8a/9k7g/9KIKxP8Agpd/yUr9ln/sfrf/ANHW1bfhP/lK741/7J3B/wClEFYn/BS7/kpX7LP/AGP1v/6OtqANj/gop/yP/wCy9/2Uex/9GR17R+21/wAmj/Fwf9S3ef8Aos14v/wUU/5H/wDZe/7KPY/+jI69o/bY/wCTSfi3/wBi3e/+izQB5f8AA7/lGPpI/wCpDu//AETLXe/sC/8AJnfwo/7AkX/oTVwXwP8A+UZOlf8AYh3f/omWu9/YF/5M7+FH/YEi/wDQmoA+gK+Of2Cf+SnftOf9j7L/AOgGvsavjn9gn/kp37Tn/Y+y/wDoBoA+xqKKKAPkbx//AMpNPhb/ANiPqX/o01kfHD/lJd+z3/2AdW/9Fy1r+P8A/lJp8Lf+xH1L/wBGmsj44f8AKS79nv8A7AOrf+i5aAPs5adTVqK7vbfT4Gmup47aFeskzhFH4mgCevj34vf8pLPgV/2LOr/+gvXqPxD/AG3PgZ8MFuV1z4l6D9qt/wDWWen3IvLgHGceXFubP4V80+DvjfpH7VH7fHww8ZeAtJ1+88H6Bomp2V1rt3pkkFo0jo2NrkY6kLzg57UAdj/wU0/48/gD/wBlN0v+T19ohwemTXzb+3F+z34w/aG8K+BoPA2paVp2t+G/E1vrizas7iIeXHIFYbUbcVdlbaRhgCMiuCf9h/4t/EqH/i6f7S3iu9Rm3my8JQx6VEMjBXK8MPqn4ZoA+pPGvxf8DfDWza68V+L9E8OwLwW1K/ih74xhmB68V8++Kv8Agp58DdG1CTTPD+p6x8QNYA/d2HhXSpbl5Tg8KzBUPTsTV3wX/wAE1P2fvBt897P4MPifUJTukufEd3LemRiclijNsJJ5J2816ff+L/gx+z7pUUM+peDfAljAoSOFJLazCqOgCDH5AUAfM/jL9pL4+ftCeFdY8OeA/wBm/VdH0TXLCawbWvGWoJYPEJUZWfyGCnADDGGOa+kv2Ufhhq/wX/Z38D+Ctfe2fWdHsfIujZuXi3l2YhWIGR83XFePeNP+CpHwJ8Oy3Ntouqat441GBWc2vh3S5ZSygEkh3CJgY5O7ivoL4K/FXTvjh8K/DfjrSbS6sNP1y1+0xW14F82MbipDbSR1U9DQB4Z45/4Jt/CL4nfE7xJ408Wf27rM2uXa3s2lnUTBapKI1jyoiCueF7scZOOteneB/wBl74NfCDF5oHw+8NaLNGmz+0JbONpgODgzSZbqAevavmu81749/tLftFfFvwP4R+K9r8M/C3ga/t7X/Q9GjuLq5SaPcP3jHIIKPyCOo4Pbpbb/AIJj+E/Elw8/xM+JHxA+J7SPve31jWXjtt2c/KiHKjPYNgdsUAew+Pv2yfgh8KY54tc+JHh+0mtly1lZXAupx7CKHc2fbFeOTf8ABTfwr4nmMPwx+HHj74oSMxjS50fRnS134GAzt8yjnnK8Dk17J8Pv2Mfgf8L2tZfD/wAMtAhu7Ufur28tRd3C8YyJZtzZwTznmvZbO0t7GERW1vHbxLwI4lCqPoBQB8H/ABK/aU/a5h+H3iLxha/CPw38MPDmh2kt/d3HiDURqF48KDcRFFGyfPjs6gHGMjrX1x+z7441L4mfAv4f+LdYEI1XXNBstRuxboUj82WFHfapJwMscDJrk/22v+TRfi9/2LV7/wCijVz9jv8A5NQ+D3/YpaX/AOksdAHyb4P/AGfPAX7Q/wDwUC/aKPxB0BPE6eHH0Z9NhuppFjj82zAkDKrDevyLhWyAckAEk19s+A/gf8PvhjbmHwn4I0Dw6jHcx07ToomYkAEswXJOAOp7V82/sx/8pAP2sPpoH/pI1fZdADdppdtLRQA1q+O/gXx/wUY/aK/7A2i/+ihX2I1fHnwP/wCUjH7RP/YG0T/0UKAOo/4KTf8AJl3xG/64W/8A6UxV7p8Kv+SYeEP+wRaf+iUrwv8A4KTf8mXfEb/rhb/+lMVe6fCr/kmHhD/sEWn/AKJSgDqaKKKACiiq95f22nxGW6uIbaMdXmcIPzNAHxX+zn/ykj/ah/689H/9Joq6X4hf8pLPhJ/2JWqf+jGrkf2X9Ts9a/4KJ/tM3+n3cF/Y3FlpBhuraRZIpAsEasVZSQcMrKcdwR2rrviF/wApLPhJ/wBiVqn/AKMagD63ooooAKKKKACiiigAooooAKKKKACiiigBKMikakoAGNNpWoC0AApwFLtpaACiiigAooooAKKKKACiiigAooooAKKKKACiiigAooooAK5L4hfFvwX8J9LbUfGXinSvDVmOkmpXSRbvZQTlj7AE18yftxfEL4iL8YPgr8KPAvjKXwND47mvor7VrW1jluEEKxEBSwyBh3+6VOdpzgEHX+Hf/BNf4R+F9SXWvF0Gp/FXxMy4l1Txndteh+c48o/IQO24MR69aAOd1P8A4KRW3xCvp9I+Avw08TfFrU0Oz+0FtmsdLjbuHmkG4EAg4ZVByOarJ8E/2rP2gF3fEj4o2Hwn8OTZ36B4Fh3XrxsPuvck5Rh0yrsOvHNfZmk6PY6FYQ2Om2Vvp1lCoSO3tYljjQDsFUYFXaAPm74Rf8E+Pgr8JLxdUTwuPFfiLcskmueKpf7QuJJRk+bhx5aOSSSUUdvQV9HQwx28KRRRrFEgwqRgKoHoAKfkZxnmvJPi5+1l8I/gZHMPGXjrSdNvI13HTYpvtF4eccQR7n/SgD1uivl+b9uTQPHH7MPxM+K/w7s57r/hE1miih1uAxJNMscciOVVslGWVGxkN2ODXhOt/Df9of45/AfU/iZ4++M58M+HpvDUmvWXhXwZbNaiVBAZ4knmDBxuAUOoZ+pAbuQD7e+L/wAa/BXwF8IP4n8d69BoGjiUQJLKrO80pVmEcaICzsQrHCg8KT0Br4/+JX/BUa7j8Kar4i+GXwh8ReI/DOmoJbjxVr0bafpvlnADRnDNISxVQPlPOcV5T8WrqbWv+Cf/AOydLqE0l9LL4u0hZJLljIzjbdDDFs54457V9W/8FJoY7b9ib4ixQxrFEltbBURQFA+0xcACgD6K8F683irwfoetPCLd9SsILxoVbcEMkauVB743Yr5A1L/lLdpH/ZMz/wClUtfVXwf/AOSTeCv+wJY/+iEr5V1L/lLdpH/ZMz/6VS0AfbNFFFABXB/GD4G+B/jz4Xk0Dxx4es9dsTkxNPGPOt2II3xSD5o2wT8ykHmu8ooA+C5Pgt8ff2JWa++EGqz/ABh+F8IZ5fAviC4P9oWSAKALSXHKgD7q9Mf6tiSa9w/Z3/bc+HH7RU0uk6fdXHhjxnbM0d34V8QKLa+jdThgq5xIAf7pyMjcFPFfQleFftD/ALGfw0/aOjF7r2knS/FcG1rPxRo7fZtQt3XJQ+YB84UnIVwQDyMHmgD3NTmnV8Er8Sv2hv2GYBB8Q9MuPjr8KLVdsfirRx/xOdPiUcG5jY/vOw3Mx6EmXtX1l8F/2gPAP7QXhtdb8C+JLTXLXjzYYyUuLZiPuSxNhkb6jB6jIoA479uj/k0H4tf9i/cfyFaP7HP/ACad8H/+xU03/wBJkrO/bo/5NB+LX/Yv3P8AKtD9jj/k0/4P/wDYqab/AOkyUAeU/wDBVT/kynxj/wBfmm/+lsNeQWX/ACc/+wr/ANibe/8ApsavX/8Agqp/yZT4x/6/NN/9LYa8gsv+Tn/2Ff8AsTb3/wBNjUAa/if/AJTG+F/+xOP/AKLuK3f+Ca//ACT/AOP/AP2UPWP/AETFWF4n/wCUxvhf/sTj/wCi7it3/gmv/wAk/wDj/wD9lD1j/wBExUAfIHwb/wCUT/xz/wCxjtP/AETptfXv/BSL/lHa3+5ov/ocVfIXwb/5RP8Axz/7GO0/9E6bX17/AMFIv+Udrf7mi/8AocVAGb8Sv+Tmf2F/+wXqP/pBb1L+2p/yfj+yZ/2ELn/0ZDUXxK/5OZ/YX/7Beo/+kFvUv7an/J+P7Jn/AGELn/0ZDQB3Xwp/5SRfHD/sVtI/pXAeEf8AlMX4z/7ElP8A0C0rv/hT/wApIvjh/wBitpH9K4Dwj/ymL8Z/9iSn/oFpQB1P/BOP/kYf2lv+ynap/wChmuJ/Yd/5PS/a4/6/4f8A0dcV23/BOP8A5GH9pb/sp2qf+hmuJ/Yd/wCT0v2uP+v+H/0dcUAeh/8ABLX/AJNv1f8A7G3Vf/Rq15//AME3P+Ro/as/7HG4/wDQ7qvQP+CWv/Jt+r/9jbqv/o1a8/8A+Cbn/I0ftWf9jjcf+h3VAHcf8Ek/+TLvD/8A2FNQ/wDR5rl/+CaH/JRP2o/+x6uP/R1xXUf8Ek/+TLvD/wD2FNQ/9HmuX/4Jof8AJRP2o/8Aserj/wBHXFAHff8ABMb/AJNz1P8A7GzWP/Sg1wH7GP8Ayfl+1h/1/wBr/wCjJq7/AP4Jjf8AJuep/wDY2ax/6UGuA/Yx/wCT8v2sP+v+1/8ARk1AHUf8E9/+R4/aY/7KJd/yNc3F/wApgp/+xD/wrpP+Ce//ACPH7TH/AGUS7/ka5uH/AJTBT/8AYh/4UAb/AIT/AOUrvjX/ALJ3B/6UQVif8FLv+Slfss/9j9b/APo62rb8J/8AKV7xr/2TyD/0ogrE/wCClvPxJ/ZaPp4+t/8A0dbUAbH/AAUU/wCR/wD2Xv8Aso9j/wCjI69o/bZ/5NJ+Lf8A2Ld7/wCizXi3/BRT/kf/ANl7/so9j/6Mjr2j9tr/AJNH+Ln/AGLV7/6KNAHmHwP/AOUZGlf9iHd/+iZa739gX/kzv4Uf9gSL/wBCauB+Bv8AyjH0n/sQ7r/0TLXffsC/8md/Cj/sCRf+hNQB9AV8c/sE/wDJTv2nP+x9l/8AQDX2NXxz+wT/AMlO/ac/7H2X/wBANAH2NRRRQB8jeP8A/lJp8Lf+xH1L/wBGmsX9rXwH8XV/ap+FnxH+GHgSPxm+g6ReWbi7vYra2ilmYpmVmkVgAjs3yg5xitrx9/yk0+F3/Yj6l/6NNdt+0h+2FpX7PPizw14UTwb4l8ceJ9fgkubTTfDtukr+WjKrE5YMTyThVbAVicAZoA8rHwx/bS+KEOPEXxS8H/C2An/VeFdMN5KQR0LSnjn0f8atW/8AwTL8LeKLiS5+J/xH8efE+WVhJJbarq7w2u7Ofljj5UZ7BsDjGKgX45/te/E4Sx+EfgboXw9tyQYtQ8a6qZWKZIyYY9rK3GcEHGR1po/Zi/af+JuH+IH7RQ8M2FwuLjR/BGmCHaCpBVLk7HHOOSD7YoA9f8J/sufAL4D2sF7ZeCvCugm1jwup6qkbzKoGCTPOS31JP1rc8G/tQfCDxh42tfA/hbx5oOr+IZI5Wh03S5hKMRjLgMg2AgZO3OSASAcGvF9H/wCCXfwimuIbzxtfeK/iZqkb7xeeJtcmkbPHGIymRkdDnPfNcbqnwh8F/B3/AIKLfBDS/BPhnTfDNjN4f1eWaLTrdYhK/luNzkcsccZNAHvf7XX7TNz+zL4P8O6jpvhZ/F+t+IdZi0TTtN+1i1R55EZl3SFWxnbgcdSMkDJHlBvv23Pic8Zg074f/CHTZ05NzK2pX8GV6gLvjJBxwQO/XpUX/BTL/j1/Z/8A+ym6X/KSvtOgD4ub9gfx/wDEJY3+Kf7SHjbX8MS9l4d2aVbOpxlWRdwPTrj6YrtvAv8AwTd/Z88C3DXK+A4fEF45zJceIbiS/wB7c5JSRimTnnC896+m6XaaAPIvi74H8OeCf2efH9l4e0DTNCs4fDd9HHBptpHboqi3cBQEAAFcp/wT45/Yz+FX/YKP/o6SvRv2hv8AkgvxG/7F3UP/AEnevOv+Cev/ACZj8LP+wWf/AEbJQBwH7IH/ACeH+1n/ANhjS/8A0RLX2NtNfHX7IP8AyeF+1r/2GdL/APRE1fY9ADdppVpaKAPE/wBtr/k0X4vf9i1e/wDoo1c/Y7/5NQ+D3/YpaX/6Sx1T/ba/5NF+L3/YtXv/AKKNXP2PP+TUPg9/2KWl/wDpLHQB4p+zH/ykA/aw+mgf+kjV9lV8a/sx/wDJ/wD+1h/3AP8A0kavpnxn8Y/Anw9tWufE/jLQtBhXOW1DUYoTx2AZsk/SgDsciivlfxd/wUz/AGffC941jbeMZPEuochLfQNPnu/MOOiuF2H/AL6rk1/b98feOoWHw0/Zp8e63Jn5ZvECppcG0995DqfoD+NAH2m1fHnwP/5SMftE/wDYG0T/ANFCqi61+298RbiGS20P4efC3TJtu5b+Z9QvIQR8x+QshPtgfWu1/Zh/Ze8Z/CP4keM/H/xB+INv468U+J7O1tLiW20wWaoIC20nDYb5SqjCLwvOSc0AXP8AgoVbwXX7Ifj6G5/1MkMKnnH/AC3jx+uKr6T+2p8F/hz8PfDVnqXjqxuLy3022gltdOV7qVHWNVKsI1OCDxg46GvdvHHgjQfiR4XvvDnibS7fWtDvlCXNjdLmOQBgwz7hlBBHQiud8IfAT4ceAQv/AAj3gXw/pTr0lt9PiEntlyNx/OgDwbVv+ChcWqbk+H3wd+IHjtm+WC5g077Paytj/noSxA9ytYy/Fz9s/wCJCf8AFO/B/wAIfDeAnHn+KtWN420jghYiCDn1Q/SvqvxL8QPCnge1km1/xJo+gW8I+Zr+9it1Uf8AAmFeHeNP+Cjn7PHgXatx8R7HVZSceXokMt99SWiUqPzoA4ofs3/tTfEKVJvGn7RVv4XtJVHnaX4N0dUC5HISdtrjnuc/hUtj/wAEu/h1q+X+IPjDx38TZiyv/wAVBr0uxWAIyoTBHXuxI9aib/gpA3iy4e3+HPwL+JPjRm3CC7fS/sdpNjoRIS2B9QCPSmn4sftm/ESEf8I98H/B/wAOkL8y+KtYN423aeiwkEHJB5Xt0oA+hfg7+zh8Nv2f7W5h8AeErLw6bpEjuZ4S8k06pnaJJHZmbG49T3NeK/EIf8bLPhJ/2Jeqf+jGrI/Y9+Lnxf1/9pD4ufDv4reIdN1u88MWGnSiPSbNIbWCaVN7eU20OwKugO/uvAHfZ+In/KSv4R/9iXqn/ow0AfWtFFFABRRRQAUUUUAFFFFABRRSE0AGaMim0UAK1JRRQAU4ChaWgAooooAKKKKACiiigAooooAKKKKACiiigAooooAKKKKACiiigD4n/a7/AOT7P2Sf+vrWP/RUNfatfFX7Xf8AyfZ+yT/19ax/6Khro/8AgqJrupeHf2NfFt3pWoXWmXRurGIz2czRSbGuUVl3KQcEEgjuCRQB6v8AEz9rT4PfB+/Sw8W/ELRdL1FmRTYrP59wm9toZo4wzKvcswAABJOBXlfx+/az8f8Ah/43Wnwd+EXw8tfGHjK60dNZe+1TURbWtrA8hjEhQ4LqpwW+dT8wwG5x88ftr/sg/Cb9n39ki31LwZ4Tt7LWpNZ0wPrFzI9xeMHkG5RI5JVTgfKuB7V65pJx/wAFXx/2S5P/AEqWgDO+AXxI+Pen/tuf8K8+L3ivS9RFz4Rm1w6P4ft1XT7YmdI4gjsgkLgLJnJI+YdcZqr/AME5fgP8PfEnhTxX431fwbo+q+K4vGOqwxapfWqzyxKsp2hN+QpG5uQAea6Wb/lLXF/2TH/29Na//BMz/kivi/8A7HbWP/RwoA+cPBqhf2L/ANtgABR/wm2uYCjAH+p7V9daVz/wT0tD/wBUzX/02V8j+EP+TMP22P8Asdtc/wDaNfXOj/8AKPGz/wCyaL/6bKAPjn4jjb/wT6/ZK/7HDSP5XNfW3/BSzn9iv4kH/p3tv/SmKvkv4lf8o+f2Sv8AscNH/lc19af8FKf+TJ/iR/172/8A6UxUAe4/B/8A5JN4K/7Alj/6ISvlXUv+Ut2kf9kzP/pVLX1T8Hf+STeC/wDsCWP/AKISvlbUv+Ut2kf9kzP/AKVS0AfbNFFFABRRRQAUjUtFADGjDqVYBlIwQehr5P8AjV/wT88NeKfEzeOvhbq918H/AIlK/mJrHh8GO2uG3b2FxAhCsGbliMbv4gw4r6zooA/Mb9or9pn4t/D/AOA/jv4XfH/wLImqa1pEunaN448Nr5ul6jOy/KsuceUx9eCSP9Wo5r7N/Ytvbe+/ZP8AhL9mniuBD4Z0+GTynDbJFgRWQ46MCCCOoIr1rxF4b0rxdo13pGt6bZ6vpd5GYriyvoFmhlQjBVkYEEYJ618a+LP2FfFvwS8RXPjP9l/xe/hC+lkM974H1id5dE1AlgSqqc+WcDAznAACtGM0AdF/wVU/5Mp8Y/8AX5pv/pbDXj9l/wAnP/sK/wDYm3v/AKbGrgP2yv2zrr4jfszeLvhb8SvAmrfDb4srJY3C6ZcQPJZX0cd2jvLbzDI2hIyfmO3srua76xIb9p79hUjkf8Ibe/8ApsagDY8T/wDKY3wv/wBicf8A0XcVu/8ABNf/AJJ/8f8A/soesf8AomKsLxP/AMpjfC//AGJx/wDRdxW7/wAE1/8Akn/x/wD+yh6x/wCiYqAPkD4N/wDKJ/45/wDYx2n/AKJ02vr3/gpF/wAo7W/3NF/9Dir5C+Df/KJ/45/9jHaf+idNr69/4KRf8o7W/wBzRf8A0OKgDN+JX/JzP7C//YL1H/0gt6l/bU/5Px/ZM/7CFz/6MhqL4lf8nM/sL/8AYL1H/wBILepf21P+T8f2TP8AsIXP/oyGgDuvhT/yki+OH/YraR/SuA8I/wDKYvxn/wBiSn/oFpXf/Cn/AJSRfHD/ALFbSP6VwHhH/lMX4z/7ElP/AEC0oA6n/gnH/wAjD+0t/wBlO1T/ANDNcT+w7/yel+1x/wBf8P8A6OuK7b/gnH/yMP7S3/ZTtU/9DNcT+w7/AMnpftcf9f8AD/6OuKAPQ/8Aglr/AMm36v8A9jbqv/o1a8//AOCbn/I0ftWf9jjcf+h3Vegf8Etf+Tb9X/7G3Vf/AEatef8A/BNvnxV+1WO//CY3H/od1QB3H/BJP/ky7w//ANhTUP8A0ea5f/gmh/yUT9qP/serj/0dcUz/AIJm/FjwX8Mf2I9AuvF3izRvDUH9p6h8+qX0Vvn9+cAbmGSfavDP2Qf2yPAXwN8afHua6i1jxXe+J/F1zf6Pp/hixN5NeQedNiQchVB3qRuIzmgD60/4Jjf8m56n/wBjZrH/AKUGuA/Yx/5Py/aw/wCv+1/9GTV55+yd8QP2lfAfw3k8I+CPgFO0N5rF9qSa/wCLrptPhjE8rMA0DqrnbxyDz2GOa3vh7+wt+0fN4+8Y+ONT+Lei/DLWfGF0s+sx+ErV7t5lByFRpdvlYJbG1m65JbgAA9D/AGCtVstF8YftNT6he29jAvxEu90tzKsajg9SxArxDxt+1F8Mfh3/AMFMtQ+IepeK7S78IweEBpp1HSc3yNdf88V8oNlsqQewPUivbvDP/BJv4SW93d3vjHV/E/j+9vLlr24bUtQ+zxyTsSXlKwBCzsScszEn1r6I+H37L/wm+FexvC3w98P6RcKoX7VHYo1wQPWVgXPU9T3oA+BtH/aI8X+KP2zfE/xe+FPwZ8X+PNM1LwzHoVnHeWj6bAzJLEzTNO6sgTCnA+8TnIA5rgP2xvjh8YpPix8Hr/4y+CNP8JaXoOpxeKLXSNBk+23YhhuYvtBlfeVJCJwBgZyS2K/YRY1iVVQBVHAUdBXxT+0PaQ6h/wAFIP2drS6iS4tbjRNaimt5RujlRreYMjqeGUjqDxQBi/ts+OtB+JWpfsl+JvDOpwavoep/EHT7i1u7c5V0MkfbqCDwVOCCCCAa+hv22v8Ak0f4uf8AYtXv/oo18CftSfsz6n+yL8T/AIf+LNDvNRn+ANp410/xBc6ZDGbgaBciePzTtwW8t0BCEHG7CEbihP3R+1p4m0rxl+xP8TNc0PULfVdH1Dwpd3Fre2sgeKaNoiQykdRQBwXwN/5Rj6T/ANiHdf8AomWu+/YF/wCTO/hR/wBgSL/0Jq4H4G/8ox9J/wCxDuv/AETLXffsC/8AJnfwo/7AkX/oTUAfQFfHP7BP/JTv2nP+x9l/9ANfY1fHP7BP/JTv2nP+x9l/9ANAH2NRRRQB8jePv+Umnwu/7EfUv/RprI+OH/KS39nv/sA6t/6LlrX8ff8AKTT4Xf8AYj6l/wCjTWR8cP8AlJb+z3/2AdW/9Fy0AfZtLtNC06gBlfHvxd/5SWfAz/sW9X/9AavsRq+O/i9x/wAFLPgX/wBi1q5/8cegDO/4KZf8ev7P/wD2U3S/5SV9p18Wf8FMv+PX9n//ALKbpf8AKSvtP6HNACrTqoajrWn6LbvPqF9bWMK/ekuZVjUfiSK8U8b/ALd3wD+H8dy2qfFDQZpbc4kt9NuDfTBs4xshDnP4cUAdv+0P/wAkF+I3/Yu6h/6TvXnP/BPX/kzH4Wf9gs/+jZK8X+Kn/BRLwl8Wvh74j8MfDPwF4++IFxremXVhDe6VoUgtonkRowzs2GCgnJIU9DnFe/8A7Evg/WvAP7Kvw50DxFps+ka1Y6dsubG6XbLCxkdtrDscEce9AHlX7IP/ACeB+1oc8f21pY/8gTV9hzXEdvGzyusSKMs7nCge5r4k8RfsT/GRvjj8SPF/gj41wfDzRPGV/Fd3MNhpf2m7dUjCqrM5AQqTJgof4ufQaKf8EzPDvie5af4jfFP4ifEUSZMtnqWstFasxHJEajI+gagD3zxt+1L8IPhxM0HiT4k+GtKuVGTbS6lG02P+uakt+leIax/wVK+DDTS2nhCHxR8RNSRgv2Pw3oc0jtnPIMgQEcfj2zXe+Cf2A/2f/AMUa6f8MdFu2jIYTavGb98jvunLkH6V6Vq3iz4cfB/TS+o6v4Z8HWMICnz7iCzjQdhglQKAPjj4v/H747ftMfC/xH4M8G/s1eINL0jxLp8mntq/ia/jsXgWUFWfyXAzgHP3vwNfX37PfgrUvhv8Cfh74T1lYl1bQ9BstOuxC++MSxQIjhW7jKnmvJ/Gn/BSL9njwXJHBJ8Q7bWrqTOyDQraa+LEYGN0aFATnjLDNe++B/GWl/ETwbofinQ5muNG1qyh1CzlkjMbPDKgdCVPIOCODQB8xfEz/gnR4d+KHxg8V+Obr4h+MtCj8SyQSahpGg3cdpDP5UMcSpI4Qs6YTOD03tgjJNbfg/8A4Jq/s8+EbuS8PgKPXr2QlpJ9evZ70uTySUdymc5Oduea4rxv+0Z+0B8Q/wBoT4ifC74M+HvBlrH4LezF5rHie4mYutxAJFIRMY53dA2AvvUn/DNf7U3j57eTxj+0dB4at5FU3OneD9FRApx8ypM2xvxIP0FAH1D4b+HHgT4YaeE0Lw1oHhezjH/LlZw2qL+KgVyXjT9rb4MfD2WSDXfiZ4ZsrmJSzWq6jHLMMdtiEtn8K8Nsv+CXHw+1ZjJ4+8ceP/iS5x+717XXMQPXgIA3p1Y9K9Y8E/sM/AX4fpANJ+F+gtJByk+oW/22UHGM75i7Z/GgDzi6/wCCnnwk1ISp4I07xd8R7uNgv2fw7oUxY5/67eX713P7OP7WQ/aC8X+JfD0/gbWvBF/otpb3clrrpVLnbMW2hogMpwARk8g17pp2h6dosKw6dYW1hEowI7aJY1AHsBXzF8HYJB+3z8epnK7G0nR0QAc4EQ5P45oA7v8AbT+JGufCX9mPx34q8N3v9m65Y2im1u/LWQxO0iJuCsCCfmPUEV4doH7D/jn4v+G9H1r4hftI/EDUzf2iXRtfD8iaXCqyor7No3KcZxyuPQDpXo3/AAUk/wCTLfiR/wBesP8A6UR17n8KP+SY+Ef+wPZ/+iEoA+e/DP8AwTD/AGftB1BNRvfCd14m1EAb7jXdUuLnzGAxuZN4Rj06jtXuHgz4C/Dj4dx7PDPgXw9oQ6FrLTIY2POeWC5PPqa7+igCIR4GBwPQcClC7akprUAfFH7OP/KSL9qD/ry0b/0mirpPiJ/ykr+Ef/Yl6p/6MNc3+zj/AMpIv2oP+vLRv/SaKuk+In/KSv4R/wDYl6p/6MNAH1rRRRQAUUUUAFFFFABRRRQAhpjVJTGWgBFpaOlFABTgKAKWgAooooAKKKKACiiigAorI8T+LtD8E6TPqniDWLHQ9Nt0Mkt3qFykESKBkksxAFfJnxK/4KrfBbwXqDWHh99W+IVxFKsU8nh62H2ePd0xNKyK5PQBCcnjsaAPsmjIr57+Ef7enwV+NGqQaPpHi2PS/EUsvkDRdcheyuvN/wCeYDgKzZ4wpPNfQCyK3Q5+lAElLTVp1ABRRRQAUUUUAFFFFABRRRQB8T/td/8AJ9n7JP8A19ax/wCioa1f+Crv/JlPi3/r+07/ANKo6yv2u/8Ak+z9kn/r61j/ANFQ1q/8FXf+TKfFv/X9p3/pVHQBnf8ABUL/AJM5tP8AsNaT/wCh1U0r/lK+P+yXJ/6VLVv/AIKhf8mc2n/Ya0n/ANDqppf/AClgT/slyf8ApStAF2b/AJS2Rf8AZMf/AG9Na3/BMv8A5Ir4v/7HbWP/AEcKyZv+UtkX/ZMf/b01rf8ABMv/AJIr4w/7HbWP/RwoA+cfB/8AyZj+2x/2O2uf+0a+utH/AOUedoP+qaL/AOmyvkXwb/yZj+2z/wBjtrn/ALRr660X/lHraf8AZNF/9NlAHx38SR/xr6/ZM/7G/SP/AG5r60/4KU/8mT/Ej/r3t/8A0pir5N+I/wDyj7/ZO/7G7SP/AG5r6y/4KU/8mT/Ej/r3t/8A0pioA9w+Dv8AySbwX/2BLH/0QlfK2pf8pbtI/wCyZn/0qlr6p+Dv/JJvBf8A2BLH/wBEJXytqX/KW7SP+yZn/wBKpaAPtmiiigAooooAKKKKACiiigAooooA4f4t/BTwT8cvDLaF438PWeu2Od0TTJia3fBHmQyjDxuAT8ykHmvgzxh+xP8AFD9l/wCJ/g34lfCu6uvi14d8GNctp/g7W79kvLKCeJopYrdsbXTa5YAYKlBhXya/SpqTaaAPyx+E/wAeNK+P3/BUTwj4stNL1Hw2V8Ny6Xd6ZrkYguba8jimLwlc8n5hjufQYIHtX/BNf/kn/wAf/wDsoesf+iYq90/aE/Y5+HH7RsQu9e0x9K8UQhTZ+KNHf7NqFuyEsh8wffCschXBAPIwea+SvB+g/F7/AIJr2fiq01Hwv/wtn4S61dyald+ItB3DVbOZoUjaWeF2Od21c8kZDMXGdtAHgPwb/wCUT/xz/wCxjtP/AETptfXv/BSL/lHa3+5ov/ocVfHfwbv7U/8ABLP486atzA99F4gtJWt45AziPy9PUPgc7SUbB6cGvr//AIKRXUH/AA76Wz86MXcq6KI4CwDud8XCr1J+lAFL4lf8nM/sL/8AYL1H/wBILepf21P+T8f2TP8AsIXP/oyGvIfi9+1R8MrP42fsneIbHxNb+ILPwZpt4mtRaKDcywSS2kEUcYUffcuCNqkkYJqT4xfEr4oftTfHn4VfEb4X/Anxl5XgR5biOPxPBHp8V7JI6MBvZwoUBDyGPbp1oA+lPhT/AMpI/jf/ANitpH9K888L3EVr/wAFhvGkk0iRRr4JUl3YAD5LXuaz9D/Zl/aw8ZfGDxV8R7rxj4T+EWq+JLK3sroaTGdTmSKHHloqOu0Hj5m8zk9AK6uy/wCCV/hfxT4im8SfFX4i+LPiN4gu4hHfTNKljFc4xw2wNJsG0YXzMDFAHA/shftNfDD4D6v+0bN448Z6bobXXxF1S8tbd3Ms9zD5jDzIo0BaRSVIBUHJFeXfs1/tLS+Ff2jPjv4v8F/Drxd8TtO8c6gh0iXQtOdYgqyynfM7j92CJBjIyCCDiv0A+Hf7E3wO+FqwHQfhtoYuYfuXl/B9suM+vmTFm/WvarW1gsYVhtoI7eJekcSBVH4CgD82/wBmjwL+2L8P/hrP4U8KeEfCvgiyutWutSfVPF1x5twPPIYhYomcAL0G4ZJ6gV0fgH/gmD4utbrxHc+JPjtrmlp4ivW1DVLHwTC2nrczszszvIztuGZGwuwAZr9CFooA+VfAH/BMX9nzwG0cr+Dm8TXaIqG48Q3T3e7aMAmMkR/kuK+ifCfw78L+A7GGz8NeHNL0C0hXbHDptnHAij0AUD0roqSgBOaUZoyKKAFooooAa1fFvx7/AOUln7N3/YH1j/0RNX2k1fF3x6/5SW/s3f8AYH1j/wBETUAfX+uaBp3ijRb/AEfWLGDU9Kv4Htrqzuow8U0TghkZTwQQSMV+ZH7SPgPxt+xD4D+IPg7REvfFPwG8eafdWVhHNIXm8N6jMMKrMc/umJPJ+/x/y1yZv1JWsvxX4V0jxx4b1HQNf0+DVdG1GBre6s7lN0csbDBUigD5X+Bv/KMfSf8AsQ7r/wBEy1337Av/ACZ38KP+wJF/6E1fJHxCk8W/8E+9J8YeAdVOpeKfgP4xsr618PaoytcXGg300T7baXHJRyTx3+8MHeD9b/sD4/4Y6+E/P/MEj/8AQmoA+gK+Of2Cf+SnftOf9j7L/wCgGvsWvjr9gn/kp37Tn/Y+y/8AoBoA+xqKKKAPkbx9/wApNPhd/wBiPqX/AKNNZHxw/wCUlv7Pf/YB1b/0XLWv4/8A+Umfwu/7EfUv/RpqT9qb9mv4qfEr49/Dz4ifDLxNoXhm78P6ddWEl7qsbzSwGYkb44fLZJPlZhhmXHXmgD6zWuf8UfETwr4Js5brxD4k0nQ7aJd8kuo3scCqvqSzDivk7/hhP4oeO4x/wsv9pzxrqwzkW3hpE0qEeoIUsG/FRXQ+F/8AgmD+z/4fvBf6j4ZvfFWpdZbzxBqc9wZm6lnXcEJP+7QBq+N/+Ck37O3gaRY5/iHa6vMQxEeh28t8DjGRvjUoOvdhnmvGfBfxWuP2oP29Phv418MeB/F2m+EPDui6naXGta3pL21tIZEOxkc5GCWUYJDc9Mc19QQ6T8B/2erF5FtvAngK3iwGkYWloV3erHB5P51H4J/bE+DnxK+IVp4I8KeOtO1/xFdwyzwW9hvkjkWMZcCQLs3BctjPIBIzg0AcX+3X+z144/aA8I+BovAF5pFlr/hvxLBrkba1M8cP7uKQIcpG5JDshK45Gea4mT9k39ov4hXEh8eftM32nadPky6b4O0tLIrkY2pMCrAdeoNeuftcftOH9mHwXoWqWvha48Yazr2rx6Jpul29ytuHuJEdk3OQcAlAOAfvdq8h/wCFkftrfEaEtonwu8EfDOLftDeJtVa9lK4+8BCSBz6rn2wc0AXdM/4JbfCO6mjufGureL/iRqC4P2nxJrkrt9AI9nHsc17J4U/Zf+CHwljF3pXw/wDC2jPEoze3FnE0gA7mSTLfjmvEf+GXv2nfHkiv40/aWfQ7SUDz9P8ACGjJAV45Ec+UYfUg/SpbP/glr8NdWZJfHvivxz8S50Ysh8Qa7IUTP90IFYf99GgD2TxZ+1x8Dvhr51pqnxJ8LafPbgl7G3vopJVwCceXGSQePSvQ/h74/wBC+KfgvSPFnhi+/tLQdWgFxZ3XlvH5iEkZKuAynIIwQDxXz18Qv2Mvgl8L/gn44vfDvw20C01Gy0C/lt9QuLX7TcROLd8MskhLBvQg8Vv/APBPX/kzH4Vf9gs/+jpKAPP/ABt+2J8Wtc+M3jT4e/CH4NW/jCXwndQ2eoavqOtpbRRPIoYM0RC/KRnGHJ+RuOlQP4Q/bd+I3nR6l4z+H3wwsZM7TotnJfXSc8D94GXp3DfhVz9kP/k8H9rT/sM6V/6Ilr7FoA+Lm/4J/wDjbxtHHJ8SP2lPiBr84Yl4dDkXS7ZlOPl8oFx2/wD1V0/hP/gmP+z54ZvFvbjwfN4jvur3Gu6jPc+Ye5ZCwQk/7tfVVFAHy9+1L8FvAHw2/ZD+LaeFfBeg+Hgvhu8IbTtOihb/AFZ5yq5rvv2O/wDk1D4Pf9inpn/pNHVT9tv/AJNG+Lv/AGLV7/6KNW/2O/8Ak1D4Pf8AYp6Z/wCk0dAHi37Mf/J/v7WH/cA/9JGr7Jr42/Zj/wCT/f2sP+4B/wCkjV9k0AFFFFACNXyN8FbuSX/god+0JAz5ji0fRdi+mYgTX1y1fH/wR/5SM/tFf9gbRP8A0SKAOm/4KSf8mW/En/r1h/8ASiOvc/hR/wAkx8I/9gez/wDRCV4Z/wAFJP8Aky34k/8AXrD/AOlEde5fCk4+GPhH/sD2f/ohKAOsopu4UuaAFprVS1LXtM0eEy3+o2tjGvV7iZYwPxJryjxV+2T8DvBtxLBq3xU8LwXMJ2yW8OoxzyofQpGWYH8KAPDP2cf+UkX7UH/Xlo3/AKTRV0nxE/5SV/CP/sS9U/8ARhrzf9iX4iaB8YP24/2i/GnhO+/tTw3qljpLWt55Txb9kQibKOAyndG/DAEgZ6EGvSPiJ/ykr+Ef/Yl6p/6MNAH1rRRRQAUUUUAFFFFABRRRQAUUUUANIo206igAopKMigBaKa0iopLHAHJPYV4N8Zv25fgt8DpHtfEHjW0utYVtn9kaNm+u9xBIDJHnZn1cgcigD3uoLy+ttPt3uLq4jtreMbnlmcIij1JPAr4p/wCGn/2jvj4Vi+DnwYPgrRZh8nij4jyGDj1W2X5vow8wGpbH/gnlrfxSuIr/APaD+MHiP4lPwW0HTpDp2lAjkfu48ZIOfmUIelAHc/FD/gox8Gvh5qR0XStYufiD4nZmji0Twfbm/mkkGcpvX5ARg5G7PB44rz6P4jftfftEFf8AhFfB+j/AjwtcZ26t4mb7XqhjPKukG35Gx1V0GCfvcV9R/DD4F/D74K6b9j8E+EtJ8NxY/eSWVsqyycdXkPzv0/iJ6VyXxa/bE+D3wZkltvEnjfT/AO1Y8f8AEo05jeXpz/0xiDMOh5IA460AeP8Ahr/gml4U13WIfEHxl8ZeJPjN4iUhwdbvHhsonzlvLgRsqpwPlLlcAcVif8FDvAPhv4b/ALPvgXSvC2haf4e02LxvpO21022SCMfO/ZQMn3Nc3pP/AAVksPHnxV8HeG/Bvw/vZtA1rWrfSZda1i78k5lkC/u0iWRQwU79ruCRgYGcj0L/AIKif8kV8F/9jtpX/obUAcx/wUX+Ffhfx144+BWk6ppMAg17xHPY6hPaosNxNCbbdtMgG4gMAw9x61+df7M/xS+LHh3XPC9z4G8fajpWpX0moebb6hdS3NhKlrbCcrJA5ZW3ojrnAYHaVK1+oP7c3/JVv2a/+xum/wDSU1+V37LP/IyeBP8Ae8Rf+mmSgD62+C//AAVo+IVvNBcfEDwXb+KfD9zbzXn2vwzbtb3drFG2x5JEeRo/LVsAszJjcOa+r/g//wAFLfgj8VIZlvvEH/CBX0ILNbeLHitFfBwfLmDmNz0OA2cEcV+T/wAEefh54iHb/hXevf8ApXFWZpeh6bdfB3x/q89lBLqdhF4fFrdugMsAluLhZQjfw7lUA+oFAH9Bnh/xNpHizS4dT0TVLPWNOmGY7uwnWaJxgHhlJB4I/OtMMD0r+dXw/wCJPF3wl+H6eIvBvjjxF4Xe48RNYSWGkX8ltbPstYZlkZUYB2y5X5gRtAHPSvpTwD/wVe+M/wAM/DvhlPFthoXjOwvkmuI7++3wXssSTPFskeEbAVeNgGEfIAzzzQB+y9FfEfgf/grh8E/EFxaWniIa74KvpQqyrqlgZIYpD/CXiLHbyDuIAwwzjnH1z4B+I3hj4peH01zwjr+neJNId2jF7plws8e8feUlTwwyMg8jIoA6OiiigAooooA+J/2u/wDk+v8AZJ/6+tY/9FQ1q/8ABV3/AJMp8W/9f2nf+lUdZX7Xf/J9X7JP/X3rH/oqGtT/AIKvf8mT+Lf+v3Tv/SuOgDP/AOCoX/JnNp/2GtJ/9Dqppf8AylgT/sly/wDpStW/+CoH/JnNp/2GtJ/9Dqppn/KV5P8Asly/+lK0AXZv+UtkX/ZMP/b01rf8Ey/+SK+L/wDsdtY/9HCsmb/lLXD/ANkw/wDb01q/8Ey/+SKeL/8AsdtY/wDRwoA+c/BvH7Gf7bX/AGO2uf8AtGvrnRf+Uetof+qZr/6bK+RvB/8AyZn+21/2O2uf+0a+udH/AOUedr/2TNf/AE20AfHnxIP/ABr6/ZO/7G7SP/bmvrT/AIKVf8mUfEj/AK97f/0pir5J+JP/ACj4/ZM/7G/SP/bmvrb/AIKV/wDJlPxI/wCve3/9KYqAPb/g7/ySbwX/ANgSx/8ARCV8ral/ylu0j/smZ/8ASqWvqn4O/wDJJvBf/YEsf/RCV8ral/ylu0j/ALJmf/SqWgD7ZooooAKKKKACiiigAooooAKK8A/aq/ah1D9nu48G6RoHge78d+KfFt1NZaZp0F2lshkRQ2Gdgeu707HkcV5V9u/bc+K3MVj4D+C+m3AK/wCkOdT1G3H94bfMiY+gIHv7AH2kzBFJJwB1Nee+P/2iPhj8LFz4t8e+H9BcgkQ3d/GsrYxnEedx6joK+bl/4J9+LfHzJP8AFn9oXxz4tcjbJY6PKNLs3Xn5TEpYHg9QAa9F8Af8E8f2fvh1hrH4c6dqdwGD/aNcZ7993HI80so6Z4A5oA4zWv8AgqJ8Kri9l0/wHo3i/wCKOpRtse38MaJK4UkkAkuFyCR1AOe2azJPj9+1l8Vt0Xgf4D6X4EsJV3Rar451MOdpxw1uhV1YgnjBHHPPFfYmkaDpnh+1S20vTrXTbdRhYbSFYkA9goAq/QB+abf8EpfGHxR8WXXij4h+O/Dnhm+1PnUtP8CaJ5MUuWLEbmKKctyxaM7iATnAr3Hwr/wS1+Cel3NtfeJ4de+IWqwIqC88S6tLLlVGAuxCqlR2UggV9eLTqAOH8EfBH4f/AAztxB4U8GaH4eQd9PsI4m/76Az29a7TB9akooAjVadg06igBu00bTTqKAEWloooAKRqiubuCziMlxNHBGOS8jBQPxNeYeMP2pvhJ4HkeHWPiHoFtOgy0EV4s8oHrsj3N+lAHqORTlYV8k3n/BSX4bapaXD+BtD8XfES6hID22h6LKHBPYiUKQfbH0qrcftKftGeO7S3l8A/s+tpMFyAUu/GWoi2MQI6yQfK4x6DmgD7B3CmyTJCpZ2CKOrNwK+Lf+FV/tnfEkI3iD4u+D/htbZ5t/CmlG7kI92mGQfo3evO/wBpL9hu68J/Af4heNvFvxm8f+PtZ0vRbi8htdQ1Dy9PMqgMM2/zApwRszgg9KAP0WDrIoZSGUjII6Gvi/49f8pLf2bv+wPrH/oiavbv2OJ5Lj9lL4RyyyNLI3hfTyzuxJJ8hOSTXiPx6/5SW/s3f9gfWP8A0RNQB9orStSLTqAOb+IPw/0D4peDdV8K+KdMh1fQdUhMF1aTZwynoQRyrA4IYEEEAggiviL4aeNfEX/BOvx3Y/C34jX9xrXwS1adl8K+M7nrpTElvs1yRwqjJJ6AAGRfk3rD+gDVyXxR+GPh74weCNS8J+KdOTUtG1BNskTHDIwOVkRhyjqwDKw5BAIoA6m3uI7iNZI3WRHUMrKchgeQQe4r4+/YJ/5Kd+05/wBj7L/6Aa4r4N/EXxP+wr8TNO+CvxX1KTUvhlq03l+B/G9wuEthnH2G5bogGRjsmeP3ZUR9t+wUpX4nftOAjH/FeSEe4MZIP0oA+xaKKKAPkbx//wApM/hd/wBiPqX/AKNNbH7T37T3j34Y/FrwX8Nfhv4I03xd4n8T2Nxewtql+baKMRHkcAA/KGbll+7gZJrH8f8A/KTP4Xf9iPqX/o01mfG7/lJR8AP+wDqn/oElAEK+Cf22viL5seqfEHwD8MrQk7W0DT3vrnGeh85So44yGz9KF/4J6+KPGUiXPxJ/aI+IXiaZgBNa6XdDTbRxjkeUpYAV9nRripKAPlnwf/wTM/Z58I3Qum8Df27ddXm1y9mu97ZzuKM2zJ/3cV5/4i+G/hT4Yf8ABRb4GaV4Q8OaX4a04+G9Yka10q0S3jLFJOSEAyeepr7mr47+Ln/KS/4Gf9izq/8A6A9AGd/wUy/49PgD/wBlN0v+T19q18Vf8FMv+PP4Af8AZTNL/k9fatABRRRQB57+0N/yQb4i/wDYu6h/6TvXm3/BPX/kzH4V/wDYLP8A6Okr0n9ob/kg3xF/7F3UP/Sd682/4J6/8mY/Cv8A7BZ/9HSUAcL+yH/yeD+1p/2GdK/9ES19i18dfsh/8ng/taf9hnSv/REtfYtABRRVPUNYsNJjaS+vrazjUbi1xKsYA9SSaAPH/wBthS/7JHxcVRknw3egD/tkas/sgZh/ZS+D6upVh4U0wEEcg/Zo688/a9/aL+F918C/iL4VtviH4cm8SXmjXFvBpttqMU1wzsmFARSTk54zXpn7LMXlfsz/AArjBJCeGtPXJ5PFulAHif7NNq8P7e37VUrFSsv9g7QDzxat1HavsOvhK58Q/E74N/tWfGvW/C3wh1nxx/wksmnLZ3COLS0CQ2ygsZmUh8s7DCnI2e4reb4gftteOkD6R8NvAPw8iLcL4g1N7yXHrmFiB+Iz7UAfZ9JI6xKWdlRR1ZjgV8Zr+zv+1l4ymS48S/tG6f4ZR/8AWWHhjQY2VAeoWVwrfic0kP8AwTS07XpDJ47+NXxO8a+YCJra61xo7d89RswxA9t2KAPpzxf8ZPAXgGCSbxJ400DQYoiA7ajqUMG0k4AO5hzmvlT9lvxx4f8AiN+3r8f/ABB4Y1iz13RbvR9HEF9YyiSKXYmxtpHUBlIz7V33hH/gmn+zr4PYPF8PodUkwMtq13Ndg477XcqPwFe5+A/hN4K+FtvLB4O8J6N4Yimx5q6TYx2/mY6btgGfx9aAPJv2/PCWt+OP2R/iFo/h3SbvW9XntIzDYWERlnl2zIzBEHLEKCcAEnHFeQ+FPj5+1Pd+H9H0Pwx+zZFpkFnZ29omp+JdeijXCRKu9ohtbkg8AnHfvX2nrmvab4X0m61XWNQttK0y1QyT3l5MsUUSjuzMQAPrXh/ij9vz9nzwlbyy3fxU0G68td2zTJWvWb2AhVsn2oA8vj8I/tweOA0eo+N/h18O7ZmOJNHsZL24UH2lVkOPrS/8ML/FbxpbqnxB/ah8baguDuh8NxppaHPY7Sc/iKs3H/BUv4T6oJ08F6F42+IM8bKvl6BoEjAkkcZkK4ODnkDpVVv22PjV4wiWXwH+yz4suIWYhZfE12mmEj12Ov8AXHvQBf03/glf8E5Jo7nxO/ijx1frjN3r+uTO7Y9fL2de46V634V/Yx+BfgiSGXSfhZ4Zinh5jnuLBLiVTjGQ8u5v1rxn/hIf24/GbRS2fhf4Z+AbaTrDqd3NeTxg9yYiynHpihf2Z/2pvFlwsvij9ppNIgcMJLPw14fhQLkcBJDsPXHJGaAPr7SdF0vQbYW+mWFrp1v/AM8rSFYl/JQK+WviEc/8FK/hJ/2Jeqf+jGrg/wBie28UeB/2uPjt8O9a8e+JPHNj4fstNMN14iv5Lh2kkTzWcKzFUP73bhccKK7r4gf8pLPhL/2Jeqf+jGoA+uKKKKACiiigAooooAKKKKACikLAd65T4gfFjwZ8KtJbU/GHijSvDdkBkS6ldJFu9lBOWPsATQB1lJXxdq3/AAUktPHmpSaL8B/hp4n+L2qBjEb+G2ay0uJxyRJO4yvHPzBQcjB5qp/wo/8Aao/aE+f4l/E2x+E/hqcnzPDngWPfeNGeQr3LHKsOhKsw46UAfRnxe/ab+F3wKtnk8b+NdK0S4WNpVsWm8y7lA/uQJl27dB3r5yuP28PiJ8aGNl+z98FNa8QxSnbH4p8Vp9g0sKeFlXLAyKOpUOrYHTkV6X8Hf2Afgx8G7qPU7bwqvibxECJJNd8Tv9vuZJecy4YbFckkkoortPir+1V8JPgXD5Hinxnpen3iINmk2b/abwjoAtvEGfHHpigDwFf2O/jb8d3F18dfjXe2OnSnL+Efh+DZ2aqCfkeYgGQEdQysQScMcA17p8G/2PvhB8Blhbwj4G0y0v41K/2pdJ9qvTk5P76TcwGQOAQOBxXyz4g/4Kk6/wDEvUZdE+Anwl1jxffktEuoajEzxxseEcwQE4Xgn97LFwB05xnj9mn9rz9pzE3xP+Jcfw38PXHzHRdIcrIqnjaYrdlHTPEk8oyenFAH138Wf2vfhF8E2e38T+NtOi1NQCNIsGN5fHJwMQRBnHQ8kAcGvlDXf+Cofir4pag+i/AL4Q6t4qvGJQalqUTSxpk4VjFASqjALfvZYzjGetepfCb/AIJc/BL4bGOfVdKuvHN+p3mTxA6tbFsYz9mjCxf99KT79a+r9F8P6V4Z0+Kw0qwtdLsYlwlrZwrDEgA7KoAFAH53j9mH9rb9po+f8VPiYvw/8P3Iy+iaTIQ6KeNvk27IvTP+smlGT0OK9m+E/wDwTA+CHw3SKXVNHuPHV8p3tJ4gkDW271FrGFhzgYyVJx3OTXr3xY/ay+EXwRjl/wCEv8d6Pp91GpY6fFP9ouz7CGPc/wCleDSft/eM/iw32f4EfAvxN4zhY/Jr+vqNM0woejo7ffHsWU0AM/bs0HTfDnij9mHT9I0+10yxh+IdmsdrZwrFGgAHAVQAK0/+Con/ACRXwX/2O2lf+htXO2v7Nvx6+NXxI+H/AIp+OvxE8M6Fp/hrWIdW0/wn4YsVYSzoc486TDAsBtPMgABwAea6L/gqJ/yRXwX/ANjtpX/obUAWf24o9/xS/Zv9vFk3/pKa/LD9mKMR+KPAmPXxF/6aZK/VD9uFtvxS/Zv9/Fk3/pKa/LH9mNw/ifwGR6+Iv/TTJQAnwR/5J74h/wCyd69/6VxVX0b/AJIH8Tv+ufhr/wBKrmrHwR/5J74h/wCyd69/6VxVX0b/AJIH8Tv+ufhr/wBKrmgDnvEX/JC7P/scpv8A0321cr8QP+RH+G//AGC9Q/8AS+6rqvEX/JC7P/scpv8A0321cr8QP+RI+G//AGC9Q/8AS+6oA++/+Ca2gab4p/am+MOn6zp1pq1hL4fthJa30CzRON0HBRgQfxFfSP8AwTL0+20nTfj1p9lBHa2Nl8StTtba3iXakMMaRJHGo7KqqqgDgAAV8/8A/BLX/k7j4uf9gC2/9Dgr6H/4Jt/83D/9lS1f/wBp0AfZlFFFABRRRQB8T/td/wDJ9X7JP/X3rH/oqGtT/gq9/wAmT+Lf+v3Tv/SuOsv9rv8A5Pq/ZJ/6+9Y/9FQ1qf8ABV7/AJMn8W/9funf+lcdAGf/AMFQP+TObT/sNaT/AOh1U0z/AJSvJ/2S5f8A0pWrf/BUD/kzm0/7DWk/+h1U0z/lK8n/AGS5f/SlaALs3/KWuH/smH/t6a1f+CZf/JFPF/8A2O2sf+jhWVN/ylrh/wCyYf8At6a1f+CZf/JFPF//AGO2sf8Ao4UAfOfg/wD5Mz/ba/7HbXP/AGjX1zo//KPO1/7Jmv8A6ba+RvB//Jmf7bX/AGO2uf8AtGvrnR/+Uedr/wBkzX/020AfHXxI/wCUe/7Jn/Y36R/7c19bf8FK/wDkyn4kf9e9v/6UxV8k/Ej/AJR7/smf9jfpH/tzX1t/wUr/AOTKfiR/172//pTFQB7f8Hf+STeC/wDsCWP/AKISvlbUv+Ut2kf9kzP/AKVS19U/B3/kk3gv/sCWP/ohK+VtS/5S3aR/2TM/+lUtAH2zRRRQAUUUUAFFFFABRRRQB8eftj/8nSfsqf8AYx3f/olK+v8AFfIH7Y//ACdJ+yp/2Md3/wCiUr7AoAKKKKACiiigBVp1ZOt+KtE8L2zXGsaxYaVAvJkvblIVH4sRXhXjf/goZ+z34DhZrz4l6VqMinHk6Lvv3/8AIKsB+JoA+i6K+MH/AOCk1v4vkji+GPwW+I3xA88Zt72LSjbWUvXnzjuwOOpFRt8Uf20viRDjw/8ACbwb8NIsked4o1Y3shHbCwnj8UNAH2nVPUtZsNFt3n1C+trGBBuaS5lWNQB3JJr47b9lf9pX4hGceO/2lZtGsbkESab4M0lLbywccJP8rjp1PIzwasWP/BLT4U6lIk/jrW/GXxKvFYsJ/EWvTMecZ/1e09vWgD1Px1+3J8CPh2Zk1f4m6C1xDnzLbT7gXkykDONkW459q8nvP+Cn3g7XZhF8Ofh18QPiYWYotxouiOINwxwWb5h/3zxivcvA/wCyT8GvhvMk/h74aeG7C6Rdoujp6SzY4yPMcFucDvXfap4k8N+DbQtqOq6XodrH/wA/NxHbov5kCgD5Kb49ftefEZni8I/AXRfAtu5/d6j4x1kTAL7xRlHB/A0//hQv7W/xFZJPF3x+0nwVbMoD6b4N0RHxkfNieQK+fxI9hXo3jb/goR+z34Fidr34naRfyLx5Wjl79s5xj9yrD9a8/t/+Clnh7xhdwW/w7+FvxD8dpOdsd/Z6K0doT2y5JIHvigCCz/4Jf+Cday3xG+IXxA+JhbazRa5rsnk7hnkKvzDr3Y4xxivafA37H/wW+HdvaRaL8OtDVrVQIpry3+1SjHffLuOfevKIvjR+1Z4+nuIvD/wR0PwTaqR5V94p1gTeYDn/AJZRlWB+o796dp/wd/aq8asJfFnxm0PwdA2CbLwrpImIGenmSBWz7g4oA+rbOx03RbfbbW1rp8C9oo1iUflgVwXjb9pP4TfDhtviX4ieGdHlO7ENxqUPmtjrhASxxkdB3rwGb/gmvoXjC5eb4h/FH4iePkkBEllfawYrRsnPEajI+m7HtXf+C/8Agnz+z74GgWOy+F2i35Bz5msq2oN+c5agDkNe/wCCovwMtNQfTfDuoa5451UZCWXhzRp53lIH8JYKCPcE15r8Yf2lviv+0/8ACnxT4K8Cfs2+NILDX7KTTpNW8RvHpxhWRcGRI5MCTGf74HvX3ZofhLRPDNusGkaNp+lQqABHZWqRAY/3QK1sGgDzb9m7wTqvw1+APw88K65HHDrGj6FZ2N3HE4dVljiVWAYcHBHUV87/AB6/5SW/s3f9gfWP/RE1faFfF/x6/wCUlv7N3/YH1j/0RNQB9orTqatOoAKRqWigDgvjV8GPDPx7+HupeDvFtgL7Sb1eGXAlt5QPkmiY/ddTyD+ByCRXw9+yRqU/7Cvxz8VfB34mSTQ2njG9hvfDXjSd/wDRNS2oIhHIzE+XIcqpBPDkLwHjLfo9Xzl/wUC8B6B4y/ZM+Ic2s6ZBfz6Lpc+q6dNKPntrqNCVkQ9QcEqR0ZWKkEEigD6MH50teR/sjapea1+y78KL/Ubue/vrnwxp8s91dSNJLK5t0JZmYksSe5r1ygD5G8f/APKTP4Xf9iPqX/o01l/G3/lJZ+z8P+oBq3/oElanj/8A5SZ/C7/sR9S/9Gmsv42/8pLP2fuM/wDFP6sf/HJKAPstaWql5q1lpcJlvLuG0i677iQIvHuTXl/i79rb4L+B5nh1v4oeF7O4RdzQDUo5ZceuxCWP4CgD1vIr48+Ln/KS/wCBn/Ys6v8A+gPVrWP+Co/wFtb57HRtY1nxbqAfZHa6FotxK03uhZVDDn1rzfwB8SPEH7Tf7dPw28dad8LvG3hLwt4d0PUbS61DxNpbW0bNKjbMNkrySBgEnr6ZoA63/gpl/wAefwA/7KZpf8nr7T3j618y/t2fAHxz8evCPgRPh/LpMWveGvEsGup/bE7xQkxRSBDlUfOJGQlcDIzyK42X9n/9rnxpcrNr/wC0TpPhS3YrvsvDHh+NwB32yOFcHt1I4HFAH2Yzqqkk4A6k8Vyvin4s+CfA9vLN4h8XaHokUS73a/1CKHavqdzCvl6P/gm3D4gvFufHfxw+J/jIlmaS1fWTb2z59EAJX8CK6fwj/wAEyf2dfB8nmx+A11aUjBbV72e6B/4Az7R+AoAxP2jv29vgJH8KfF+g2nxH0vV9V1TSruwtYNKWS6DSyQuqAvGpRRkj5iQB3Ndx/wAE+Y2i/Yz+FQdSpOk7sEEcGVyD+RrvtA+Efwk+E1u40jwl4R8KxEiV2hsba2yQMBicDn3Nd9pV7Zalpttc6bPb3WnyxhoJrV1eJ0xwUK8EY9KAPgmHS/2i/gz+018b9W+H3wht/FOn+NNTtZ7bWNV1WG2tYY4ocK23zNz5LuCOCNo9a7NfDf7cXjjzor/xb8Nvh5BJ92XSrOW8uI89gJAyEj3Ndn8Vv+CiHwg+EvjvUvBd9c65rHirT5hbTaZo+kTTuZNgcorEBWIVlJwT1ri1/wCCgni7xZJJB4E/Zq+JGuTZxHLq1qNOgb0PmMGAoAT/AIYd+L3jSJU+IP7UfjG+j37jD4Zt00oYxjaSjHI69sdOOKuWf/BLD4M3fkzeLrvxZ4+vY12/atf16Zm6548spj8KqH4sfto+Obdf7D+DXgzwFuJBm8Ta19rIHb5YXBB+o/CiT4Q/tl+OoYzrfxu8KeBBtIe38M6ELon6vMob8iKAPZPCf7GPwL8FSRS6T8MPDkdxHjbPcWKXEgI6HdIGOeK9itbWGxt47e3iSCCJQkccahVVRwAAOgHpX59ftDfsd+NPCfwX8c+O/E/7Q/xB8Uatoejz38Vlb3f2CxlkiUsoeJCcqeQdpDc9eK+tf2UdTvNa/Zj+FN/qF3Pf31z4X06We6uZGkllc2yEszMSWJPUmgCT4g/tRfCj4V315Y+KfHmjaRqFnj7RZyT754sqGAZFBYZDA8jvXh91/wAFUPgpeSPb+Fo/FXjm/CFxZ6DoM7SHHbEgTr69Kx/gp4R0Lx9+3t+0nD4l0TTdej0Z9Fl05dStI5/sryWn7xk3KcFti5P+yPSvtHTdE07SIVjsLC2soh0S3hWNR+AFAHx0v7dvxO8ZQn/hAP2XvHWoucFZvEbLpcRHqCykN+Bp0nj79tvxwqto/wANfAHw9hYA7fEGpveyj8YWIH4rX2jRQB8Xy/AP9rvxlKJ9e/aG0fwnE5G6w8M6AkqKO+2SQK+fqTVH9jyz8YeBf2tvjR4A8R/EPX/H9to+laXPHc61cOy+bKGkZkiLMkfDhcJgEKK+3Wr49+B3/KRj9on/ALAuif8AolaAOm/4KTbf+GLfiRuAP+jQYz/18R11nwN/Zy+FnhXwN4a1DSfh34bs7+40q1kmvI9Mh82VjErFmcrljkk5J71yX/BSj/ky34kf9e0H/pRHXufwt/5Jl4R/7BFn/wCiEoA6G0sbWxjVLa1htkUYCxRhQB6YAqxk0LTqAG80YNOooA+I/wBnP/lI9+1B/wBemj/+k0ddJ8QP+Ulnwl/7EvVP/RjVzf7Of/KR79qD/r00f/0mjrF/at8UeOPB/wC3h8K7/wCHfhCDxt4m/wCESv4otLub1bSPY0xDyGRuMKOcd+3NAH3qzBetJuFfGbXn7c/iq4jaPTvhX4MtHkAKXElxdTxKTySVLq2B6YzXK/s1/tMfFXxFpPjqz8Xa5Z61q2geLL3RDdRWUcMeIEhDBFUD5N5kKlvmwRk0AffFFFFABRRRQAUUUUAfHH7VvjD4peLP2kvAXwY+H/jpPh5Z69o91ql7rENilxc4iZsopboCBxtKnPOccHV+Hv8AwTX+EvhvU11rxn/avxY8TMuJNT8aXjXgb28o/KQO27cfesb4vXRsf+Ck3wpnUBmi8F6s4U9DgOf6V8v/AAT8RftF/wDBR688QiX4rQ+AfC+liFby00e3kgVmlQsqRrG6yMAByXmweBjrkA/Qj4hftFfBr9m/S00/XPE+h+HBAmIdFsAr3BAwAEtoQXPbotfLXiL/AIKkat8QNVm0L4E/CbW/G2pbjGt9fRP5SHoGMMIYqO/714uB2r0D4Tf8Es/gx8PZFvNetNQ+IGrF/Mkm16fFu7bcfNbxBUk5LH97vOTnPSvqSy03wz8MfDaw2sGleFdBs48COBI7S2hQDoAMKAAKAPgdv2d/2wf2mT53xK+JMXwx8PTncdF0d/LlCkY2mO3Ydsn95PIMnkcYr1j4Sf8ABLj4J/Dxlu9bsLzx/qgbe83iCQGBmx977PGFjJ68uGPJya2viF/wUk+CHgu8XTNG164+IWvyjFvpfhC1a/eZv7qyDEZPsGJ4rj2+PP7VPxsXd4A+E+mfCrQJPnXXfH9yTOYiD8wtlwyMODhlYfnwAfYui6Bovg3SI7LStPsdE0y3TCwWkKQQxqPRVAAFeIfFj9vb4G/B95LbV/HljqGqo/lnTNEBv7jf/dYRZCH/AHyK+NviN4X+HdndSf8ADSX7VmrfEnUIHPn+EvCDlLfG37ksFsGIwTncRH2/HK+G/wC014S0Wb+yv2Vf2XpNY1FQIB4g1O1NxMrYO1pHTeenzESzxnkevAB9C/8ADX3x++NbeR8HfgFfaPps3yJ4j+IUws44mOTu+zggsuMYKs3JIxxXDfEj4a+J5rcX37Tv7WEHhSwl/eHwr4OuE09Bwd0YYDzJlxngxk/pgf4F/to/tFfN47+Itj8LtBuPmOm6O+yVVyCFZLZg2euc3J9MYznvPhz/AMEofhB4XuhqHiy71r4gaqx3TSaldGCKVs7jvWHa0gJ5IkZ89+OKAPmrw78e/wBlX4I6rHpvwW+CWpfEzxchD22oatbvJJ5hXGVEwknUbef3cAHze5r1KPxL+3D+0V5S6NoenfBPw1KN0ctxGttOsZ4APmCWYnB3Y8qE9Bkc193+BfhZ4O+F+mrYeEfC+k+G7Nc4i0yzjgHPUkqASfc1sa74i0nwvp8l/rOp2elWUa7nub24SGNQO5ZiABQB+VnxO/ZE8SfAX4vfAbxV40+Jd98Q/EmseOLGzla6SQxQKrJJlHlkd9xZeduxcYG0Yr6i/wCCon/JFfBf/Y7aV/6G1eY/taftH/Dj41fGj9nzwx4C8U2vi7VtM8c2d5dppKvPGkRIXcJFGxsck7ScAEnA5r0z/gqI6/8ACk/BhyMDxtpWT6fO9AFj9ub/AJKp+zZ/2Ns//pKa/K/9lv8A5GTwJ9fEX/ppkr9Gv+Cgnxs8CeG/iV8Cri98U6cV0HxFNf6pHay/aZbSA2+0O8cW5wCxAHGSelfnF+zT4f8AH+o6h4Yu/Bvw81zxjJYS6pG32S3dbZ/tNqbbIuNvljZuZiCecAcckAE/wSYL8PfEOf8Aonevf+lcVQaOQPgH8TQTyY/DeB/29XNfSPwZ/wCCZPx8v9JittU1PQ/h/pVxplxpdyl5J9tu5LWeRZJI2ijG0EkdRKCMYB719JfDf/gkT8NfD8UcvjPxLr/jG72IJYYZ/wCzrViOeFi/eYznAMhxn15oA/KvxD4g05vhLb6R9rjGox+JpdQNu2Q32c2UEYkGeCCyMOOeK6aX9nn4q/EL4d6Vf6d8O/EEOkeF9JupLrVLy0+y2zxtPNcM6NOULBUl52hjlTjjmv3S+G/7Nfwq+D+G8H+AtC0O42qpuoLNDcMB03SsC5/E+tH7SxB/Z5+JYXj/AIpvUMe3+jvQB+Xf7Fvi34g/s3+Kr/4x+JfhL4p8Q+EfGmkRQx33hmBLoRIrptl2K5OCEOQ20g17h/wTt/ai+F/h24+L1n4i8Yaf4X1LxH48vtasLHW5PssjQT7AgYt8gfcGUpuyCp7YJ+o/2DVH/DHnwmJ/6AUQ/Vq7j4j/ALPfw0+LkOzxf4J0TXHAO2e6sozKmepWTG4H6GgDvNN1Wy1qzju9Pu4L61kGUmtpFkRh7EHBq1Xxlff8Ey/CnhO8/tD4ReP/ABp8JdQBaRV0nVHuLR3wADJFIdz8ADG/p17VWbSf20/gvte01nwf8ctGgBZ4r2H+zNSlGDhVIKxg9OSW/rQB9rUV8W2v/BSL/hAZIrT42fB/xp8LrjOJdRFob/TAc4XE6hSc8cKrYJxnvXvXwv8A2rvhH8ZIoj4S8faLqdxIgcWTXAgulB6Zhk2uD9RQB8//ALXf/J9X7JP/AF96x/6KhrU/4Kvf8mT+Lf8Ar907/wBK46yv2uWDft1fskkHIN1rGD/2yhrV/wCCr3/Jk/i3/r907/0rjoAz/wDgqB/yZzaf9hrSf/Q6qaZ/yleT/sly/wDpStW/+CoH/JnNp/2GtJ/9Dqppn/KV5P8Asly/+lK0AXZv+UtcP/ZMP/b01q/8Ey/+SKeL/wDsdtY/9HCsqb/lLXD/ANkw/wDb01q/8Ey/+SKeL/8AsdtY/wDRwoA+c/B//Jmf7bX/AGO2uf8AtGvrnR/+Uedr/wBkzX/0218jeD/+TM/22v8Asdtc/wDaNfXOj/8AKPO1/wCyZr/6baAPjr4kf8o9/wBkz/sb9I/9ua+tv+Clf/JlPxI/697f/wBKYq+SfiR/yj3/AGTP+xv0j/25r62/4KV/8mU/Ej/r3t//AEpioA9v+Dv/ACSbwX/2BLH/ANEJXytqX/KW7SP+yZn/ANKpa+qfg7/ySbwX/wBgSx/9EJXytqX/AClu0j/smZ/9KpaAPtmiiigAooooAKKKKACiiigD48/bH/5Ok/ZU/wCxju//AESlfV3iPxLpPg/RLzWNc1K00fSbOIzXN7fTLFDCg6szsQAPrXyj+2P/AMnSfsqf9jHd/wDolK6X/gpUob9in4lZGf8AR7c/+TMVAB40/wCCk37PPgqQQv4/g1y6LbVg0G1mvSx9A6Ls/wDHq4yT/goR4n8a+bD8L/2d/iB4qn3DybnV7caXaOp/i81g/HfnH4V7D8G/Cfwt+FPwn8L6gNK8K+FGm0m0urq7eG3tWkkaFC0kjkAliSSWJyayPHH/AAUC/Z9+Hscn9ofEvSLyWNihg0cvfvkHBGIVbH44oA80/wCEq/bd+IkkMmneEfh78L9Pk2h01i7kv7tAT8zDyyynA/hKj6+jV/Yx+Ofj5WX4jftPeIWtpNrNZ+EbGPTNpByQJUwSO33R75qaT/gpt4c8TXQg+Hfwq+I/xDV8CK903RTFaOSOnmMcjtyVxzUEPx1/bA+I0Mi+GPgNoHgVGKmK98W60JwFJ5zHGUbOPbjI60AbGh/8Eu/gfbXkF/4ltfEHj3VItub3xJrU0rSYOfmVCikdcgjHJ4r3Hwb+zt8KPhgHn8O/D/wzoL7RvuoNNhSQgZxukK7jjJ6nvXz0fgf+2D8Q44H8T/HXw94Di582y8IaKJiRn/nrIFYHHoePQ06H/gmXoXiKaST4ifFr4j/EFZdxltL/AFporVixycRqCQPYNj26UAfQXjT9or4V/DVdniH4g+G9EKnHkzalErg46bA2c+2K8R1r/gqN8CbC+k0/Q9W1rxtqSnC2fh/Rp5mkP+wXVVb6g4rsPBf/AATz/Z68CxbLL4ZaTqDZyZNa36gxOMf8t2bH0HHtXueg+DtB8LW6waNoun6TAowsdlbJCoH0UCgD5D/4bl+L3juMH4b/ALL3jC/iOR9q8UXCaUueMYV1IYf8Cp7r+3D8Qp33f8K4+GOnTZC7RLf3kAxwc/OjH8h7V9o0UAfFi/sPfF7x1GV+I/7UHjC+jLbjb+FoE0pfu4KkocEcn+HHTjNbfh//AIJc/AuwvLa/8QadrfjnVYVUNe+I9ZnmaUjuyoVUjnpjHtX1xRQB5p4J/Zr+FHw3fzPDPw68NaNPgA3FvpkQlbHTMhXcfxNeixRRwoEjURoOiqMAU6RgvU4FcZ4s+M3gHwLC0viLxpoGiRqMk32pQxfoWoA7VQKGWvmLxd/wUo/Z28GMEm+Idvq0xOPL0a0nvB9d6IV/8erkR/wUki8UXLW/gD4HfE3xlvLLb3i6P9ntZSASDvJbA+oFAH2WoxTq+L/+F5ftg+PoZI/DnwE8P+BmYKY7vxVrwuVUHrlItjE8dMDGR1ob4S/tm+P4UOu/GTwj8PhkhofDGim7OD/tTAH8jn3oA+z65jxT8UfB3ge1e58ReK9F0OBFZmfUL+KAAKCSfmYdMH8q+V5P+Cdut+L2hm8f/tD/ABM8Sy4QT29lfixtZdpyR5Q3gA8j1561xX7R3/BPH4H/AAf/AGd/iZ4u0bwzdXXiaw0W6u7fUtT1O4uJEmxuEm0vt3A9yuaAPvnTdUs9c0611DTrqG+sbqNZoLm3cPHKjDKsrDggjuK+OPj1/wApLf2bv+wPrH/oiavbP2Mwv/DJvwg2j/mVdOzx/wBO6f1rxP49f8pLf2bv+wPrH/oiagD7RWnU1adQAUUUUAFeI/tuf8mi/F3/ALFu9/8ARZr26vEf23P+TRfi7/2Ld7/6LNAFn9jP/k034Qf9irp3/pOley141+xn/wAmm/CD/sVdO/8ASdK9loA+RvH/APyk0+Fv/Yj6l/6NNdN+0v8AsY237RnxC8LeLk8feIfA2paFZy2Uc3h5linZJHDErN96M9QcdQceueZ8ff8AKTT4Xf8AYj6l/wCjTVP9rX4pfFv/AIaE+HPwh+F/ifTfB8virS7y7l1a809bp4nhJORuyANqnseevFADLP8A4JZfCC+jjbxjqnjL4g3SMW+0+INfmZuT/wBM9mK9I0H9ij9nn4e28Bi+GnhaMQgbLjVoEuXGOjb5ixzx1zmvMF/Yn+M3i6KaLx3+1P4uu4ZGV/L8N2Uel4OORlGPH0AHtU9r/wAEtfhNqCofF+t+NPH0ytvMuva/KxLev7vbQB7Dqvx7+AvwlZba68aeB/DcmDi3hvLaN+P9lDn9Kz/hv+3B8Gfi98RrfwN4P8XprviCeGSaKO3tJhE6ou5gJGQLkDJxnsap+Ff2Bf2ffCNrFBafC3QbxYxgNqkH25j/ALzTFifxryfxt4T0Pwb/AMFGvgXYaDo9hotkvhvVgLfT7ZIE4R8cKAKAPbP2rf2nIP2YfCGgar/wjN54s1LXtWj0bT9Ms5khaSd0dlBZs4B2beATlhxXjsfx2/bE8axvHof7P3h/wa+BsuvEuvrcIM+qRlGOPTjrUX/BTD/j3/Z//wCymaZ/KSvtagD4xX4c/tseOIdur/FPwJ8P1L/8y7pLXkgX/tupH4Z/Ghf2DfiP4ut4/wDhPv2n/H2pyhmLJ4eKaXGQe2FLdvXivs6igD4Q+J//AATR+Dvhf4V+K/EWqv4l8X67pGh3l1bX+va1NM3nRws6OyqVU/MoyuNp7ivZf+Cev/JmPwq/7BZ/9HSV6P8AtEf8kF+Iv/Yvah/6TvXm/wDwT1/5Mx+Ff/YLP/o6SgDz79kWCOb9sH9rItGrsutaXgsASP3E2f6V9lbB7/nXxz+x/wD8ng/ta/8AYZ0v/wBETV9kUAJtA6AUtFFAHif7bH/JpPxcP/UtX3/opqsfsf8A/Jqfwg/7FPTP/SaOq37bX/Jo/wAXf+xavv8A0U1Wv2P/APk1L4P/APYp6Z/6TR0AeMfsyn/jP79qweg0D/0kavslfuivjT9mP/lIB+1f/wBwH/0kavstfuigBaKKKAEavj34Hf8AKRj9on/sC6J/6JWvsJq+Pfgd/wApGP2if+wLon/olaAOl/4KUf8AJlvxI/69oP8A0ojr3P4W/wDJMvCP/YIs/wD0QleG/wDBScZ/Yt+JH/XtB/6UR17l8LPm+GPhDHfR7P8A9EJQB1K06qt3qVppq77u6htV/vTSBB+prhPFH7Rnwr8F7v7d+IvhfS2U4KXOrQKw/DdmgD0WivmvxV/wUc/Z18JqfP8AiVYag4/g0m3nvM/QxIR+tcbcf8FSPhfqUaHwf4Y8eePnbOF0Hw+7d8f8tGXjr09KAMn9nP8A5SPftQf9emj/APpNHXQ/EQn/AIeWfCP/ALEzU/8A0Ya4/wDYnk8S/ED9qj44/FXUPAviPwX4f8T2mmrYx+I7FraUvFGI2XBGGP7vd8uQAwzzXYfET/lJZ8I/+xL1P/0YaAPruvzE/Zp/5Cnxu/7KZrf/AKFFX6dV+Yv7NP8AyFPjd/2UzW//AEKKgD9O6KKKACiiigAopKMigD4t+Nh2/wDBRv4Xk9P+EH1n/wBAlr4t/wCCcH7Uun/s/wCi+M9Pg8G+JvHviHXJrI2emeGLQXDBUiKkytn92Nxx0J9sc19tfFy6Fn/wUp+E9wU8xYfBmruU/vYWQ4r5s+Dfx4/aN/a1k1vTfglpHgv4TeGrJ0e8l0+BIpIfOBkUGVo33ufmJ2xL9RnIAPcdd+JH7W/xK0039zZ+Cv2bvCjBvN1DxFereahCmCd43fu/wZU7/Svmj4hal+zXo90t/wDFj4xeNf2lPEUZVhZafdPFpYl7+W29YkGMkqsp4HTJ5+gtC/4JVjxnqcGsfGv4seI/iHqSyFzBDK8cXJBIEkrSOuW/55+WMADAxX0/8L/2SfhD8HZYbjwt4D0m01GJSq6ncw/arzB65nl3P6d+woA+Gvh78ZPjD4gs20/9mr9mPS/hzolw25Nb1DT1Rnz8od5JfJUkDBLAy9ABu7drH+wH8c/jhJ9o+OHxyvjZTf63Q9BdpY8f3TxFBg+hhf0yeSfubxx8T/B/wz01r/xZ4o0jw3Zrj97ql7Hbr6ADcRk+wr5s8W/8FOPhTZ6jLpHgSw8SfFjXEbYbPwjpUk6g4JDF2CgrwBlN3X2NAG78L/8Agm/8BvhnHE58Hr4qvk/5evEsn2wbs5LCEgQoSeflQfoK+lLOxs9DsVt7S3t9Ps4l+WKCNY40A9AOAK+NZPi3+1/8XFP/AAi3wy8N/CLRi3Op+Mr77TceXkjcIkHytjnDIR2968b+I/gjwhp0zr+0Z+1/qviq4hYed4W8KTfZ0ZTj929tbB2YHHXYvGenJoA+1fil+2B8Gvg2J18VfELRbS8hXc2n29wLq7wen7mLc/PuK8Qk/wCCiGsfEaSS1+CnwQ8Z/EJif3Oq30A07TZBxlhM2eOejbScfjXzN4J/aH/Z28Bamum/AH9m7UfiJ4ghbMGp6jbNcyZI++Di4nTkEAFEHHYc17Eurft1/HBfK03RtB+C2hv91pliS4RfQZ89zj08uM9vegDrNY8N/tgfE60muvFHxE8GfAbQT8+zSIReXiLz8sjyHaD05VweO3fwrxZ4X/ZA8CX7al8Uvi/4k+PGvxyeayHU57+KN1PIxb/Ii5/heTB5HIyK9S0//glVf+PryPUfjP8AGXxH44ug+9rW2YiH/aANw0uM5IzGseB0wea+hPhn+wX8C/hTJDPpXgHT9Qv4mDpfa5u1CZGAwChmLbPooAoA+M/DP/BRDwD4HmsNN+EPwDTwtoF/NJaLrskUFsTN5ZIKeUjpI64yVaXOB78dJ+z/APsta9+3R8HfCvxG+Mvxh8Wa/Y6hLJcQ+HbHyLS1iMUrREsAm0sTGxDKisofAOcsey/4KmWdvp/h74OQWsEdtAniOcLFCgVVH2OToBXkf7K37SHxU8M/C34T/BP4TeFfD2r+Jb3wzN4g/tTxBeyRwxRvf3QYGNQMhNq5+fJ3cDigD7V+GH7CXwK+EZtpdD+Hmlz31u29L/VlN9cBv7waUtg/QCvX/EHijw78PfD91qOs6np/h7RdPiEk9zdypbwW6E7QWJICgngep4FfmDa/H340ftBTeHvAPifx7c+EtQuviTeeENTv/BqizbyY7UF0RvvECTftYkEggnnp5f8AtNfCW0+At7+0Z4T0rXNb1yGDw94bun1HXLz7RdzTPqMDM7OAO5OOOM0Afo/pP/BQP4H+JfiHYeCtA8Wt4h1q9doom0yymkt94jZ9vnFQhyEbGCelfO/ir/go58X/ABZ8Kdd+Ivw1+Csdl4B0+B5f+Eo8S6ijqQrhG2wRspYhjtwrNg5BIxW1+0H4D8N/D/4sfsp2PhnQNN8P2bXl+zQ6baRwKx+wDlgoGTyeT6n1rzX4Wf8AKFfxD/166j/6cWoA7SG7+K37Xn7SXjXwQPi1q/w78H6Joej6jJYeGoEjlmN3ZxSuqzcOpDs5yS3BUADBJpfssx32nfso/tYaJeazqWuJomua/psN3qly887pFZqm5mYn5m27jjAyTwK6v9i//k8r4x/9ih4W/wDTfDXOfs4/8m8/to/9jd4n/wDSegD379kfVLjRP2BvAmo2jBLqz8JvcQsQCA6I7KcHryBXzr+zL8SP2xvHnwW8NfETw9rfhH4j6RqbT+ZpHiKIWd+vkzNCypLEqIdxjYgscjPIJr6E/ZVt5bz/AIJ8+DYII3mnl8HypHHGpZnYxyAAAdSTXz5/wT1/bK+Efwh/Z98L/DDxx4p/4RHxhpMl6bq11iznt44/Mu5ZVBlZNgO2ReCQaAPTV/4KAeMPhuscfxj/AGffGnhAbsS6noaLqljGgxmRpF2hQM5IBY4HGTxXqnw3/by+A/xTEKaP8R9JtbuVti2esObCYt6BZgu7/gOa9a8H/ETwr8QtPS98NeItK8RWMq5SfTbyO4Rx3wUJrjviV+yv8I/i6rnxZ8PtC1S4dChu/saxXIB9JkCuPwagD0pWsNesDtNvqNlMMHBWWNx+oNeE/FD9gv4EfFmSWbWvh7plrfTSGV77SVNhMzkEZZoSu7r0bI6V5nef8E0dC8HyPd/CD4neOPhVdgF4rWx1Nrqw8znDPC5DOOeQX5x2PNTwaF+2R8LZII49d8FfF7RrdSzyX8DafqM55wqhdsanpyWPf6kA8Q8S/sz2P7OP7b/7OGn6V4w8TeJNK1K+1Ga2s/Ed59qXTVihGY7c4G1W80ZGM/u1yTXun/BV7/kyfxb/ANfunf8ApXHXlPiD4teLPiX+2B+z5a/ED4a33w68Q6XfX3krcXAube+WSIbmhkUDO0RjcO29fbPsH/BUy6gs/wBjLxXLcWwu41vLD90xwCftUeP1oAxf+CoH/JnNp/2GtJ/9Dqppn/KV5P8Asly/+lK1b/4Kgf8AJnNp/wBhrSf/AEOqmmf8pXk/7Jcv/pStAF2b/lLXD/2TD/29Nav/AATL/wCSKeL/APsdtY/9HCsqb/lLXD/2TD/29Nav/BMv/kini/8A7HbWP/RwoA+c/B//ACZn+21/2O2uf+0a+udH/wCUedr/ANkzX/0218jeD/8AkzP9tr/sdtc/9o19c6P/AMo87X/sma/+m2gD46+JH/KPf9kz/sb9I/8Abmvrb/gpX/yZT8SP+ve3/wDSmKvkn4kf8o9/2TP+xv0j/wBua+tv+Clf/JlPxI/697f/ANKYqAPb/g7/AMkm8F/9gSx/9EJXytqX/KW7SP8AsmZ/9Kpa+qfg7/ySbwX/ANgSx/8ARCV8ral/ylu0j/smZ/8ASqWgD7ZooooAKKKKACiiigAooooA+PP2x/8Ak6T9lT/sY7v/ANEpX0P8bvg/o/x6+FuveBNeuLq00vV4ljlnsWVZo9rq6su4FcgqOoI9q+eP2x/+TpP2VP8AsY7v/wBEpX2CtAHyJ4d/4JX/AAG0uS0n1rTNa8ZXtuioLjXdXmfeB0BSMouP9kDHtXuPgr9mb4TfDmbz/DXw58NaPcY2m4ttMiEpHu5Xcfzr0a5vILOFpbiaOCJRlnlYKoHuTXm3jL9qD4RfD6cweIviT4Y0q5AybefVIfN/74DFv0oA9Lhhjt41jijWJFGAqKAB+FPr5K1z/gqR8ANOu5LLStf1TxXqCg7bXQ9HuJi5HZWZVVvqCR71hL+39488bRyL8O/2ZviDrMy7GWTX410uEqx67yHHT0J7ZxmgD7SyKNw9a+MW8d/ts+PLNG0n4c+AfhzvZgf7e1R72VRnAP7kkA984OeOBSyfs3/tU+Np0l8TftJWvhu3fb5tj4V0BFx6hZWKMD78j2oA+y5Jo4Y2eR1RFGSzHAArgfGH7Qnwx+H6k+JPiB4b0UjHyXmqQo/PopbJ/KvnOH/gmT4Y166afx78VPiT8QUfdvs9V1wrbtnqdqruH0DY9q7rwf8A8E6/2d/BMY+zfDPTNQbu+sSS3xJ9cTMwH4CgDI8Tf8FO/wBnjw7fNZReM5tevAdoh0XTLi53f7rhAh/Bq523/wCChuueNI7lfh/+z38RtflELSW0+qWQsLacggAeZ84AOeD19utfUHh34e+DPAtmsWh+GdF0G2hGVWysYrdVHrworI8YftAfDb4f7B4k8d+HdDZ+ES+1OGNnPoqlsk+woA+drb4tftkeP9v9k/B3wl8PYPNwZfEWs/bX8vA/hiYc9ecdvu1f1j4H/tU/EKxiGp/HTSfArkYlg8OaKs456/O+1s+4I610PjH/AIKOfAXwXcG3n8atqk/HyaPp9xdA5OAA6ptyT2zXHf8ADyCPxFdm28D/AAO+KHi3cxSO7XR/s9s/GQd5Y7R/vAUAaNr/AME9Itejx4++MfxC8bK5zLbzamLeB/UbVBIH0Ird8G/8E0/2dPBchli+Htvq87DDSa1dzXgP/AHcoPwWuLh/aB/a58cGSLw7+ztpPhRGjYx33ibX0kRW/hzGpRvwx+Ip/wDwr79tnx1byR6v8S/AHw8RtpDeHtLkvJR6j98pA9Op69qAPpzwf8F/h/8AD+1W38M+CfD+gwrzt0/TYYfxJVRk10epa9pPh+Hdf6hZ6dCozm4mSJcD6kV8gf8ADBvxH8YwKvj/APae8e6s2/e0fh/bpUXTptUtx+nsK0NN/wCCV/wNLQzeI4fEnjW/T715ruuzvJIfU+WUH6UAeq+Kv21PgV4NadNT+KnhlZoP9ZDbaglxIPbZGWJPsBXlGpf8FUPgjIZYvDH/AAlHjq9QgC00DQZ2kfPTHmhB+Zr13wr+xt8EPBbRPpPwu8MxTRrtWabTo5pPrucE5969X03QdN0WMR6fp9rYoOAttAsY/QCgD4/H7dXxR8Ywj/hAf2XvHOouz7RJ4kkTSo8Y65ZW9fXHvXMfEm2/bH/aO8A6v4Uuvh74D8BeHtes5LK+i1PVpJ7tY3wDseIsEbGeSjdelfetFAHA/Af4e3nwn+C3gjwZf3MN7e6Do9rps1xbg+XI8UaoWXIBwSO9fNXx6/5SW/s3f9gfWP8A0RNX2nXxb8fP+Ul37N3/AGB9Y/8ARE1AH2gtOpq06gAooooAK8R/bc/5NF+Lv/Yt3v8A6LNe3V4j+25/yaL8Xf8AsW73/wBFmgCz+xn/AMmm/CD/ALFXTv8A0nSvZa8a/Yz/AOTTfhB/2Kunf+k6V7LQB8jePv8AlJp8Lv8AsR9S/wDRprK+N3/KSz9n3/sAat/6LkrV8ff8pNPhd/2I+pf+jTWV8bv+Uln7Pv8A2ANW/wDRclAH2XS7TQtOoAbtNfHnxa/5SV/A3/sW9X/9AevsWvjr4tf8pK/gb/2Ler/+gPQBn/8ABS//AI9/2f8A/spemfykr7Vr4q/4KX/8e/7P/wD2UvTP5SV9q0AFFFMlmjgQvI6xoOrMcCgDz/8AaI/5IL8Rf+xe1D/0nevN/wDgnr/yZj8K/wDsFn/0dJXR/tK/E3wfpvwS8d2d34q0W2u7vRL23t7ebUIlkmlaBwqKpbLMSQABzk1zn/BPb5f2MfhX7aWf/RslAHBfsf8A/J4P7Wv/AGGdL/8ARE1fZFfmv4J/ag8L/s0/tc/tO/8ACRaZr2r32ravYNZWGg6e11NJ5cDbsjIC58xcFiAefSvXIf8AgoP4n8UNJH4Q/Zs+KGpy7d0banp62SMPqSw/ImgD7Mor4xs/2h/2tvFk6R6Z+zfpPhqKRNy3GveJo3VfYhNrA/8AAaZb6d+3P4olQXesfCvwfasx3Nawz3M8Y7fKwZWP/AhQB7J+21/yaP8AF3/sWr3/ANFGrX7H/wDyaj8H/wDsU9M/9Jo6+fvEX7GX7RPxR0XUNE8d/tMtN4f1NGgv9L0vw5CiywsCGjD5U4wccg5719c/C3wDa/Cv4a+FvBtjczXtnoGmW+mQ3FwAJJVhjWMM2OMkLnigD5O/Z88Q6V4d/b3/AGr7jVtTs9Mg/wCJCfMvJ0iXi0bPLEeor3vXf2wvgh4YkaLUfit4ThlQZaOPVYpWH4ISa5X4i/sBfBD4sfEXU/G3izwrPq+uajIstwZNUukhZ1jSMMIkkCj5Y0B45xW9oX7FvwI8ONE1j8J/CoeMYV7jTknb85AxNAHnOtf8FSv2c9JuhbQeM7rV7gtt2adpF3KCScABvLCn8CaxJP8AgpjpOrTFPCXwV+KniyMttS6tdB2QP7hixI/FRX1Xpvgvwr4Ut1+waDpGkQR9Ps9pFCq/kBis7xF8ZvAHg2Eya3418O6PEozm81SCID/vphQB8yXf7XX7RniBmPhL9lPVhbn7k+v65DaMfrGyr/6FWx+yn8LPiza/tAfE74q/E/w7pPhabxVYWFrBp2m6gLrY0AK8nt8oXv1Jrt9d/b4/Z98P28s1x8VvD9wsfVbCc3TH6LEGJ/Ctn4EftdfDH9pTVNWsPAGt3Grz6XDHcXJm0+e2UI7MqlTKi7uVYcelAGx+0n8Gf+Ggvgn4o8ADVf7EbWYUiW/8jzhCyyK4JTcu4fLjGR16188Wf/BPfxjqekadZeJv2l/iNdLZwJbrDoc66dCqKAoVVBbjA75r6P8A2gvjNZfs+/CLxB491HTrjVrTSI0drO1dUkk3SKgALcDls/hXzfZ/taftL+MrWC58KfsuypY3SrJb32seJIIg8bAFXMZCkDBzwxoA0Lb/AIJY/B28gVfFGo+MvG04bebjXNflZmP0jCD9O9dz4Y/4J4/s8eE4PKtPhfpN0ud27U2kvW/76mZjXn95rH7c/iWeQ2Ph/wCFfhG2ZflS9uri5kU/7yFgf++adP8AA39sLxYLd9U/aC8PeFcZ8yHQfDkcw5x/FIoJxj1HWgD6R8L/AAJ+G/gmMJoHgHw3o6gYH2LSoIv1CV14jsdLhyEtrOFfZUUV8ff8MH/EjxJbIvjH9qD4g6jIH3t/Yrrp0ZP+6rNx7ZxVu1/4Jf8Aw0vI5R4p8VePPGssgw0ms6+5z7YjVc/jQB9YWeuabq8kkdhqFrevFgyJbzLIUz0yAeM4P5V8L/taeOPF3w9/bu+Fer+CPA8vxC8QjwlfxQ6JFeLaF1aYhnMjKQAoyelV/wBiH4Z+H/g3+2/+0P4L8K2R0/w/pGn6THaW7SNKyh41lbLsSzHfIxySeuOgAHpPxE/5SWfCP/sS9U/9GNQB237Iv7SHiP8AaEtvHcXirwhB4L1nwtrP9kXGmw3puijiMOyu+0AspO07eMjivkf9mn/kKfG7/spmt/8AoUVe/fsItu+Jf7Tx/wCqh3P/AKAK8B/Zp/5Cnxu/7KZrf/oUVAH6dUbhSNX5/r4X+JX7YX7RHxr8IX/xl8ReCfA3gzVYLGLR/DUUVtLPHJHuUeeoDcFHLb9+7eAMAYoA+vfid+0V8M/g1CX8aeONF0CTazLbXV2v2hwOu2IEu3UdB3r50vP+CkVv48vDp3wS+FPjD4q3T5WLUUtDYabuyeGmkGVxj+JR16155qHhv9hv9knVpY9bn03xZ4ytrjbcLqRk17UPtI5JeMApFJuBJyq4Y+uK7Wx/bM+KXxGWCx+CH7OWsPpW7y01jxayaTZRruADrHxvTBJ+VgeOAelAHI/Cv9vj9oj4hWWr6rY/s82virSNL1KTTLz+w9ZEU9rPGR5kRR9xkYAjlRg+td4P+CmWi+Gbh4fiF8IPiV4BWIN515faMZbVNvX94CCQOeQuOKyv+CTr6tJ8K/ii2uLCmrHx7qBult/9WsvlQeYE/wBnfvxntX3BJGssbI6h0YYZWGQR6GgD85bD9o3wD+0r+3v8O9b8AaxJq1lZeD9YtrrzrSW3eKUwuwUrIozwRyMjrzXhf/BNL9qz4cfsz+F/Hf8AwnmsT2Fxqs2nmws7WzluJrjbAwYqEUgAHjJIGeK+wPiXpmlaJ/wUs+FU9vp1tbiTwZq0l19ngRTNgSfewBuOOOfWvmr4S/H3XPHmrapF+yx+y/4V0VoJIxPrl8kM1xbrIC6GQlolTPzYUSPgdB2oA+kG/bZ+L3xUfZ8Hf2dvEF5YyN5a654zlXS7demJBGT868k8PnA6Z4HB/ESH4yXkEcvx1/ai8J/BrTJ8rJoXg1ljupEwCVSZ2Eobntv/ABqw37I/7V/xvcP8UfjqnhLTGfLaT4V3/d6EfufIA46BmkHc56V3vw5/4JS/BHwZMLrXINY8daiz+ZLNrd6VjkOc/NFCEVxnJ+fcSTyTQB8enxp+yB4F8QqbHwx45/aM8bMzRfatekkfz3PIBik2GTjONsT4AyTyCfb/AAv8Sv2sPHmlw6b8JPgZ4d+DHh0oUhutQtFgCr6gSiNh7f6O2c9up+8vAvwp8GfDGxWy8I+FdH8N2y5xHpdjHB16klQCfqaTxx8WPBXwzsWvfFvizRvDlspwZNSvo4eewwzAk+woA+I1/wCCd3xg+MsxuPjb8fdWvrWZf32i6GWMI9Fy2yEj1/cc+3Ir2H4a/wDBND4CfDmOMv4TPiq6UDdP4jnN0rt3YwALCD/uoKo+Kv8Agp38GNM1CbS/Cb698S9cjOF0/wAKaVLcF+QMq7BVYfMOQT+fFYy/tKftQ/FQhfh/+z/D4PsJkDw6v471HyyAQCN1su1wfbnpzg8UAfXvh/wvpHhWxjstF0qz0izjUKlvY26QRqB0AVQMCqXi/wCIXhj4f6e994m8Q6XoFlGMtPqV5HAgA6nLkV8QePPh/wDGG8sftXx0/ax0P4aaRLxcaV4VEViRnPypcOySZ9sNmvD9R1b9hf4W6kb/AFfUPE/xx8TIebzVJZ7lbkjH8chhgcDp1I6g0AfYnjT/AIKa/AjwteyabpPiC+8cayVJh0/wrYSXjztgnakmBGTwf4uO/Fcyv7W37QnxTZF+GX7OOoaVp84Kx6z48vRZCNssMtb/ACtt4HIY5z6c15P4Q/a08eX1r/Zv7PH7JbaLYZxFe39j9mjB/vkKkcRH/bbPr2J6WP4X/t0fGYhvEfxC0P4VabMmTbaPs+0R5A+UiNXbPuLjjnGetADfid+zN8evjNp+neIfjd8RfC+nWPhz7Tqtp4a8MafuLzLA4CiV8MSRkEfPjnHqPHP+CfP/ACdB8Gv+yTzf+nG5rF/ao/Y+1H9nO6+G/irXfiZr3xA8Uanq81nLc6g7iOFBA8g8vfJJIDkDPz4PpW1/wT5/5Og+DX/ZJ5v/AE43NAGR8GP+ThtJP/VftX/9JzWh/wAFDufif+0z/wBiv4Y/9L7es/4M/wDJwmlf9l/1b/0nar//AAUK/wCSoftNf9ix4Z/9L7egD6V/ax/5LP8Aso/9fV+f/JAV4z8Lf+UK/iH/AK9dR/8ATi1ey/tYf8lm/ZR/6+L/AP8ASAV418Lf+UK/iH/r11H/ANOLUAeo/sXf8nlfGP8A7FDwt/6b4a5z9nH/AJN5/bR/7G7xP/6T10X7Fv8AyeT8Y/8AsUfC3/pvhrnf2cf+Tef20f8AsbvE/wD6T0AfQX7H+rTaD+wd4A1O3CNcWXhVrmNZBlSyI7DI9Mj1r5c8CfHD49/Hn4Q6R4x8R/s9+CPjZ4Q1gzBDaeXbXcQjcxSBopi5zvRwCg5CjpX0t+yz/wAo9fB//YnTf+ipK8q/4Jj/ALQXwz0H9ljwN4K1Tx3oGmeLIJb4PpF7qEcM+ZL2eRAFYjcSjKcDPWgD558Rt+y9Hqs914v+FXxR/Zt8QIdq6tp0FxDBG+4jMW3cvUdRHg8YzXpPw/u/E7NbJ8Dv21dL8ToId9v4a8fLHJNJxwHeTMqjkZwgI756V+kKtpviTT8qbXVLCUdRtmicfqDXi/xC/Yb+BXxO899a+GuiJcTndJd6bCbKdj0z5kJU/nQB5dovxw/au8BSxJ43+DWg+ONMHzSax4K1QqdnPKwvuZjjHYD+VXdF/wCCmnwwXVY9J8baF4w+GmpSS+SkfiXRZURzgcq0YY7eepA6Z6VDb/8ABO21+H9wLj4T/Fnxz8PTGMRad/aBvdPX6wsQT/31Uet+Af2qPCdj5H9q+B/jNpiAk2niGzFrPJ1yowuzpgZJNAHLfGX40eBfil+2L+zP/wAIp4j0zxN5F7qIkbTrhZjbO0UZUSAHMZYK+M4ztPpXXf8ABV7/AJMn8W/9funf+lcdfLemW+rw/tw/AOXxB8CrL4IazNqd2Z49NuY54NYxAcSAxjapiJYEDP8ArhzxX1J/wVe/5Mn8W/8AX7p3/pXHQBn/APBUD/kzm0/7DWk/+h1U0z/lK8n/AGS5f/Slat/8FQP+TObT/sNaT/6HVTTP+Uryf9kuX/0pWgC7N/ylrh/7Jh/7emtX/gmX/wAkU8X/APY7ax/6OFZU3/KWuH/smH/t6a1f+CZf/JFPF/8A2O2sf+jhQB85+D/+TM/22v8Asdtc/wDaNfXOj/8AKPO1/wCyZr/6ba+RvB//ACZn+21/2O2uf+0a+udH/wCUedr/ANkzX/020AfHXxI/5R7/ALJn/Y36R/7c19bf8FK/+TKfiR/172//AKUxV8k/Ej/lHv8Asmf9jfpH/tzX1t/wUr/5Mp+JH/Xvb/8ApTFQB7f8Hf8Akk3gv/sCWP8A6ISvlbUv+Ut2kf8AZMz/AOlUtfVPwd/5JN4L/wCwJY/+iEr5W1L/AJS3aR/2TM/+lUtAH2zRRRQAUUUUAFFFFABRRRQB8eftj/8AJ0n7Kn/Yx3f/AKJSu8/b88W634H/AGSPiFrHh3VbvRNXhtI1hv7GUxTxBpkVijjlSVJGQQRng1wf7Y//ACdJ+yp/2Md3/wCiUr139r34R6z8dP2dvGHgjw/JaxazqkEa25vJDHESsqOQWAO3IUjODQB8/fD3/gmv4D8eeD9B1z4heNPHvxCudRsILx4Nb1+RoUaRFchQoDYBPdjXsng/9gX9n7wTDGlj8MNFujGQwl1SNr18jod0xbmvItD+Af7YOseHdN0nUvjf4Z8CWljBHbRQ+HdFF4wjRAq7pJVRicAZ960j/wAE8de8VSRT+O/2jPiZ4hnxiaLT78WFu/qBGN4UUAfS/m/Dr4V2P3/DPhK0gXf963s0QevYAV5n4r/b8/Z88I2sk938VNBvBH1TSpjfOfoIQ2fwrkPD3/BLr9nvRbr7Ve+FbzxFdnl5tY1W4mLn+8yhwpP4V7F4R/Zd+EPgOTzdB+GnhfTZuP30WlQmQ4zg7ipPGTQB4Le/8FSvhbqHy+C/DXjr4iSb9n/FP6BIy9OuZCh/TPPSq8v7Znx28XQwyeBf2WPEksMqFvO8TalFpxU54+RwPyLA19lWmn2unxiO1tobZP7sKBB+QqxQB8YT6h+3F4ymQ2uk/DHwFaSBc/appryePPU5XepI9CPxpV/ZT/aS8XXTN4u/aivrKykOXs/DGhxWhHssoKkD6g19nUUAfImh/wDBN3wh9naPxf8AEH4gePtzFmXWtcZlJP0Gf/Hq7zw3+wf8CfDMcax/DzTdReM5EmrM942fX96zD8q9920baAOa8P8Aw08I+E4wmi+F9H0lAAMWdjFF06fdUV0o9gKpahrWnaTEZL3ULWzjHV7iZYwPxJrzbxN+1f8ABnwXNJBrPxR8KWNxH963bVoWlH/AFYt+lAHq/NJg18p+Iv8AgqH+zr4fvJLOLxpPrV0pCrHpOl3M4kY4wFfYFJOfXtWBP/wUqs9XuHg8HfA74qeLT5gSK5g0IxW8meh3kllH+8o6HtzQB9mLS18YXP7UH7UfiS6li8MfsvPp1sZAsV34i8QQxFVI6vH8p4/2Sac8P7c/iu4YC4+FngqydhyouLu4jXHbIZW/SgD7NprSLHyzBR7nFfGa/sq/tM+KJnPif9qS6sbSQ5e28O6BDbsB6LKGUr+Roj/4Jl6LrMkjeMfjJ8UvGEcpzNa3mvFIJPqoUnH0NAH1P4i+KHg7wjbyT654r0XR4Y/vyX2oRQqv1LMMV5R4i/b2/Z+8MwvJP8U9BvSpx5WlTG+kY+irCGLH2Ga5Pwz/AMEw/wBnPw1N53/CCHVpuMtquo3FwDj/AGS+39KoftUfs2/Cr4a/sqfFi/8AC3w68NaFfx+HrlkvLLTIkmVlUlSH27gR65oA+ovCPizSfHXhnSvEOhXi6ho+qW0d5Z3SAgSxOoZGAIBGQR1FfInx8/5SXfs3f9gfWP8A0RNXtf7GH/Jpvwg/7FbT/wD0QteKfHz/AJSXfs3f9gfWP/RE1AH2gtOpq06gAooooAK8R/bc/wCTRfi7/wBi3e/+izXt1eI/tuf8mi/F3/sW73/0WaALP7Gf/Jpvwg/7FXTv/SdK9lrxr9jP/k034Qf9irp3/pOley0AfI3j7/lJp8Lv+xH1L/0aaxPj1fW2m/8ABSP4AXF3cQ2tumgatumnkCIvySdSTitvx9/yk0+F3/Yj6l/6NNenfHj9j/4YftKaxpWp+PtGutVudNt2tYPI1Ce2Xy2YOVYRuufmGaANrxP+1D8IPBMpi1z4m+FNNn/54zavB5n/AHyGz+leYeKv+Cl/7OXhOQRzfEW31CQgkDSrK4uwcY/ijjKjr3Ira0b9g39nfwnB+7+F3h10A5k1KI3PT3lZq6X7R8CPhHZq5k8AeE7eIbPMzZ2wUDtnigDxa4/4KheANQEX/CI+A/iN4480ZjbRvDzFCPXLspI+gNch4A8UeOv2jf20vht8SJfhH4s8CeFPD+kalZT3fiOAQlmkRgp2nDDJIGMHOc9K941j9u79nrwvauZPip4beOIZ8vTp/tP/AHyIg2fwqr8Iv2+vgt8dPiFZ+DPBviG71XW7yKWWFZNLuII2Ea7mG6RFwdoJ/D6UAZf7eHwH8c/HLwn4C/4V9/ZR1/wz4nt9cVNYnaKE+VHIFJKqSQHZMrwSucEGuPHw1/bU8ZQzprHxb8CeCAzDZ/wjukPdsF78zIMenOfrXsf7U37TNj+zJ4V0DVbnw7qHii813V49GsdN050SR5nR3HzOcc7MADJJYCvGJ/2pf2ntauJU8P8A7K1zbw7v3U+teIYITt/2kIXn6NQBLH+xV8Y/EyyJ41/aq8YXsTrjyvD1mmmD3GVc5+uBRa/8Eu/h9qS48X+PPiJ47B4Meta+xjx3GEUHB9yaLnW/24/EkitYeHPhZ4Shcfcv7y4uHT8ULfyNP/4Un+2D4qt4m1j4++G/C0nO6HQfDyTAZx/HIqk/pQB1Xhf/AIJp/s5eE23w/Dm31KTOd2qXlxdD/vl5Cv6V9E+FfC+keB/D9loeg6ZbaPo1jH5VtY2cQjihQc4VRwBXxV8Sv2P/AIm6Z8NPFGv+Kv2mfHWuXWlaZcaglvph/s23keKNpArLG5O0lQDgg4PWvc/2E9a1DxJ+yT8NdR1W+udTv7jTMy3V5M0sshEjjLMxJPAA59KAPRvFnxU8AfD+SafxJ4p8P+HpRgSyalfwW7DjjduYHp615pr37e37P/h23lluPit4duFj6rYXP2pj9BEGz+FfOnwa/Z/+Hnxw/bJ/adufHnhOw8US6RrNgLL7eGYRCSBt42ggNnYv3gcY4xk19c+G/wBlv4PeEJDJo/wx8J2Ehxl4tIg3HHTkrnvQB4lJ/wAFUfgFcXBt9G1jXfEdztLLDpeg3TO2PQOqms2P/gpDca5NHH4Y/Z9+K+uCRiqTSaMIIW9Dv3MAPrivsGw0DTNLCiy020swowv2eBUx9MCr9AHwv46/bY/aF8N+Gtc8RL+zHcaJ4e0qBru41PXtejTyIFGXd4VUM2BzhCTx0NfWPwV8fzfFb4P+CvGdxZpp8/iDRrTU5LSNy6wtNCrlAxAJALYzXE/ttf8AJo/xd/7Fq9/9FGrf7Hn/ACaj8Hv+xT0z/wBJY6APmzX9e+Pfx/8A2rPi94A8C/FqH4b6B4IfT9iro0N28yXNsr9WGchlc8tg7hgDHPS/8MG/ErxNZmPxp+1H8QNTkMm8jRNumx49Aqu3+HtUn7MP/J/37WH/AHAf/SRq+zKAPjW2/wCCWvwxvlP/AAlfirx945Zup1zxA7D8kVf1zXXeGf8Agmv+zp4XCeT8N7S+dTnfqd3cXWfqHkI/SvpyigDy/wAOfsu/CDwixfRvhj4T0+Q4zJFo8G/jp8xXPevCPgJY2um/8FEP2hrayt4bS2j0TRAsMEYRF/cgnCjgc19j18efA3/lI1+0X/2BtE/9EigDpP8AgpR/yZb8R/8Ar3g/9KI691+FX/JMfCP/AGB7P/0QleGf8FJ/+TK/iT/17Qf+lEde5/Cn/kmHhD/sD2f/AKISgDqqKKKACiiigD4m/Zz/AOUj/wC1B/15aN/6TR1g/taeOvFXw5/bs+F2s+DPBFx8QtfXwjfxQ6Hb3It2cNMQzmQqQoUcnIre/Zz/AOUj/wC1B/15aN/6TR1jftVar4/0f9vP4V3Hw00LS/EPir/hEdQSKz1i5Nvb+WZWDuWBByB270AeifsG+AfH/hlvi54j+IPhF/BeoeMPFD61Bpcl3FcFEeNdw3RscgMSoJwTjOBmvnL9mn/kKfG7/spmt/8AoUVfU37Fvx38e/GiP4l2HxEsdFsdd8J+IW0do9DjkWIbY1LKS7tuw24BgRkY4FfLP7NP/IU+N3/ZTNb/APQoqAP05avjz9jdh/w1R+1qvc+I9PP/AJBmr7Davjn9jf8A5Ot/ay/7GKw/9FS0AcZ+wfa+CNG179orxZ4oi0OzvLP4karbx6zqwiR4IVcvsWWT7q7ndsA9WJr1Lx1/wUm+BXhG+/svSvEVz451lkJg03wjZPfNMwBIRHGIyTjpu9+leS/E79mf9jL4X/EnxD4p+Jfii1udd1K/n1ObRtV10v5MkkjSOqW0OJNpdm4bd1qbwh+2t8HvDcSaV+z58CvEXjJiwiSXwx4aFlaeZuUASTFd6/MwyzLgZyTQBtf8EodaTxF8K/ihqcdvNard+PL+48i4XbJH5kUD7GHZhuwfcGvuCvh3/gk7e3mpfCv4pXmoWR02+ufHuoTT2bNuMEjQwFoye+1iVz7V9xUAfGPxm/5SPfC7/sR9Y/8AQZK+af8Agk/8aPAvwf8ABvxHufG3i3SfDEM9xp/k/wBpXaRNKRbncEUnLEZHQGvpv4tmIf8ABSj4UG4/1H/CFat5nX7uJM9OelfHnhn4gfs8R6lPafBv9lvxF8W9QVhGlxr7S3kCJn5CY/35jUg8b0XsTxkgA+yNc/4KgfC2a8uNP8AaJ4u+KmrQv5ZtvC+iyOoPzYJZ9p2kr1VWznjPNULj44/tb/FBZR4L+Cuh/DnTz80eqeONUErleOPJjwyn6qR/KuC0qb9t74hWT2Xhjwb4L+BuiMQIUKQpNFH6DHn8+uYV7YHcaCf8E2fiL8Tp5Lj4wftD+JNfjnQCXTdGLxW59QVkZoivQYES5xzmgDlPiBpOsGaeL47/ALa1vogMYmk8N+BXis5kJB+VTGfMdcgjBjOa8ksfiF+xn4J1xk8L/DTxh8c/FEhbzLjV0kmaeQHGWimYFifaE4xzjjP298Pf+CZH7PvgCOEt4PfxLNHz5mv3cl0jNxljFkR54/u19FeE/h/4W8B6fFYeG/DulaDZxAKkGm2ccCqBwMBAKAPgHwn8Y/2ofF9na2Xwg/Zv0H4W6E37uO81e2EAjUHGSknkMoHtG/QYBBzWu37G/wC1X8YI0k+Jn7Qp8OwM5Mmn+F0kA2k9AYfs46dA28Dqc195674q0Xwvatc6zq1jpNuvWW+uUhUfixFeBeOv+Civ7PXgJR9q+JOm6tISVEehB9QJOCesIZccYznGaAPNfBP/AASV+C/h+8kvvElz4i8cX8jbpJtU1DyVf1DCAIWzzncxJzX0l8P/ANnP4XfC3nwr4A8PaHJtAM9tp8YmOOmZCCxPuTXzxL/wUQ1jxpJLb/Cz4CfEDxlMeYLy/sv7OsZVwCD5rbsdehAPfmo/+Ep/bc+JUYksPCngD4S2Um4E6zeNf3cY/vDy96E9cZXvzQB9pqAuABXO+LviR4U8BWMt54l8S6ToFrEu55tSvY4FUcckuw9RXwn45+C+rwxhvjv+2rdabAznGn6DeW+ignBJThvn6dCnavJrzWP2APhTqMl5cjW/ipr3Je4vPtV4Lp8DkvIY4G5GN3IHIPegDrf+Cgn7SHw1+N978MfD3gLxZZ+LNWsNZmu7iHS1klVYzbyJkOF2tz2BJxz05rj/APgnz/ydB8Gv+yTzf+nG5roR+3r4H0HTrXw/4F/ZzuvBvhfX457BNcmtIbFTviZt0RjjKSH+LHmcjmue/wCCfP8AydB8Gv8Ask83/pxuaAMj4M/8nCaV/wBl/wBW/wDSdqv/APBQr/kqH7TX/YseGf8A0vt6ofBn/k4TSv8Asv8Aq3/pO1X/APgoV/yVD9pr/sWPDP8A6X29AH0p+1h/yWb9lH/r4v8A/wBIBXjXwt/5Qr+If+vXUf8A04tXsv7WH/JZv2Uf+vi//wDSAV418Lf+UK/iH/r11H/04tQB6h+xb/yeT8Y/+xR8Lf8Apvhrnf2cf+Tef20f+xu8T/8ApPXRfsW/8nk/GP8A7FHwt/6b4a539nH/AJN5/bR/7G7xP/6T0AfQ37G+rnw/+wr8PNUEIuDZeGDc+SxwH2K7bc9s4xXxnYfGDwx8cPAtr428a/sVSa/oGqbo4fEXgmFbiRgjMr8RokilXVwcsBlTzX15+yz/AMo9fB+Tgf8ACHS8n/rlJXOf8EtNe0tP2MvA2l/2nZnUbeXUPNtfPXzU3X07KSmcgFSGGRyCDQB8meGdF/ZZaQL4V+IHxU/Z11Uusk9pcXFzbxo20/6zIfpjqXxxgGvevh63xotYnn+HH7Uvgv4s2DbUg0/xHHCsqjkgNJGWcsR64Jr7g8QeEdB8WWUlrrejafrFrKMPFfWyTI3GOjA9q8T8a/sDfATx4Q178PdOspVG1X0pnswvGOFjYL+lAHFXH7Qn7R3w7hdvFnwMg8XWcKbnv/Buohy+ByVhYsxPtx7Zqhp//BUX4W6fIsPj/wAOeNfhjeEkLF4k0GUBuBkjy9xI5x0zUf8Aw7q1LwXK9z8Lvj38Q/BcqgCCyu74X9jGAMBfJO3I+pOM1Q1L4Y/tmeD7cWcXi74d/GLSR9+LxTpf2Wd17phFC4I4yzGgDjvjB8bfAXxu/bU/ZVvvAfirTvE9rY3uqLcmxl3Nbl4YiiyL1QtsfGQM7W9K9N/4Kvf8mT+Lf+v3Tv8A0rjr5ftLLxRZ/tyfABvFvwQ0P4M6tLqd67yaBNDJDrZ8k5lIj4Hl8AbiT++PTpX1B/wVe/5Mn8W/9funf+lcdAGf/wAFQP8Akzm0/wCw1pP/AKHVTTP+Uryf9kuX/wBKVq3/AMFQP+TObT/sNaT/AOh1U0z/AJSvJ/2S5f8A0pWgC7N/ylrh/wCyYf8At6a1f+CZf/JFPF//AGO2sf8Ao4VlTf8AKWuH/smH/t6a1f8AgmX/AMkU8X/9jtrH/o4UAfOfg/8A5Mz/AG2v+x21z/2jX1zo/wDyjztf+yZr/wCm2vkbwf8A8mZ/ttf9jtrn/tGvrnR/+Uedr/2TNf8A020AfHXxI/5R7/smf9jfpH/tzX1t/wAFK/8Akyn4kf8AXvb/APpTFXyT8SP+Ue/7Jn/Y36R/7c19bf8ABSv/AJMp+JH/AF72/wD6UxUAe3/B3/kk3gv/ALAlj/6ISvlbUv8AlLdpH/ZMz/6VS19U/B3/AJJN4L/7Alj/AOiEr5W1L/lLdpH/AGTM/wDpVLQB9s0UUUAFFFFABRRRQAUUUUAfHn7Y/wDydJ+yp/2Md3/6JSvsCvj/APbH/wCTpP2VP+xju/8A0Sley/tX/GTUvgD8AfFnjzSLC21LUtIhjeG2vCwhZmkVMvtIJA3ZwCCcdaAPW6UcV8R+HR+278UNIstSXX/hj4I0nUoEuoJrS1nurlIpFDJ8rhlJwR1PWtBP2Qf2hPFHmp4v/ao1pLaTGYfDekRWLj1xIrAj8BQB9lvIka5dlQerHFcl4n+MXgTwVbyT6/4z0DRYY/vvfalDCF+u5hivmOH/AIJh+DtWjkj8Z/E34l+OYpceZDq3iFjG/qCAuTn3Ndd4V/4Jq/s6eEmLQ/Du21JyQd2q3c9109ncj8MUAanir/goX+zv4Rt3mu/ijo94FYKU0rzL5ufQQq2R71wVz/wVN+E+owyt4P0Hxv4+kjkEZj0LQJW6+7lcdc4ODXv3hn9nX4VeA1dtD+HvhfRQTuZ7fSYEOQMZLbc5rd1Txx4K8Fwu2o+ItD0WOMZb7ReQwYH4kUAfLy/txfFnxdbu/gf9lvxtd4far+I5k0tSPXDqf0yPemt8Rv22PG0BfSfhd4D8AgtwviDVmvJAPX9yxH6fhXq2tft1fs/6CjNcfFrwzPtH3bK+Fyf/ACHurzq5/wCCqHwClultNE1bXfE942dtvpOhXLucD0dVz+GaAM9/g7+2X41t92t/HHwn4Jfd/wAe/hnQRdKB/vzKrf561HL+wF448XLv8cftM/EjVZj96PRrhdOhPr+7Usv6Uq/8FGtS16ZYfCn7OvxU1t5JGSOa50n7LAwHRjJ8wXI9cUq/tJftXeJrlodC/Zjt9Gjd8R3eveI4dqL2Z0BQ/gM0AXIf+CV3wNvLgXPiOLxP4xvv4rrWtenaQ/jGUr0vw/8AsK/AHw2qC0+E/huUrjD31r9rbjvmUtXlclr+3R4mmdftnwq8HWrnho1uLmaMe2Qyk/Wm/wDDLn7UXiSYNr/7Ub6fBICJbfQ/DsMeAR0V8qRQB9XaN4B8M+GY9uleHdI0pB2s7GKIf+OqKs6h4q0PQo83+r6fYJ0/0i5SMfqa+SY/+CbZ1aWOXxV8ffiv4iPPmQ/24YYXz1G3DbR7A1qaT/wSv/Z6sboXd/4b1LxBd7tzz6rrFzI0h9WCuoP4igD1jxB+2L8DvC8ksWpfFfwlDPE214Y9VilkU+hRGJH5V5f4g/4Kkfs56HcPbxeNLjV7hWCiPTNJupQ5PQK/lhG/Bq9E0L9iX4DeHfLNn8J/CxeNgySXOnJcOpHQhpAxr1HR/Afhnw+oXS/Duk6avpaWUUX/AKCooA+T9Q/4KYaRdzSR+FPgx8VPFqhQY7iz8PMsT+3JLD/vmmXP7XX7RviCQHwp+yrqv2WRA0c2u65DaPn3RlH/AKEK+z1UKuFAUegFLQB8Z3HiD9uTxR5T2Hhb4X+DI3GWj1G9nupE6YyYyw456A1jeMf2Wv2qfjP4YvdC8b/Hfw9pejalC9vf6Vo3h5ZYpomGChc7HxjjgqfevuWkoA4/4PfDyP4S/Cvwl4KhvH1GLw/pdvpq3ciBDMIowm8qCcZxnGa+Xvj5/wApLv2bv+wPrH/oiavtHIr4u+PX/KS39m//ALA+sf8AoiagD7QWnU1adQAUUUUAFeI/tuf8mi/F3/sW73/0Wa9urxH9tz/k0X4u/wDYt3v/AKLNAFn9jP8A5NN+EH/Yq6d/6TpXsteNfsZ/8mm/CD/sVdO/9J0r2WgD5G8ff8pNPhd/2I+pf+jTXHftlaT4h+J/7X3wc+F9n4+8UeCdA1vR9QuLpvDWoyWrtJHllYhSFY/IB8wOATjGa7Hx9/yk0+F3/Yj6l/6NNZPxw/5SWfs+f9gHVf8A0CSgCSH/AIJY/C7UkiHi3xR488cleo1zX3dSfXCKuPzrr/DP/BNf9nTwvzD8ObW/bdu3and3F1+GJJCMe2K+nKKAPL/Df7Lvwf8AB8jSaN8MfCenyMAGeLSIMnHTJK14F8TdJsdH/wCCknwLgsLK3sYv+EZ1b93bRLGv3HxwAK+za+O/i9/yks+Bv/Ys6t/6A9AGb/wUxz9k+AGOv/CzNL/k9faO2vi7/gph/wAevwA/7KZpf8nr7VWgBoU0u006igDz39oP5fgP8RT/ANS7qH/pO9ec/wDBPXn9jP4Wf9gw/wDo169G/aG/5IL8Rv8AsXdQ/wDSd683/wCCef8AyZj8LP8AsFn/ANGvQBwP7If/ACd9+1p/2GtL/wDRMtfZFfG/7If/ACd9+1p/2GtL/wDRMtfZFABRRRQB4l+21/yaP8Xf+xavf/RRq3+x5/yaj8Hv+xT0z/0ljqp+21/yaP8AF3/sWr3/ANFGrf7Hn/JqPwe/7FPTP/SWOgDxX9mH/k/79rD/ALgP/pI1fZlfGf7MP/J/37WH/cB/9JGr7MoAKKKKACvjz4G/8pGv2i/+wNon/okV9gtIsakswUDkknGK+PfgW6yf8FFv2inR1kVtG0QhkYEf6kelAHT/APBSf/kyv4k/9e0H/pRHXufwp/5Jh4Q/7A9n/wCiErw3/gpKpb9i34jqoJZreAADqf8ASI6j8Gft1fATwr8O/DVpqPxR0GO7tdKtY5reKVpXRlhUMpCqeQQRigD6gor5C1D/AIKtfs4WZdYvF1/fSKcbbbRbs5+haMA/nVO+/wCCnngySON/D/w0+JnihXON1h4dYAe+WYfpQB9k0V8Z2f7ffjjxJcPF4c/Zg+Jl3gZD6paiwX2wzqQfwNRH9p79qzVmI0z9ldbVGOEfUPFFuuB6sDtoAr/s5/8AKR/9qD/ry0b/ANJo66D4if8AKSz4Sf8AYl6n/wCjDVf9kb4N/FnR/j98Vvit8UNB0nwzdeMbWxjj03TL8XQjeFdh6ZwNqr1Y8k1xX7WOt/EDw/8At3fCy6+Gfh/TvE3iv/hEb+OKx1W6+zwCMzHe5bcOg7Z5oA7f9gz/AJKP+07/ANlDuf8A0AV4H+zT/wAhT43f9lM1v/0KKvqD9ib4O+P/AIYr8T9a+Itnpena34x8RNrf2TSbo3EUW+MBl3EDHzZwMnjvXy/+zT/yFPjd/wBlM1v/ANCioA/Tlq+Of2N/+TrP2sv+xisP/RUtfYzV8dfsb/8AJ1n7Wf8A2MVh/wCiZaAPOv2FPg18PvGfjj9oHxR4p8J6LrWs6f8AEnVILbUNVtkma3jEm7C78heWY/jX0142/a0+BvwahkttX8f+G9La2TedPsJ1mmC4J4hhDN2OMCvnn4hfsF/ATwv4m8V+IviV8UdWsdE1zVLjV7rQdQ16DTrHzZpvNyyqqs5DNgMTnG0dhXOaV8Xf2EPgTqVlY+EvDmmeLNfhZVtDpOjS6vdPISVASeUEFjyOHyc+4oA7r/glLrlp4k+F/wAUtTsJPOsrvx7qFxDIVKlo5I4XQ4PIyrKcH1r7er4b/wCCTOpQ6x8K/ilf29pJYwXXj2/nS3mj2PGrQwMFZexAIBHYjHavuSgD4v8AjUcf8FGvhh/2I2sf+gS14l/wRn1Sy0rwj8Ubi8u7exgSbTi008qxoMQNkliQK9z+LqQyf8FJ/hQly2y3bwVqwkYHGFxJk/lXw9ead+w/8Ov9De7+InxduXlEdtZ26NaROVwi7SqwCTPZgWJz3yBQB+mvjr9uT4C/Dgzrq3xL0KS4hJWS302f7bMCOoKQhjmvKJv+Cm2geKWjT4YfCz4gfErzWKRXmnaQ0NmWBxzK2Soz1JXjvXz54D+I2qf2g5+B/wCw1Hp5SPZDrfiSzMblSR1eVFDcgZUTHpmvVbfwf+3d8ULW3S58QeDPhLZMctDp0KNPGuOhAWcen3ZAfftQB08nxa/bO+Iy50D4TeDvhhaA5Nz4s1U3blfUCIjbj/aSvPPiB4W8bR7oPjZ+2vpvhK3uPnfRvCpg0+VduCUjkVllYDjqpznnNdA3/BMrxZ4/kuZPip+0P4z8UJcE+ZZ6fI0NuwI5BSV5EwecgIBjt1r0bwP/AMEuf2evBTJI/hO41+cD5n1jUJZkb6xgrGfxXvQB8W61rn7C/gm+F9ruq+Nvjb4ihIHn6ncXL+bjkfO5hjZMk9yK9I8D/tGXtrdC3+Af7FVxaqy7hqmp6d9kDEYALOItpP1myfzr9CfBfwV+H/w4t1g8L+C9B0CNTuA0/Toojn1yq5z712aqq9BigD8/fsv7fvxYs0zL4L+EtrI5GyMxtcRpn6XOePdT9KsL/wAE4fif8Qrprj4o/tI+KtXSQDzLLRfMt4j6jDSGP8oh75r7T8WfFTwZ4EtpLjxH4r0XQ4Y13u2oX8UO0evzMOK8P8Z/8FIv2dvBPE/xGstVl3bfL0WCW95/3o1K/jmgDlfAn/BKX9n/AMG+TJe6FqXim5T78mr6jJsk9d0UXlxkZ5xtxn6CvoDwP+z38Mvhmo/4RXwD4d0J8g+bZ6bEshIGAS+3cT7k185yf8FJE8TSCH4e/A/4l+NTKMwXa6Qbe1kz0JkO7avuRimN8Zv2yviBGY/DvwR8LeAFJI+1eKtaF1gdvkiZWB+q0Ac5/wAFWUEfh/4PqqhVHiKcBQMAD7HJXhH/AAT5/wCToPgz/wBknm/9ONzXsfxR/ZX+PnxgtLLXPjN8TPC6ad4dSbVbbw/4c0zrMsEgIWVwrZIO3ncMcgA8145/wT5/5Og+DP8A2Seb/wBONzQBkfBn/k4TSv8Asv8Aq3/pO1X/APgoV/yVD9pr/sWPDP8A6X29UPgz/wAnCaV/2X/Vv/Sdqv8A/BQr/kqH7TX/AGLHhn/0vt6APpT9rD/ks37KP/Xxf/8ApAK8b+Foz/wRX8Q/9euo/wDpyavZP2sP+Szfso/9fF//AOkAryL4P26Xn/BGXWYJXZI5INQUsoyf+Qk1AHo/7FfP7ZHxjP8A1KPhb/03w1z/AOzmjJ+zt+2exGA/i3xOV9x9nrr/ANjjTha/tdfFqZSzl/CfhlWY9OLCHH6VkfAW1Sb4Bftd28UisX8UeIlO1cbWMHQ+p5oA9v8A2M7u1sP2Gvh1cX0IubOHwz5k8BAIeMK5ZSDxyARzXxPq/jL9lTXLe01/Wfgb438B6UYi0HiDQYJBYgbucNDJtJBGPu8YI4NfZf7MNu1t/wAE/fC8MnLx+D51P1EcgrG/4JdgXn7D3gETYn/eaipD/N0v7gYOaAPmTQ9S+D+qMNV+GH7ZXirwDctuWOz8TXTtarwMAwziNcD1OTx1r1vwzN+1hp1vC/gv4z/C74y2BCuJNTjWCZlPTH2fj8S2a+r/ABr+z38M/iMv/FTeAPDuttyRJeaZC7gnuGK5B9xXi3iX/gmL+z34gv8A7da+Errw1fKQyXGhanPbGMjuq7ioPvtzQBzX/DVf7Snw/aU+OP2ZbjVbOAEyX3g/VkujJjukA3uc+mc+1WbH/gqR8MtM2x+PfDHjj4bTlygHiDQZQpOM8GPcf0zx0quv/BPzxf4PeSb4eftH/ETQJtrCKDWLoalbJk8Dy2KjH6+9QXnwv/bP8I2ptrL4gfD34o2ufmHijRzayFcAbcRKFI+pz70AcD8WPj54A+P37an7LGo+APE1p4ktrC91NLv7MGV7dpIYygdWAKkhHxx/Ca9U/wCCr3/Jk/i3/r907/0rjr5tuNP8dWX7c/7Pb+P/AIUeGPhprMuoXmL3wvJG0OtgQYLuEOVMXAAbn9+cd6+kv+Cr3/Jk/i3/AK/dO/8ASuOgDP8A+CoH/JnNp/2GtJ/9Dqppn/KV5P8Asly/+lK1b/4Kgf8AJnNp/wBhrSf/AEOqmmf8pXk/7Jcv/pStAF2b/lLXD/2TD/29Nav/AATL/wCSKeL/APsdtY/9HCsqb/lLXD/2TD/29Nav/BMv/kini/8A7HbWP/RwoA+c/B//ACZn+21/2O2uf+0a+udH/wCUedr/ANkzX/0218jeD/8AkzP9tr/sdtc/9o19c6P/AMo87X/sma/+m2gD46+JH/KPf9kz/sb9I/8Abmvrb/gpX/yZT8SP+ve3/wDSmKvkn4kf8o9/2TP+xv0j/wBua+tv+Clf/JlPxI/697f/ANKYqAPb/g7/AMkm8F/9gSx/9EJXytqX/KW7SP8AsmZ/9Kpa+qfg7/ySbwX/ANgSx/8ARCV8ral/ylu0j/smZ/8ASqWgD7ZooooAKKKKACiiigAooooA+PP2x/8Ak6T9lT/sY7v/ANEpXa/8FC9B1PxN+x98RNO0jT7rVNQltYjHa2cLSyvtnjY4VQScAE8elcV+2P8A8nSfsqf9jHd/+iUr6/ZQ2M9R+FAHwz4D/bY+I8ngnQ9E8I/szfEDWLrT9MgtftGsRjTYJHjiVMqzoQVJXr19q3IfjR+2T4wUJpPwH8L+Dif+XjxF4gW4X/vmJg36V9l8+tGKAPjKPwX+3B4viMeo/ED4ceBkY483R9Oku5lHsJUK/rTV/Y5+PniiGW38YftV+IJLWTrH4e0mPT375xIjgj2wBivs+lwaAPjS3/4JkeFtS80eLvir8TvGkcoAeHU/EDCM+vCrk59ya6Pwz/wTF/Zx8MTeangD+0pNu3Op6jc3A+u0ybc/hX1RtNIfl6nFAHlPhf8AZR+DPgy4jn0b4XeFLK5jBVbhdJhaTB6jeVJPQd69H03w/pOjwrFYaXZ2US/dS3t0jUfQACn3us6fpqu13fW1qqDLGaZUx9cmuG8S/tG/CrwdGr638R/CumKzbV+0axAuT6ff60Aei8L0GKXdXzvr3/BQj9njw7HK0/xS0e6MYyU0/wAy6J+nlq2fwrhJf+CrHwGubhbfRL3xH4nu2+7baToNw0h+gcLQB9hZNOBr4v8A+HkE+rTyQ+G/2e/izrjZ2xyf2GYo29y2W2j3NLJ+1l+0prkqf8I9+yrfRW7/AHZdY8QwQH8UKjH50AfZ+aK+M7jxj+3D4nBbTfAvw08HxE8Jqt/NdSD8Y3I/SiT4ZftqeLLeMaj8XvA/g1jy39h6Kbll9R++TBoA+zaTIHU4r4xh/Y7+PPiCGeHxX+1T4klikIwuh6VDZEdc/Mr5H4YpbT/gmjpV1LHJ4j+NfxX8SbfvR3PiEqjZ/wCAlh/31QB9d6h4o0bSYzJfatY2UY4LXFykY/MmuA8RftTfB3wlN5OsfE/wnp83aObWIAxx7bs14lZ/8Eqf2eY5zcah4d1fW7lm3NNqGt3LMx99rrn8a9E0f9hH9n7Q9n2f4T+G5SgwPtlr9pz9fMLZ/GgDE8Sf8FIP2dPDMBlm+JdjfYONmm289035JGa4jUf+CsHwOW1u59GXxT4lS1jMkjabojhFAH8TSlAo92wOeSOtfSnhv4H/AA78HWyW+heBPDmkQISVjstKgiUEnJOFWvP/ANtewtrP9kL4trb20MAHhy7GI0C8bDxxQB6p8OvHem/E7wH4f8W6P539la3YQ6ha+emx/LlQOoYdjg8ivlX47Ln/AIKUfs5H00fV/wD0RNXs/wCxn/yad8I/+xZsP/RK14v8dm/42U/s5D10fV//AERNQB9nJ92nU1Pu06gAooooAK8R/bc/5NF+Lv8A2Ld7/wCizXt1eI/tuf8AJovxd/7Fu9/9FmgCz+xn/wAmm/CD/sVdO/8ASdK9lrxr9jP/AJNN+EH/AGKunf8ApOley0AfI3j7/lJp8Lv+xH1L/wBGmsn44f8AKSz9nz/sA6t/6BJWt4+/5SafC7/sR9S/9GmuK/as8feHvhh/wUA+BXibxXq0Gh6DY6BqZuL65z5ce4Oi5wD1ZgPxoA+7qK+Vte/4Ke/s4aBKscnxAW9LDINhpl3OPxIiwPzrCj/4KnfCLWGYeGtG8beLSpxnSPD8jj/x4igD7Gr47+L3/KSz4G/9izq3/oD1Ri/4KPalrGF0H9nH4talIxwvnaN5KH6uNwFYXgef4r/HX9s/4c/EfX/g7rXw78N+H9H1Cxmn1S7ikLGWNth2jawJZgMbT6+uADZ/4KYf8evwA/7KZpf8nr7VWvmD9u74E+OPjh4U8AHwBFptxrnhnxRb66IdVuDBCwijkCkkA5AcplRgkZwc1yFvpP7dOuSMl1rvwn8OQsP9Za29zOyn2DBh+tAH2fRXxdL+zr+11r259R/ab07R9/Jg0vwvAyJ7BiFb8zUs37DXxU8R2saeJv2p/HU8n/LRtGiSwyf9ko+R+tAH0V+0N/yQX4jf9i7qH/pO9eb/APBPP/kzH4Wf9gs/+jXrzuP/AIJk+HNQmY+JPjD8VfFEEiGOS2v/ABF+7cEYOcJk8ZHXvX1D8K/hrofwb+Huh+C/DiTR6Jo8H2e2W4l8yTbknLN3JJJ/GgD47/Z/+KXg74XftZftWXfjDxTo/he2uNb00Qy6vex2yyEQSZ2lyM4yOnqPWve9T/bq/Z/0n/X/ABa8Myf9et4Lgf8AkMNV3xV+xt8EvHHi7UvE/iD4caNrGu6lIJru8vEeQyuFC5Klto4A6DtWhof7KfwV8NTpcab8K/B9nPH92ZNFt94/4EVz+tAHkmsf8FTv2b9HuJYf+E3uL14zjdZ6RdyIfo3l4P51myf8FQ/hvqFi1z4Z8GfEPxao+7/Zfh1yr/RmYD86+m4NH8E+HQXhsdA0wL1ZIoIsfiAKz9U+NXw28LW0kl/438MaZDHy5l1S3QL9fmoA+MPjZ+2N4r+Pvwh8YeBfDX7OvxSim8Q6XPp6X+oaQYYYfMUrvJ5BxnpkZr67/Zj8M6p4L/Zz+GWga3ZyafrGmeG9PtLy0lxuhmS3RXQ4JGQQRxXPah+2/wDAPTY983xd8Juvpb6kkx/JCTXr3h/xBpvizQtO1rR72HUtK1C3ju7S7t23RzQuoZHU9wQQaAPiXX/hB+0r8Of2oPi/44+FOi+DbvS/GrafsvfEl65CLb26phYoyrBtxkBzkEbcVv2/hn9uTxBEUvvF/wALfDAP8djZ3FxIPwdSOK7T4sf8FBPhd8I/iBqvgq/h8R6x4k0yRY7q00bR5bjYzRJKAG4VvlkXoe9cRN/wUss7i4aLSPgR8XNWXOEki8PYD/QBif0oAa37M37V2rSq+pftSx2ak5aPTfC9uoA9AflP51NP+wZ8QPETq/iX9qH4kXRzkrpNwNPB/BGIP4ilT9tz4u66rHw9+yr43mz9w6xcpYZ+odDiorf9ov8Aa21uRo7L9mOx0vPIl1PxTAVH1A2mgCez/wCCZHhCbzBr/wAUPid4mRzyt94iYZ9jtUZr1z9nz9j/AOGv7Md3qd34G0+/t7zUoUgup77UJbkuiszKMMdq/MzHgDrXj9x4h/bn1pd1p4T+Ffh5W52Xl3cTuvtlJCP0rU/ZN+NXxi8SfHb4lfDX4uz+G7nU/DOn2N2reHbd0iRp9zbQ7HLjYUzlRgggepAPqDxX4S0Xx14fvNC8RaVZ63o14oS4sL6FZYZQCCAysMHkA/hXFeH/ANmT4ReFZWk0f4Y+EtOkbhmt9Gt1Jx6nZXI/t0+PvEHwx/ZX8d+JfC+py6PrtjbxG2vYQpeItMikjcCOhI6d68e8P/sXfEX4leFtE1nxB+078RVOoWkN40GlyLZbDJGrbco3IGcdKAPsWx8J6FpMeyz0bTrNP7sFrGg/QVYm1jTtOjPnXlrbIvXfIqgfrXyJb/8ABMzQZ7wXGtfGT4r6/wD3o7vxGQG/EJu/WrMf/BKb4AzXTXOqaXr2uXDfel1DXLhmP1KspoA+j9U+M/gHRI3k1Dxt4dskj+8Z9UgTH5tXDX37bHwF0+MvL8XfCDKP+eGrRSn8kJNcl4f/AOCbf7OfhuMrB8NrO7yc51C6uLo/nJIa6+x/Yp+Aunx7IvhD4Pces+kQyn83UmgDe+E/7SPw0+Ol9qdn4D8YWHia501Eku47PfmJXJCk7lGQSp6Zr5V/ayt/iPdft4fCqL4V3Wh2Xi1vCd8Em8Qo72qw+c3mZCAktt6cdav/ALK+had4Y/4KEftL6VpFjb6ZplrZaOlvZ2kQjiiUwRsQqgYUbmY4Hcmuu+I3/KS34Sf9iZqf/ow0AbH7D/xb+IvxIk+Kuj/ErU9M1bWvCXiRtGW40q0FvDhYwWCjqV3ZwSM4618y/s0/8hT43f8AZTNb/wDQoq9+/YR/5KV+07/2UO5/9AFeA/s0/wDIU+N3/ZTNb/8AQoqAP05avjn9jj/k6z9rP/sYrD/0VLX2M1fHH7HP/J1n7Wf/AGMVh/6KloA8p/Y7/Zn+Gnx3+JPx98WfEDwtbeLNb0/4harp1tNqUkkiLAJd4Ux7tjEFjhmBIGBnHFfaUNr8JPgPpGyCPwf4D0+AFsKLaxRQOSf4frXzDqH/AATqt9O8SeONU1D49eLvC3hvxJrt3rsmk6FdJpsQM7bmErlmEhHI3FQMAcZzXJ3XwW/YO+EepS6h4p8UaN4m1mLBmOr+IJdTmc9MtDExDdO6mgDvf+CWGoW2rfDb4q3dnPHc2s/xA1KWKaJtyujJCysD3BUgg+hr7Xr4Y/4JJzaVc/CL4my6IqppEnju+e0WNCiiEwW5iAU9B5ezA7CvuegD4v8AjV/yka+F/wD2I2sf+gS14t/wRZsba60X4m3EltFLPHPpyrK8YLKpgbgHqBXuHxcgW6/4KUfCeF38tJPBerIzegIkBNfHGifCH4CfA7Tb+z1T9sDWEt55FFzZ/DwPEJ9g2L5giM2TjPXI5OKAP1417xloHhWFpta1zTtIhX70l9dxwqPxYivFPGH7f37P/ghZPt3xN0a8eM4aLSXa+fPpiFW5r867PxZ+xlD4hiGifDz4l/G3XgATc3Dzy+aR3ZDIhbPoUI4r1vwP8SfGkdxcS/B79hOw0BGUpFqOtWyWs0i9ixkijyM9t5+tAHuE3/BT7wf4gZV+Hnw4+IXxIV2KLdaLojC33dMF2ORz/s1E37SH7WHjsPH4S/Zzs/C0Mi/udQ8W60hCc9XhXY/4D061zEOl/t9ePLGOP7T8PfhjBLsB+xxq80K+wInXIHbPtkVYl/YR+Pnj6aJvH/7UuvtbAkva+Hbd7TJPHDI6DHsUxQBe1jwz+194gtWm8YfGv4e/CW0RiWOiWK3B2EdzcDjv0bPHWvI/FnhH4SwyfaPiv+214m8U3EZRbmx8P6ysMDlfvKYIPNxnkcfNz1r13Rf+CRnwia+a+8XeIPGHjq8YKDJq2qBcYz0MaK+DnoWPtjnPr/hP9gH9nzwdbxxWnwu0S92HIfV0a/c/Vpy5oA+AofiJ+wN4Bvg+ieBfFHxP1e4YqPPhuLgzOT3S4kRSSe4UmvVfCH7Tmt6fdGy+Cf7Et7Y2z4cXd5pi6cC2MZJWDaeg58yv0Q8P+B/DvhWFIdF0DTNIiRQipY2ccICjoAFA4rbA29ABQB8EQeKf2+PiFHKbHwh4D+G1mwIiW+kEkyDtkrJKM/8AAB9KUfsdftWePrdY/G37T0+lQyFTPB4bszExHBIV4hBg9s4/A1943V7BYx+ZczxW8fTfK4Ufma8/8W/tHfCvwHx4g+I3hfSG3bfLudWgV8+m3dn9KAPzP/a2/ZBP7Nd18NvEJ+Jfi/xnruqazNbSz61ebkjAtnfcg5YMcYJLHINW/wDgnz/ydB8Gf+yTzf8Apxua7D9v/wDaU+GfxyuvhhovgLxfZ+KdT03XJri6hsEkYJGbZ0DBioVvmI+6T+Vcf/wT5/5Og+DP/ZJ5v/Tjc0AZHwZ/5OE0r/sv+rf+k7Vf/wCChX/JUP2mv+xY8M/+l9vVD4M/8nCaV/2X/Vv/AEnar/8AwUK/5Kh+01/2LHhn/wBL7egD6U/aw/5LN+yj/wBfF/8A+kAryL4PmVf+CMutNB/rlt9RdfqNRY/0r139rD/ks37KP/Xxf/8ApAK8j+Dt0LL/AIIz61My7lW31HK+o/tFgaAPZP2RZlX9qn4mwAfMPCfhxi2Ov+hRCsD9n+2S1+Bf7W8lspJm8U+IZSCer+QB/QVr/sgalFdftW/FaBeZIPC3hrnH8LWEJH9ayPgLdCH4D/tbzvKriPxR4iJ29FAgzigD3H9lGOxtf2LPBC6yWfTE8Mk3uzOWi2v5nTnlc9Oa+BdG1D9ji8ktofB3xk+Jvwhufvolvd3ccagjjJKOAMYPDV9y/s33g1D9gXw3cgYEvg2d8emYpOK5H/gmX4P0PxN+wz4AGs6Lp+qq8mpKft1qk2V/tC4GPmB44oA8c8Nw6/M1ta/DH9vXTtQVIgIdP8TJa3UzYP8AG0rFh2ySpNepWWuftq6DMXsLz4S/EzTYwpDW00ttcTrjqMFUUn8RXs3iP9hn4B+KY5lvfhR4ajMoIaSxsltH57hotpB9+teYXn/BK/4K2vnyeFpPFXge7kxi50LXp1dcZwR5hfPU9c0AUf8AhsD9oLwfK/8Awmn7LWsyWiEg3XhjVY75jjuIlUkg/wC9Ulr/AMFSPhvpLBfG/g3x98O2LbQ2vaC6oT7FGYn8qZ/wwd8SvCFvKPAf7T/j7TpGZSqa+V1OMAdsMy/kMCorj4U/toeFbPyLH4neAPiLEZPmXxNoxtmKY/6ZJj04z+NAHmXxJ/aM+Hv7R37aX7LWpfD/AMRR69Bpt9qcd6qwSwvbtLChjDLIqkEiN+38Jr17/gq9/wAmT+Lf+v3Tv/SuOvnfUrD4n2P7bn7OX/C1PBHg/wAJ6y2oXwt73wcAIdTjEPzGRclgY8rt3H/lq1fRH/BV7/kyfxb/ANfunf8ApXHQBn/8FQP+TObT/sNaT/6HVTTP+Uryf9kuX/0pWrf/AAVA/wCTObT/ALDWk/8AodVNM/5SvJ/2S5f/AEpWgC7N/wApa4f+yYf+3prV/wCCZf8AyRTxf/2O2sf+jhWVN/ylrh/7Jh/7emtX/gmX/wAkU8X/APY7ax/6OFAHzn4P/wCTM/22v+x21z/2jX1zo/8Ayjztf+yZr/6ba+RvB/8AyZn+21/2O2uf+0a+udH/AOUedr/2TNf/AE20AfHXxI/5R7/smf8AY36R/wC3NfW3/BSv/kyn4kf9e9v/AOlMVfJPxI/5R7/smf8AY36R/wC3NfW3/BSv/kyn4kf9e9v/AOlMVAHt/wAHf+STeC/+wJY/+iEr5W1L/lLdpH/ZMz/6VS19U/B3/kk3gv8A7Alj/wCiEr5W1L/lLdpH/ZMz/wClUtAH2zRRRQAUUUUAFFFFABRRRQB8eftj/wDJ0n7Kn/Yx3f8A6JSvo74wfFjQvgh8OtZ8beJWnTRNJiElw1tEZJOWCqFUdSWYD09a+cf2x/8Ak6T9lT/sY7v/ANEpXUf8FIwW/Yt+JKgZZraAAepNxEKAOK/4eXafq0kY8M/A/wCK/iSGVQ0Vxb6Btjkz0IO48e9LP+2H+0Br2T4W/ZR15oj92TXNais2H1RkH/oVdp8P/wBtT4F+Evhj4VtNT+KXhuC7tdJtIZ7aO9WSWORYEDKVTJBDAgj1rN1f/gqF+znpM/kr45lvn/6c9Ju5AfofLANAGBJ8Rv22fFMaHSvhV8P/AAcG6nXdXe7K/hC45/AimR+B/wBuDxZZyx6j8Rfh14MZjhZNI0yS6kUeo81CMj0ORVmb/gqB8Pb5mHhnwV8QvGA/hbSPDzlW/F3X+Xaq8f8AwUC8Y69Gy+Gv2ZfiZez5wv8AaVmLJD/wIg0ALafsm/tJazcbvEn7VmqLAVw0ei6BBan8GVhj/vmom/4JrtrH/IyftAfFnXAzbnj/ALb8uJvUbSGwD7U6D9p39qzXpI/7N/ZZj02J+PM1TxTB8vuRtQ/pSy+Jf25/EM7tZeFPhZ4XtyOI9Quri4kX/gSOQf8AvmgC+v8AwSr+Al5d/atb07xD4lusBTNqmvXLMQO2VZT3Peu40H/gnz+zz4dt44bf4V6LcLGMBr8PdMfq0rMT+Ned/wDCuf21vE1iE1D4seA/CkrHk6PoxuWT6GVMH8qba/sl/tH6pcq3iH9q7VTbkfPFo+gQWrfgwbH/AI7QB9EeG/2c/hX4PydD+G/hXSSx3E2ej28ZJ9ThOa7KO10fQY1VIbHTkHRVVIh/SvkFv+CcN9rDO2v/ALRXxa1IyNudLfWvIjP/AAEhgKvf8OsvgxqMMS+Ibnxd4qdDu8zVdfmcsfXC4APXpjrQB9Lax8XPA/h3cNU8Y6DpxX7wutShjI/AtXn+pftt/AXSVcz/ABb8JkocFYNSjmb8kJNcd4f/AOCan7OPhuYywfDe2u2OM/2jfXN0vHtJIwFdzpP7G3wK0ORJLT4SeDxJGwZHl0iGVlI6EF1ODQB5zr3/AAU+/Zx0KRUbx818zf8APjpd1MO38Qjx+vasNv8AgqN8L9TiZvC/hXx/4xx93+x/Drsr/Qsw/WvqbS/h74V0RVGn+GdIsQv3fs9jFHj6YWtyKCKBQI4kjHoqgUAfGsH/AAUI8U6+pHhz9mf4pahJ/D9u077JGc/7ZDCnf8NQftS6xMv9k/sqtZwscLJqvii3QgerLhSK+zQaWgD4xm8Wftx+IpidP8E/DDwrAw4XVL6e5cfjG+P/AB2nD4e/tteKLER6h8Tvh74QkY8yaPpMlzIo9vNTB/EV9l80YPrQB8YwfspftK6ndI+uftWal5JGJI9K8OQW5P0IYAf981V1T/gmvd+MILqDxd+0H8UtftrriezbUlW2lXurQuHQqf7u3HtX2xz60UAc38OfAmm/C/wHoHhHRzMdK0SyisLU3D75DHGoVSxwMnA54r5S+PH/ACkt/Zv/AOwPrH/oiavtBq+L/jx/ykt/Zv8A+wPrH/oiagD7QT7tOpqfdp1ABRRRQAV4j+25/wAmi/F3/sW73/0Wa9urxH9tz/k0X4u/9i3e/wDos0AWf2M/+TTfhB/2Kunf+k6V7LXjX7Gf/Jpvwg/7FXTv/SdK9loA+RvH/wDyk0+Fv/Yj6l/6NNe+/Eb4c/DfxhdafqPjvw74a1e4sVdbO6160glaFSQWCNIOBkLnHtXgXj//AJSafC3/ALEfUv8A0aa8+/bE+Fnhr42ft3/A3wb4x09tW8O32hak1xZieSHcU3OpDxsGX5lXoRnGDxxQB9L3Xjr4DeA7YNNrnw/0SGHgf6TZRbPyPFY17+23+zzoce9vip4SwO1ndpMfyjBrO0H/AIJ5/s8aDaxRw/C/R7hVUAG+Mlyx+rSOxP412Gl/sg/A/Rnie0+EngyOSM7kkbQ7d3B9dzITQB5jrn/BT79nDQ2QP8QPtpfOBY6bdTdPUrHgVr/B3/goJ8IPjv8AEax8FeENQ1a81i+imlt2uNMkghfyk3uNz452gnp2+le4WXw58KaTGkdj4Z0ezjQYVYLCJAPpha+WvitbQ2v/AAUq+BSwxJEv/CM6t8sahR91x2oA9h/ad/aa0v8AZj8MaBquo+H9V8S3GuaomkWWn6T5fmvMyO4HzsOuwgAZJJAA5rxuf9tL42auAPDf7KHi2YkcNrOpx2P5hoz/ADqt/wAFMP8Aj3/Z+/7Kbpf8nr7S/E0AfGtn8fv2vNf81LP9m7R9EbHyy6r4nhZfyUgn9Khk1b9u7WizwaF8JtAjJ+SO4mupZB9SrsD+VfaK06gD4Z8eaJ+2jpXw/wBd8Qat8TPAPh9dLsJr6WPRdJeeTbGhchTKhBOAeox0r379jv4ga98Vv2Zfh94r8T3o1HXtT07zby7WFIvNcSOu7agCg4UZwAM9hXTftDf8kH+Iv/Yu6h/6TvXnH/BPP/kzH4V/9gs/+jZKAPnjTfhf4x/ao/am+PGi3vxm8d+DdE8IapaQWWn+G9Sa3j2TQkkcdMGP3+8a9Fs/+CY/heS6abXPix8U/EYYYKX/AIjOPflUB5+tTfshf8ngftZ/9hnS/wD0RLX2LQB8fQf8EpP2eTcPcX/h/WNYnflpL7XLos31KupNddoH/BOb9nXw7CIoPhhpt0Ac7r+ae5b85HJr6TooA+Pv2q/2U/g54E/Zh+J2r6B8MfC+latY6BdXFpf2+lxCe3lSMlXjk27lYEZBBzXr/wCx7/yaf8Hv+xT0z/0ljqr+2x/yaR8XP+xavf8A0Uatfse/8mn/AAe/7FPTP/SWOgDxT9mSNJP2/v2r9yKxH9gEZGcf6I1fZtfGf7MX/KQD9q/6aD/6SNX2ZQAUUUUAFfHnwP8A+UjX7RX/AGBtE/8ARIr7Dr48+B//ACka/aK/7A2if+iRQB0//BSX/kyz4k/9e0H/AKUR17l8Kf8Akl/hD/sD2f8A6ISvDf8AgpL/AMmWfEn/AK9oP/SiOvcvhT/yS/wh/wBgez/9EJQB1VFFFABRRRQB8Tfs5/8AKSD9qH/r00b/ANJoq5/9riH4lXH7dnwuX4Tz6Fb+Mf8AhEb8xSeIg5tRF5p8zOwE7sdOMV0H7Of/ACkg/ah/69NG/wDSaKsH9rTwj428cft3/C3SvAHjVfAHiKTwjqDprTWCXm2MSkugjfjLDjPagD2n9jb4B+Nvgrb/ABD1Hx9q2j6t4h8X66danbRVkWFGaMBxhwMfNngdq+Uv2af+Qp8bv+yma3/6FFX0T+wP428e+IZPjB4e8f8Ai+fxpqXhTxU+kQ6lNBHDuVIlDFURQFVmBYKc4zjNfO37NP8AyFPjd/2UzW//AEKKgD9OWr44/Y5/5Os/az/7GKw/9FS19jtXxz+xz/ydZ+1n/wBjFYf+iZaAPF/2b/2VfAf7WXj345698U11jxTd6P8AEDU9MsoZ9YuEiigV8qgCuCAMgcEYAA7V9jeEf2NfgZ8PWguNK+GPhm3ntcNHd3VilxKhH8XmShmB9814Bpf7BXxW8O+MvG114c/aAuvBfhfxN4hu9euNO0XSQJ3aeRm+aZpMqwUqnA2kIDjJNQat+wf8LdMBuvin8ffGXiaBQwmt/EPi2O3tTk/3eGX6bsUAbX/BLlYV+H/xbWBY1iHxC1QKIQAuNsWMY4xjFfadfDH/AASTsNN0v4R/E600aQS6VB47vorR1fephWG3WMhv4gUCnPfOa+56APi/41f8pGvhf/2I2sf+gS186f8ABIb4V+DviLpvj3UvFXhfSPEV7pc2nJYXGq2cdw1qGgYkRbwdmcdvSvpH4vWpvv8AgpP8KLZXEbTeCtWjDEZAyJBn9a+a/hl+zL4//ZZ0vVbWL9qnwH8LLXUZF+2eV5FzJN5QKRtmcqQdvO1cYLEZOM0AfqhpmhabosYi07T7WwjHRLaBYx+QApNT8RaXosbSahqdnYIoyWurhIwMfU1+WfjLUPhEtrBL8Qf25PHHiWfYUli8KTyJHITjIEcCShQcfxZ+tcJPr/7DUd1E0Ph34l/F7WMYO6W5MzY/ibMkWR9OPagD9NvE/wC2F8EfB8kkWq/FTwrBPGu9oY9Tilkx/uoSc+1eUat/wVL/AGfrO6ltNM8Qat4mu0BKwaPotzIZD6KWRQfrnHvXzFoPxE8ERy2yfDX9gzVtZulXMVx4g0nyl29m8x4ZAT+PPrXq+lfEv9r3VhDD4M/Zu8G/D6EA4n1W5iKhccLtjlRgf+A44oA7CP8A4KJaz4oLR+C/2dfijrcrLuhe+01bKF/TMmXAH6+1OX48fte+MIp49D/Z70PwjIUHlXHiLxCk6gnPJSPYxx3HFYMngL9vDxoyLffEHwD4FtmOS2k2vnzJ7bXiZSP+BZpW/YZ+PnjIqPGv7VviRrZjmS20CzazP4Okqj8NlAGvN4U/bV8UW8x1z4j/AA0+HsJVds2kWMlzIp5z/rlKjH1NcH4m+EusWtvPF8WP257qxVmVjFpF5a6Oy+3yy5PPoB9K6eP/AIJM+BtZuFm8Y/En4g+M+cyQ6jqieXJ6Z+Qt/wCPV3Xhv/gl5+zh4buI5x4EfU5k76lqdzOp+qGTafyoA+TvEnhT9iPw/G6+Ovjh4r+J0zPu/wBJ1e61DJ9AbaMKPqT+NVdN+NX7Cng5Y7Lwh8F9Y+IFyTkINJe8fPubqXOPoD9K/Q/w3+yX8FfCVylzpPwr8JWlyn3Zxo8DSD6Myk16Zp+i6bpC7bHT7WyX+7bwrGP0FAH5p6h+3J4X8K2tn4e0T9mTVfh7outpcWEOq3umRaYIWaBxmILDtcjqVDg4z9K47/gnz/ydB8Gf+yTzf+nG5r3n/gq5/wAgH4Q/9jFP/wCkcleDf8E+f+ToPgz/ANknm/8ATjc0AZHwZ/5OE0r/ALL/AKt/6TtV/wD4KFf8lQ/aa/7Fjwz/AOl9vVD4M/8AJwmlf9l/1b/0nar/APwUK/5Kh+01/wBix4Z/9L7egD6U/aw/5LN+yj/18X//AKQCvGfhf/yhY8Qf9euo/wDpxavZv2sP+Szfso/9fF//AOkArxn4X/8AKFjxB/166j/6cWoA9Q/YsXd+2N8Ygf8AoUfCv/pvgrnf2cmJ/Z6/bQBOf+Ku8S4/78V0n7FX/J5Hxi/7FHwr/wCm+Cua/Zx/5N7/AG0P+xt8S/8AoigD6H/Y1tLK+/YY+HltqU32bTZvC/l3U27bsiZXDtnthcnNfH3gPwv8N/Bfh2LS/hL+3JdeELFZCbfT9YkgaCM5+bELmIDJyeAASSTnJz9X/st/8o8/Cf8A2Jkv/oqWvJ/+CeH7N/wt+K37GvgTWPGHw+8O+IdWla/jfUL7TonuHVL2dEDSY3HaqhRk8AAUAT+H7L9pm1tJZfCX7TPw2+JC7gYxqlnDHxjpugzgfmfeukt/iF+2x4Thmm1T4dfDzx1EqhoxoOqvaO/081+c/QV0/iT/AIJifs4eJpnmfwB/ZszfxaZqV1bqPoiybP8Ax2uevP8Agl/4JspA/hP4k/ErwTtXasWkeIW8v2zvUt+TCgCOL9tT42eF0lk8b/sreK7WGNN3m+Hb+PUs+vyqgx27mn2v/BUPwHp6bvGPw/8AiP4EC8mXWPD7CL8CrE/mKST9in40eG44E8G/tU+LrRIuNniCyj1IEduWYfqDUc3wq/bO8K2Pl6f8WvAvjgh+V8RaKbbcvuYkPHsPzoA8i8dftPfDv9pz9tf9mK9+H2sy6tFo1/qUd+s1lNbGFpoEMYxIo3ZEUnK5Hy/Svav+Cr3/ACZP4t/6/dO/9K46+fNasvi/Yftwfs5R/F7RPBek3p1G/Omz+C42SO6TyB5pmDEnKny9vA+89fQf/BV7/kyfxb/1+6d/6Vx0AZ//AAVA/wCTObT/ALDWk/8AodVNM/5SvJ/2S5f/AEpWrf8AwVA/5M5tP+w1pP8A6HVTTP8AlK8n/ZLl/wDSlaALs3/KWuH/ALJh/wC3prV/4Jl/8kU8X/8AY7ax/wCjhWVN/wApa4f+yYf+3prV/wCCZf8AyRTxf/2O2sf+jhQB85+D/wDkzP8Aba/7HbXP/aNfXOj/APKPO1/7Jmv/AKba+RvB/wDyZn+21/2O2uf+0a+udH/5R52v/ZM1/wDTbQB8dfEj/lHv+yZ/2N+kf+3NfW3/AAUr/wCTKfiR/wBe9v8A+lMVfJPxI/5R7/smf9jfpH/tzX1t/wAFK/8Akyn4kf8AXvb/APpTFQB7f8Hf+STeC/8AsCWP/ohK+VtS/wCUt2kf9kzP/pVLX1T8Hf8Akk3gv/sCWP8A6ISvlbUv+Ut2kf8AZMz/AOlUtAH2zRRRQAUUUUAFFFFABRRRQB8eftj/APJ0n7Kn/Yx3f/olK+p/GPg3Q/iD4bvvD/iTS7bWtEvk8u5sbxA8UqgggEfUA/hXyx+2P/ydJ+yp/wBjHd/+iUr64v8AULXS7OW7vbiK0tYV3yTzuERF9Sx4AoA8q0f9kH4IaDMktj8JvB0UyHKyNosEjqfZmUmvQdN8CeGtHVFsPD2lWKx8ILeyjjC/TC8VyGs/tNfCLw6HOp/E7wjYlDhlm1q3Vh+G/Ncrfft0/ADTomkl+LPhmQL2t70TH8kzQB7mkaRjCIqj/ZGKdXylqn/BUX9mzSpGjPj97px/z66PeyD8GEW39azG/wCCpvwWvLcyaHB4t8Sc4C6b4fmbJ9i20UAfYFFfFsn/AAUwgu1U6T8Afi9qIbox8PBVP0Ku1XLj9tz4uarapJ4c/ZX8cXTuCVGq3Edmp9Mkqdv4igD7HwaNpr4x/wCGlf2s9WaNbD9lu201XOPM1HxVbuF9yBtP6VYvvGn7buuJEdM+H/w18O5Pzf2lqc1ycf8AAHGP1oA+xtpo2mvjO30H9urVrpBd+JfhRoVufvPZ21zOw/4C6c/nTrr9n/8Aa81u8M11+0lpGjxNx5OmeF4XUe43rn9aAPsraaNpr42s/wBjX47ajO7eIf2r/E08bfw6TpEVmf0kI/SopP8AgnDe6nLJJrH7Rnxcvmf7wh1zyR+WGFAH2XJKkKlndUUdSxAFZN54x0HT1ZrrW9Otgv3jNdRpj8zXynYf8EufhiY2XXvFnj/xUW+82qeIXyfr5arVyw/4JT/s2WeDL4Kvb4jvca3e/wDssq0Ae56x+0h8KPDsbvqfxK8J2Kp97z9Zt1x/4/XJah+3R+z/AKbE0kvxa8LyAdre+WYn6BM1Q0b/AIJ//s9aHGEg+FehzAd7yN7g/nIxJrqtH/ZJ+CmgzebYfCjwfby/89BotuW/MqaAPL9Y/wCCoH7Nuj8N8Qftjf3bPS7uX9RFj9axm/4Kp/BG6g36OvirX2JwI9P0CdifoWAFfT+nfDjwno6COx8L6NZIOi29hEgH4Ba2oNPtLMAQ2sMKjp5cYH8hQB8cy/8ABTGxulDaP8B/i/qqMcJIvh0Kj+4IkY/pVPxh/wAFC/Hnh7wte+IYv2afHFppFjC1xc32vOtlDDGOruQjlQP90n2r7XM8a9ZFX6nFeC/tva5pjfsm/FmAahaG4fw7dqkXnJvYlOABnJNAHpvwf+IkXxc+FXhHxrDZvp0Wv6Zb6ktpI4dofNjD7Cw64zjNfL/x4/5SW/s3/wDYH1j/ANETV7V+xipX9kv4QAjB/wCEX0//ANELXivx4/5SW/s3/wDYH1j/ANETUAfaCfdp1NT7tOoAKKKKACvEf23P+TRfi7/2Ld7/AOizXt1eI/tuf8mi/F3/ALFu9/8ARZoAs/sZ/wDJpvwg/wCxV07/ANJ0r2WvGv2M/wDk034Qf9irp3/pOley0AfI3j//AJSafC3/ALEfUv8A0aaofGq1lm/4KSfAOZFzHFoGqb2yOMrJj+VX/H//ACk0+Fv/AGI+pf8Ao01U+MzXC/8ABSL4DeXu8hvD+qCTjj7kmP1oA+wY/wDVr9BTsimr9xR7UUADV8e/F3/lJX8C/wDsWdW/9BavsFq+Pvi7/wApK/gX/wBizq3/AKC1AGf/AMFMP9R+z9/2U3S/5PX2lXxb/wAFMP8AUfs/f9lN0v8Ak9faVACrTqatLkUAefftDf8AJB/iL/2Luof+k715x/wTz/5Mx+Ff/YLP/o2SvR/2hv8Akg/xF/7F3UP/AEnevOP+Cef/ACZj8K/+wWf/AEbJQBwf7IX/ACeB+1n/ANhnS/8A0RLX2LXx1+yH8v7X37WjH7v9taWP/IE3+FfYe4f5FADqKikuoYV3SSpGvqzAVnTeLNDtyRLrOnxkdd90gx+ZoA8p/bY/5NI+Ln/YtXv/AKKNWv2Pf+TT/g9/2Kemf+ksdcj+2l8TPCNx+y38VNOi8UaNLqFz4evIYLVL+IyyuYyAqqGyxJ7Cuu/Y9/5NP+D3/Yp6Z/6Sx0AeL/sxqV/b+/auYjhhoOP/AAFavsqvgP4a/GrwP8F/26/2mrvxx4msPDFvqDaNHaSahL5YnaO0y4T1Kh0zj+8PWvYdW/4KTfs46LkT/EyzkI/59bK6uP8A0XE1AH03RXyDdf8ABVz9m63zs8ZX1z7xaJdj/wBCjFNk/wCCpXwYmt1m0238XawrjKGz8PTkN9CQBQB9gV8efA//AJSNftFf9gbRP/RIql/w8+8O3TMum/Bj4u6oM4WS38NqUf3H73P6Vm/sa+INa+KP7Wnxp+JNz4H8T+DdF1vStLhtovEumyWkheIMjLkjax+Td8pOAwzg8UAejf8ABSX/AJMs+JP/AF7Qf+lEde5fCn/kl/hD/sD2f/ohK8s/bq8B+IPiZ+yr478N+F9Lm1rXb23iFvY25UPKVmRjjcQOACevavGvC/7RH7UujeFdJ0iz/ZWdv7PtIbMTXPiu2Tf5caru2lRjOM9e+M0AfcVFfHOm/Gr9sPWlYp8AvC+jt2Go+JUbH/fDEVWn8R/t1ahdFrXwr8KdKgxwl3d3Ex/76ST+lAH2fRXxc2mft337Lu1n4Q6ah+8YYrt2X8GQ5/OrzfCv9srVrfFz8Z/BOkyMOfsWgF9v0LLQBk/s5/8AKSD9qH/r00b/ANJoq6D4i/8AKS74Sf8AYl6n/wCjDWr+yr+yj41+DPxP8efEDx/4/tfHXifxZb2sFzcWunC05hyA7AHbnaEUBVUYXuTmvK/2tvCfjjxp+3f8LNL+HvjOPwF4kfwlfumtSWKXgSMSsXXy3BBLDjPagDuf2EDj4lftO/8AZQ7j/wBAFeC/s0Rt/anxu4/5qZrf84q+uf2Tf2cte/Z9sfGUnibxlF4213xTrH9sXmoRaf8AY/3pjCvld7AliC3GBzgAV83fs/w2ttqfxfCqoLfELWGb3JaPNAH6HtXxz+xz/wAnWftZ/wDYxWH/AKJlr7Gavjn9jn/k6z9rL/sYrD/0TLQB4z8Df2eR+2D48+NWr+PfiP49FpofjvUtIt9F07XHisngSQlAyMG24DBQE2gBBx1r3/w3/wAExf2dPDt59qfwO2sXG7eX1bU7mcMfUqZNpznnIrzrwv8Asf8A7RvgHxb8Sz4H+LXhzwX4d8U+JrvX0aPTPtt2TM5YbvMTahC7VwCw+XOecDof+GMfjV4iVx40/ar8WTQuu14/D9gmmcHr8yv+oAoAr/8ABK/TLXRvhv8AFeysrdbW0t/iBqUMMKDARESFFUDsAqgfhX2xXw5/wSb0k6D8K/ilpxu5r/7L49v7f7VcPvkm2QwKXY92YruPuTX3HQB8X/Grj/go18Lz/wBSPrH/AKBLXyV/wS3/AGYfhp8fLPxnqXjzwtb+IZ9FexjskmmkijQSQln3JGwDkkD7wPtX138X7V77/gpJ8KbeMgPL4K1eNS3TJWUDP514H+zH+zX+1t+y/Y6zY+E7D4eWEesPC13ceItRefmFTGpQRY2gjJ5BPI6dKAPujw7+yV8F/CdwtxpXwq8JWlwvSb+yoXcfiyk16bpug6bpChbHTbOzUDAW2gWMD8hXxBqlr+1DfaXK3if9o/4Y+Afm3M2k2cUwRQezzAHGPUV55fSQzSsvjP8A4KEw3EeNrw+G3trRh6jMUrf+gigD9Ms7R02j9KytS8V6LpGft+r2Fnjr9ouUTH5mvyi1hv2U9NujD4r/AGqPil40HJa3jv7ueB/+BJAw/wDHqxota/YHt7kvpXgvx54/1JPn8iI3kkkvuVaVAR9fWgD9M9e/az+C3hmd4NT+KvhC0nT70J1mBpB9VVif0rzvxN/wUq/Zz8LSGO4+I9tevzj+zbK5uwf+BRxkD8TXyPpfxO+A9nbbfC37EPjDXYl+7JfeG/OJ9Mk+af1r0fQfjV8VrZmPgj9hy20m3yBDNdS29m+MfxKYVx/31QB6Rc/8FTPhLeWvm+GNE8beNHLbRHo2gSHJ9AXKio7X/goH4p8SNInhn9mr4oX7gZRtSsBZI3/AmyPyJrDs/iT+254ij8vR/gt4H8ERqflbVdRSYEfSKb+YFSyeG/2+PEbL5nin4Y+GImOGFvDJI6D1AMMgJ/4FQBpQ/tL/ALV/iJohpP7L0GkpI2PP1jxNDtUerL8jD8AaWfUP26/Ecs32XSvhP4Vt3/1a3U91NKn/AAJSwP8A3zWa/wCyv+1rrildU/akjsVflhp2gxgr9CNh/Wo4f+Cc/j7XFD+MP2ofiJqs+Tk6XcPZx4/3DK4oAwvi3+yn8efivpWn6r8Wvip4YvNP8M+fq8el6Lo5R96wOGCyHaTlcjnIGc4rxf8A4J8/8nQfBn/sk83/AKcbmo/2v/2QdO/Zjuvhv4h0/wCIHjTxRqmp6zLayya5qQkEai2kbKbVVgTyDljkEj1p/wDwT4/5Of8Agz/2Seb/ANONzQBk/Bn/AJOE0r/sv+rf+k7Vf/4KFf8AJUP2mv8AsWPDP/pfb1Q+DP8AycJpX/Zf9W/9J2q//wAFCv8AkqH7TX/YseGf/S+3oA+lP2sP+Szfso/9fF//AOkArxn4X/8AKFjxB/166j/6cWr2b9rD/ks37KP/AF8X/wD6QCvGfhf/AMoWPEH/AF66j/6cWoA9S/Yq/wCTyPjF/wBij4V/9N8Fc1+zj/yb3+2h/wBjb4l/9EV0v7FX/J5Hxi/7FHwr/wCm+Cua/Zx/5N7/AG0P+xt8S/8AoigD6H/Y00uLXf2F/h7pk0/2WK98LfZ3m4/dq6upbn0zmvnL4J/Bb4u/CHwhbeHfhT+1L4B1fwzYhvsmnXOnwPEju7PJhg7t8zsxOWPJOABxXvf7Lf8Ayjz8J5Gf+KMl/wDRUtfOv7Cf7DvwX+Pn7I/gzxN4z8HJf+IbuS9SfUre9uLaWRY7uaNAfLcLwiKOnOOc0AeqWmqftyacI2hm+D3iuENyYZbiN5F9M5RQSPrV26/aC/a68N3Riv8A9m/R/EMagEz6N4mijVvYbyWz/wABqZ/+CVfwTshnw/N4s8KzZyJtJ1+ZWH/fe6qyf8E359Jukn0L9oP4taaYzlEk1wSqPw2gH8aAHN+3R8UPDlgJ/Fv7Lfj2wbdtYaKyagPw2oCfyp1p/wAFOvBttMY/Evwx+J/hMKMtJqfhw7R/3y5P6VHP+x7+0Lo7k+Hf2sNbWPtHrGhQ3bfi7P8A+y1I3wh/bM8NWHl6Z8a/BviuQdBrugiDd7Fo0OBQB4v40/ak+H37T37bX7M114B1C7v00O/1GHUFu7KS2aJpYVMYw4Gc+VJ0zjHPWvcP+Cr3/Jk/i3/r907/ANK468C8SaX8Z9L/AG3f2bE+Msfg37Y1/qH9lzeDo5ESRBCvnef5gBJz5W3A7vXvv/BV7/kyfxb/ANfunf8ApXHQBn/8FQP+TObT/sNaT/6HVTTP+Uryf9kuX/0pWrf/AAVA/wCTObT/ALDWk/8AodVNM/5SvJ/2S5f/AEpWgC9L/wApaoj/ANUw/wDb01rf8Ezl2/BXxd/2O2sf+jhWTJ/ylojH/VMf/b01r/8ABNE/8WW8W/8AY66v/wCjRQB84eD/APkzP9tr/sdtc/8AaNfXOj/8o87X/sma/wDptr5G8H/8mZ/ttf8AY7a5/wC0a+udH/5R52v/AGTNf/TbQB8dfEj/AJR7/smf9jfpH/tzX1t/wUr/AOTKfiR/172//pTFXyT8SP8AlHv+yZ/2N+kf+3NfW3/BSv8A5Mp+JH/Xvb/+lMVAHt/wd/5JN4L/AOwJY/8AohK+VtS/5S3aR/2TM/8ApVLX1T8Hf+STeC/+wJY/+iEr5W1L/lLdpH/ZMz/6VS0AfbNFFFABRRRQAUUUUAFFFFAHx5+2P/ydJ+yp/wBjHd/+iUrpv+Ck3/Jl3xH9Ps8H/pTFXM/tj/8AJ0n7Kn/Yx3f/AKJSvfvj98G7D9oD4R+IfAWpX9xpdnrESxteWqq0kZV1cEBuDyo49KAPH/hD+w18BW+HPhe+n+F2g3t3d6Xa3E015bmYvI8KszfOT1JNemaN+yt8F/DbFtP+FvhCzY9WXR7fJ+pK14Gv/BNu7kEcdx+0T8Wmt441ijht9a8pERRgKqgEAAdABVuH/gl/4EuFA1r4j/E/xCf4hqHiPIb8FjFAH01b+GPAvhmPy4dK8PaVGP4Y7eCED8MCm3HxF8BeHoyZ/E3h3TYx1330EQ/9CFfN6/8ABKX9nmVhJe6DrOpTfxS3WuXJZvqQ4re0f/gmZ+zdou3y/hzDdEf8/moXU3/oUpoA9H1L9rb4JaPIY7v4s+DIJF6xnXLYsPwD5rBvP27v2frFSX+LPhp8dobsSf8AoINTWX7DP7P9goEfwk8Lvj/ntYrKf/Hs10ejfst/Bzw8GGm/C7wjZhjk+XotvyfX7lAHkep/8FQ/2bNLmeJ/iC1xIv8Az7aReyqfowh2n86zLf8A4KqfAPUZmh0vUvEOsTD/AJZ2Og3Lsfw2ivpzTfhv4R0dQLDwtotkB0+z6fCn8lrZttKsLPm3sreA/wDTOJV/kKAPj24/4KfeEJLgRaR8Kfin4gDfdksPDuVP/fUgP6UW/wDwUQ1zVrpINJ/Zq+LN07dPtOkfZx+LHIH519mcDtRkelAHxxf/ALYvx4upQNC/ZP8AEs6E/e1TV4rU/wDotv51Xb9o79rnUJEWz/ZesbBWP+svfFVu4X6gMp/Svs/Io3UAfHV/44/ba1eBf7M+HPw40J273+rSXGPqFYVVaz/by1GNf9P+D+lE9di3jMv5qwr7P3UbqAPjyb4T/tla5ZeXd/GvwbocrDltN8PCQqfYuvP4iqI/ZX/an1GMrf8A7WElrn/nz8K2/wDMMhr7R3UbqAPju3/Yh+Kl9Ay67+1P49upGGHbT40tVP0G5sdfWqcf/BNQ3AYal+0L8YL3d12+INufzVq+0d1FAHx1Z/8ABLf4YEg6x4r+IHiN/wCJtS8ROS312KtWbf8A4JT/ALO0M/nS+GdUupd27fNrl2Gz65WQHNfXlGRQBj+EvCeleA/C2k+HNDtFsNG0q1js7O1QkiKJFCquTycADrXyN8eP+Ulv7N//AGB9Y/8ARE1faDV8X/Hj/lJb+zf/ANgfWP8A0RNQB9oJ92nU1Pu06gAooooAK8R/bc/5NF+Lv/Yt3v8A6LNe3V4j+25/yaL8Xf8AsW73/wBFmgCz+xn/AMmm/CD/ALFXTv8A0nSvZa8a/Yz/AOTTfhB/2Kunf+k6V7LQB8jeP/8AlJp8Lf8AsR9S/wDRprjf2xfid/wpn9sn4NeML/RdZ1TQbHRtQFydGsHupWZtyKigcZy4Jyelej+Ntzf8FEPhyDCuxfBt+RN/FkyH5fpjmvW/ip+0D8OfgxfafaeOPGGmeGrm/RpLWG+lKtMqkBioAPAJAoA8EuP+Cj2m/YY7qx+CfxZ1ESHhIPD6k/jiQ1Vsf+Cg/ifWpmi0v9mf4rTvjI+1aX9mH5txXZ+I/wDgor+z34TYC/8AiHDz0+y2F1cZ/wC/cZrm7j/gqp+zbbqCnje+ufaLQ70H/wAeiFAFLUv2yPjtOEGi/soeKLhmPP8AaOqRWwA/74b+lc78PdP+N/xo/bI+HvxI8c/B2X4b6D4c0m+sJJJNYgvA5lRtpwuGB3EDG3HU57V1Np/wVP8AgVqm46bP4o1TacZtNBnfn06V1fwl/b4+HXxg+K2meANJ0nxTp2talBNcWsmr6U1tDIsS72GWOegbBxjIxnJAIBX/AG8vgf46+NHhX4eyfD+z0/UNb8MeKrbXvs+o3Qt43WKOTb8xHI3lMjrjOK49tY/bv1CZjDoHwk0uEn5UuJ7qRl+pWQ5/Kva/2n/2ntF/Zc8J6Jrer6Fq3iF9Y1NdKtLHR1jaZ5mjeQDDsuciMgAZJZlAHNeMWv8AwUJ8VatIyab+zJ8U5GX/AJ/NP+zD82FADY/D/wC3bqFyFn8TfCbSoO72ttcyt+CvH/Wrl18H/wBsbWLYpN8dvCmju38Wn+G0cr9C64/Si8/bH+N1xCx0r9lTxZJJj5RfalDCp+p2nH5VTi/ap/akvFIg/ZNmjfsZ/Fduo/8AHkFAFDVv2RP2nPFui32leIP2pBNp9/A9tdWsXhWArLE6lXUlWQgEEjgg819Mfs8/CX/hQ/wY8KeARqZ1r+w7T7MdQaHyfOO5mLbMnaMtwMnjua+ZNd/ac/a30XRdU1q+/Zz0TRtK0y1kvLma88SQykRopZiBG+SQATjHNfSX7NPxYvPjp8CfBvjy/sINMvdcs/tMtpbMzRxsHZSFJ5x8uefWgDxD4gf8E7rLxt8U/FvjbTvi1478GT+Jbpbu9svDl4trGzKgQZKjLAYON2cbjjqazF/4Ji6FcMp1L41/FzVEHWOfxEu0/wDkPP61l6p8dv2mfid8fvip4M+E0Hw/h0bwXqEFm7eJIrlZissIZW3o5DEssmflGOOtav8Awjf7dt9MBN4q+EumQnq1rbXMrD8Hi/rQBeh/4Ja/BqRT/aV74x1hj1a88Qzf+y4qS0/4JR/s3Wzbn8H6hdf9dtau8f8Ajsgpp+Ev7Y+owkXPxw8H6c5/58/Davt+hYCsxf2Z/wBrW6cm4/amt4AT0g8K2xx+goA7iw/4Jr/s46aB5Xw2tX/6+L25l/8AQ5DX0R4c8Pab4R0DTtE0eyi07SdOt47S0s4BiOGJFCoijsAAAPpXwZ8bvgT+0d8K/hN4t8cah+1Pq2rRaDpk9++n2nh+G0M+xMhBIJDsz/e2nHpX1x+zH4l1Pxl+zn8Mde1q8k1DV9S8N6fd3l3LjfNM9ujO5xxkkk/jQBe1v9n/AOGXibxRdeJNX+H/AIZ1TX7raLjUrzSoJbiXChRudlJOFVRz2UelXtP+DvgHSObLwR4bs8d4dJgT+SV8MzfCDWv2ov21vj74d1H4q+PPCWkeF30p7Kz8O6xJDEVmtF3LsYlFAaPcNqjJdiSeK9Mh/wCCZfh+Rduo/Gb4t6omPuXHiQbffgR96APrKPw74ftVJj0vS4gv923jXH6VI2saJp67WvdPtlH8JmjT+tfJ8P8AwSx+D8hJ1LVfGmsE9ftniCU5/wC+QKkX/glD+zkW3S+GNUnbuZNbuiT/AOP0AfUFx8QvCtmuZvEmjQj/AG76If8As1SeHfHfhvxfPcw6Fr+l6zLbBWmTT7uOcxg5wWCk4zg9fSvnLTf+CX37Nmm8r8PjcH/p51W8k/nLXCfsj/Dfw38JP25vj14V8I6TDomgWOi6P9nsoSzKm9C7HLEkksxPJoA+zvFXizRvA+gXuueIdUtNF0eyTzLm+vpVihiXIGWYnA5IH415DN+3R+z/AG6kt8W/C5x/cvg/8s1zX/BST/ky74jnuLeDH/gRHXSfCX9l34PwfD/wxfL8MPCZvLnTLWea4bR4GeSRoULMxK5JJ5JoAwNX/wCCjv7OWjLul+J2n3A5z9jtricj8EjNc9cf8FUv2aolynj24mP92PQ78H/x6EV9B2fwT+HmnsTa+BPDVuf+mekW6/yStu38F+HrNdsGhabCvpHaRqP0FAHyrB/wVX+AF7I0djrGvag6jJW10K4Y/ltpLz/gp58NljLad4S+IWsHOAtr4ckG76biK+t4dD062yYbC1iz12QqP5Cre0LwBigD5/8A2Z/2zPDP7TniPxHoekeGvE3hjVNCt4bm5tvElrFA7JKzqMKkjkEFOjAcMCM14j+1Z8OdQ+Kn7evws0DTPGGseB7mTwjqEn9raG4W5VVlYlATxhuhrY/Zv/5SRftRf9eWjf8ApNFXQ/Ej/lJZ8J/+xK1T/wBGGgBv7AbeIdNuvjL4d1/xbrPi/wDsHxfJp9pea3etczCJIlUHkkJuKliq8AngV4f+zxp15HrHxpM2SZPiRrLrlh90mLHevav2Em3fEn9pvrn/AIWJcjkYP3RxXiX7Oerz3mqfGjzDnyviRrUS/wC6GjxQB+lbV8c/sc/8nWftZ/8AYxWH/omWvsZq+Ov2N/8Ak6z9rP8A7GKw/wDRMtAHk3wh+GXxC/bC8X/GW61346+OvDGk+HfGt/odrpfh67FughikJTBUDACsq9P4ec5r1S3/AOCYvgm8jC+J/iT8TPF6Zy0ep+ISUYehCoDj8a4fwT8B/wBrL4LeNPiWvw5f4dQ+H/FPim+19bjXp7iWY+dISmAiDaNmwFSD8wbnGK7pfhV+2frwYaj8aPBPhoHp/Y2gi5x7jzUH60AZH/BKPRbbw78LfihplmGW0tPHmoW8KyMWYRxxQIoJ7nCjnvX29Xw//wAEn7XUbH4W/FK31W9XUb+Hx7qEc92qBBNIsUAkk2gDG5wzY7Zr7goA+MvjNI0P/BRz4YOjMjr4H1hlZTgghZMEGvjj9gX9mTw7+2la+ML74n6/4o1Z9GeySGJdXkKyebEXdnL7iTkdiK+yfjFA91/wUf8AhdDEu6STwRq6KucZJWQAV8y/sY6H+0l+yZYeJLHTf2edS8Ty61JbNJJe6pBYiAwxlMKSWDgk5zx075oA+rdJ/wCCVP7OGlzRSP4Nu75k/wCfrWLtg31AkAP5V6Bo/wCwZ+z9oahbf4UeHJVH/P5a/aT+chavLYfjf+2PrkpFr+z94b8PRdn1fxJHMP8AyE+f0qC71z9ufULjdDp/wh0S3P8ADcXFzIV+pDH+VAH0xoPwD+GnheNI9I+H/hjTUT7otdIt02/TCV19nomn6ewNrY21uR0MUSr/ACFfGE2i/tj6hg6z8XvhZ4TTv/Z9m023/v6gzXOar4E+OoZ5dX/bZ8NaTEPvC30mxQL+bqaAPv8Aor81b7QdLuWaLxP/AMFBXdl/1kel6nZ2be+NkxIrnLjwP+zwJN+r/tsePNTwfmVPFRfd+SNQB+pElzFDzJKiD/aYCsq88aeHtOOLvXtMtT/02vI0/m1fldrWnfsJW7rH4i+LXjTxXu6rc3uoXSNjrkxw8fnWSurf8E5NGmWSLSvEGrFe2NTKn6h3WgD9OvEH7SPwn8Ktt1n4l+E9MbOAt1rVvGSfxeuUvv24vgDYnEnxb8Ktj/njqCS/+g5r4bs/ip+xba28M/hv9nfxJ4qDfd+z+H3mDD1zLNgiui0z47fA+znWfw9+xZ4nnuk+46+DLfI/EBsUAZ3/AAUC/ae+GPx0b4Y6L4E8WWviTULDXZri4S0STaiNbOincygHLEDg5rlv+Ce3/Jz3wa/7JRP/AOnG6r0jxB+2roui2sWmXn7L2ufD2PXBPpltq2oadFYskjwv8yBoULYBycN0z9K83/4J7f8AJz3wa/7JRP8A+nG6oAyvgz/ycJpX/Zf9W/8ASdqv/wDBQr/kqH7TX/YseGf/AEvt6ofBn/k4TSv+y/6t/wCk7Vf/AOChX/JUP2mv+xY8M/8Apfb0AfSn7WH/ACWb9lH/AK+L/wD9IBXjPwv/AOULHiD/AK9dR/8ATi1ezftYf8lm/ZR/6+L/AP8ASAV4z8L/APlCx4g/69dR/wDTi1AHqX7FX/J5Hxi/7FHwr/6b4K5r9nH/AJN7/bQ/7G3xL/6Irpf2Kv8Ak8j4xf8AYo+Ff/TfBXNfs4/8m9/tof8AY2+Jf/RFAH0L+xzo0niL9hHwBpUMixS33hU2qSP91S6uoJ9hmvB/gf8ACD9sz9mv4d6P4E8MWfwv1fw7pbStF9qurlp3Msryvl8IPvu2Pl4GBz1r6P8A2Cv+TPfhP/2Aof5tXvtAHxpffGT9svw+6Cf4C+FPES5wx0jxEkXbr+9cfyNRQ/tZftKafdKNX/ZP1IW/8T6d4jguG/ABMfrX2hRQB8aX3/BQDxd4fulg139mP4o2rEZ3afYi8H5oMfmaW1/4KaeGIpjHrPwk+K3h/HVr3w2SP/HXJ/Svsqk2j0oA/Mrx1+1B4L/aR/bn/Zn/AOESXVYptEvdRW9g1bT3tJEMsKbMBuufKf8AKvcv+Cr3/Jk/i3/r907/ANK46x/2tYI4f26/2SykaoWu9Y3FVAz+6h61sf8ABV7/AJMn8W/9funf+lcdAGf/AMFQP+TObT/sNaT/AOh1U0z/AJSvJ/2S5f8A0pWrf/BUD/kzm0/7DWk/+h1U0z/lK8n/AGS5f/SlaALsn/KWyH/smH/t4a1f+CZ3PwU8X/8AY7ax/wCjhWVN/wApbIf+yYf+3hrU/wCCZv8AyRPxf/2O2sf+jhQB85+D/wDkzL9tr/sdtc/9o19daP8A8o87X/sma/8Aptr5G8H/APJmP7bP/Y7a5/7Rr650f/lHna/9kzX/ANNtAHx18SP+Ue/7Jn/Y36R/7c19bf8ABSv/AJMp+JH/AF72/wD6UxV8k/Ej/lHv+yZ/2N+kf+3NfW3/AAUr/wCTKfiR/wBe9v8A+lMVAHt/wd/5JN4L/wCwJY/+iEr5W1L/AJS3aR/2TM/+lUtfVPwd/wCSTeC/+wJY/wDohK+VtS/5S3aR/wBkzP8A6VS0AfbNFFFABRRRQAUUlLQAUUUUAfHn7Y//ACdJ+yp/2Md3/wCiUr6/LBetfIH7Y/8AydJ+yp/2Md3/AOiUr0j9ubx9r3wv/ZZ8d+JfDOoy6TrljbRNbXsIUvFunjViu4EZ2kjODjNAHu3mL60u4f5FfEnhP9kv40+OfCeia1qH7U3i+JdTsYLwwWdjFD5fmRq+0EPzjOM4HStKT/gnr4n1Ef8AEy/aa+LM7d/s+sGFfyBNAH2VSM6pyzBfqcV8W/8ADsu3mbN58ffi9c+v/FQDn80NaKf8EyPAU0YTUfiF8StU9ftXiRyD+ASgD66fULWMEvcwqB13SAf1qjceLtCs/wDj41rToP8Arpdxr/M18nL/AMEoPgFPIJNQsfEOruP4rzW52Pv0Iq5F/wAEpf2bI+vgy+k/3tavP6S0AfSl18UPBtihe48W6HAq9TJqUIx/49XK6l+1N8G9HkEd/wDFXwbZueiz67bITjr1evONP/4Jt/s46ZGqL8NbOYKMZuLu4kP4lpOa3LP9gr9nmx/1fwo8POf+m0LSf+hMaANO6/bU+A1nnzPi94PbH/PLV4ZP/QWNZ037ef7PlurM3xY8OnH9y4LH9BWrH+xj8BoVCr8IPBxA/vaNA381rd0f9m34S+H4fK074ZeFLOPOdsWi24H/AKBQB5Pq/wDwUw/Zx0bmX4kW84zj/RNPup//AECM1i3H/BVj9m6Fcp41vbg/3Y9Cvc/+PRCvpC3+FPge0x5HgzQIcf8APPSoF/8AZK1oPC+iW3+p0Wxi/wBy1Rf5CgD5StP+CqnwL1Mv/Zs/ifVQpwTZeH5359KbqH/BTrwHGoOm+APiTrGegtvDbqT9N7gfrX10tjY2vK2sEI9o1Wntf20fBnhX2Mij+tAHxvD/AMFLLe8TNl8AfjFdt2CeHBj8xIaLf/goZ4r1K48nT/2YvipI3Y3emG3H5suP1r7Dm1qwt13S3ttEvq8ygfzqhceOvDlqcT+INJhP/TS9jX+bUAfLk/7ZHxnuY1bTf2VPGD7un2vUIYh/6DWbF+1Z+1Hd/wCp/ZNuEH/TbxVAv80FfVMvxS8GwAmTxdoMYHXdqUI/9mrF1D9ob4X6SCb34jeFrUDqZdXt1H6vQB85/wDDQX7YOoSBLb9mbSdPVv8AlpeeKrZwv1CyA/pWT8SP2gP2vfh78O/EHi7V/hh4A0jS9Gs5L25lbVJbiRI1GSRGsg3H2yPrX0K/7YXwMjYhvjD4IB7j+3rX/wCLrxf9r39qz4OeMv2Z/iV4f0L4m+GdZ1vUtDubazsLHUoppZ5WXCoiqTliegoA+ivgP8Qbr4sfBbwP4zvraKzvNe0e11Ga3gJMcbyRqzBc84yeM181/Hj/AJSW/s3/APYH1j/0RNXtP7GH/Jpfwg/7FfT/AP0QteLfHj/lJb+zf/2B9Y/9ETUAfaCfdp1NT7tOoAKKKKACvEf23P8Ak0X4u/8AYt3v/os17dXjH7Z0K3X7KfxUhdtiSeH7pGb0BQjNAC/sa/8AJpvwf/7FXTv/AEnSvZQa8k/ZJt1s/wBl/wCFMCHKReGbBFPsIEFetLQB8s+OrqD/AIeLfDO3Yt9o/wCEN1F0x0x5hBzXGftFaHp3ib/got8A9N1ewtdU06bQdUMlpewrLE+FdhlWBBwVB/AV0fj7/lJl8Lv+xH1L/wBGmsn43/8AKSr9n3/sA6t/6LkoA+o7X4T+CbNg0HhDQomHQppsII/8drWh8J6JbDEOj2EQ/wBi2Qf0rVooArQ6ZZ2/+qtYY/8AcjAr5C+LGf8Ah5T8CsnJ/wCEZ1b/ANAavsavjv4tf8pLPgX/ANizq3/oDUAZ3/BTL/j1+AH/AGU3S/5PX2rXxV/wUy/49fgB/wBlN0v+T19q0AFFFFAHnv7Q3/JB/iLyR/xT1/0/693rzf8A4J6/8mY/Cr/sFn/0dJXpH7Q3/JB/iL/2Luof+k715v8A8E9v+TMfhX/2Cz/6NkoA4P8AZA/5O+/a0H/Ua0v/ANES19jV8cfsf/8AJ4H7Wv8A2GdL/wDRE1fY9ABRRRQB4j+25z+yN8XP+xbvP/RZq5+x7/yaj8H/APsU9M/9JY6qfttf8mj/ABc/7Fq9/wDRRq3+x7/yaj8H/wDsU9M/9JY6APFP2Y1z/wAFAP2rj7aD/wCkpr7L2mvjb9mH/k/79q//ALgP/pK1fZdADdpo2mnUUAN2mvj/AOB3/KRb9oj/ALAuif8AokV9hV8e/A7/AJSLftEf9gXRP/RIoA6b/gpJ/wAmW/Ej/r2g/wDSiOvc/hX/AMkw8If9gez/APRCV4Z/wUk/5Mt+JH/XtB/6UR17n8K/+SYeEP8AsD2f/ohKAOpooooAKa1OprUAfFH7N/8Ayki/ai/68tG/9Joqxv2rvh7q3xQ/by+F2g6L4z1bwFfS+EL+QazohAuUVZSSgJI4boa2f2b/APlJF+1F/wBeWjf+k0VY37Vnwi0343ft7fCvwvq2q6zo9pL4R1Cc3Wg3ptLkMkrEASAHAPcY5oA+gf2X/wBma1/Zt0zxNCninVfF+oeItSGp32pauqCV5vLCE/KOScZJOSSa+Nf2af8AkKfG7/spuuf+hRV7V/wTl0mfwrq3x88MHV9S1ix0LxrJp9pLql09xKI0jABLMTycAnGMmvFf2af+Qt8b/wDspuuf+hRUAfpy1fHX7G//ACdZ+1n/ANjFYf8AomWvsVq+Ov2N/wDk6z9rP/sYrD/0TLQB9iUUUUAfGH/BMD/kRfi9/wBlE1X+UVfZ9fGH/BMD/kRfi9/2UTVf5RV9n0AfGnxhne1/4KQfC2aJtskfgjV3VsZwQshBr5Y/Yy8I/Fj9ty18W6jr37QXjzw4ujzWoEWkX7R+a00Zc/cZAoHQACvqX4yxtL/wUc+F6IrO7eB9YCqoySdsnAFfI37Afxv1r9kfS/F9j4h+EPxE1y51qW0eNNI0CUmEwxlGWTzAuDk8Yz07UAfVzf8ABMs3yj+0v2g/i5fOfvE67gH/AL6DVYi/4JV/De7tjDrvjf4ieIlbhvt2vZDeoICY/SpP+HjmoTITa/s3fGO4Pb/inWA/ME0sf7e/xC1A/wCgfstfEuQHp9rtfs//AKElAElj/wAElf2dLRcTeHtYvj/euNZnB/8AHCtb+j/8Ev8A9m3R5vNT4ffam9LzVLuZfyaXFY//AA2N8cLqPNl+yj4qY9vtOsQRfnlKoTftWftRSN/o37J9wEP3TN4otwfxG3igD1Wz/YJ/Z7sGBj+E3h1z/wBNrcy/+hMa3LX9jv4GWMiSQfCLwbHInKv/AGJbkj8SteIQ/tJftb3jbY/2WrSAno0/iy2AH15FWZPjB+2ZdqPI+BHhGxJ/5+PEiSY+u2SgD6Xsfg74D01Alp4J8PWyjoItLgUfotbtt4Z0ezXbb6TZQL6R26KP0FfJK+Mv24L7iLwD8L9OJ6NdahcPj/vmSqst5+3nM3y2Xwftx7NdnH5saAPs2G1gts+VCkQ77FA/lUo56V8Ww6Z+3fdP+/1X4Q2ye0V0+P8AxyrzeAv2175R5nxK+GunE9fs+lTOR/30lAHK/wDBVaRY9D+EOeD/AMJHN/6SSV4D/wAE9lP/AA098Gv+yTz/APpyua9l+L37H/x/+J2nWWr/ABQ+L3h3WtK8LmbVYrKw0Py23LC4YKy7OSvHzZAznHFeO/8ABPX/AJOg+Dn/AGSef/05XNAGN8Gf+ThNJ/7L/q3/AKTmr/8AwUK/5Kh+01/2LHhn/wBL7eqPwb/5OC0j/sv+rf8ApOavf8FCv+SoftNf9ix4Z/8AS+3oA+lP2sP+Szfso/8AXxf/APpAK8Z+F/8AyhY8Qf8AXrqP/pxavZv2sP8Aks37KP8A18X/AP6QCvGfhf8A8oWPEH/XrqP/AKcWoA9S/Yq/5PI+MX/Yo+Ff/TfBXNfs4/8AJvf7aH/Y2+Jf/RFdL+xV/wAnkfGL/sUfCv8A6b4K5r9nH/k3v9tD/sbfEv8A6IoA+nP2Cv8Akz34T/8AYCh/m1e+14F+wV/yZ78J/wDsBQ/zavfaACiiigAooooA+Jv2uf8Ak+n9kn/r71j/ANFQ1q/8FXv+TJ/Fv/X7p3/pXHWV+1z/AMn0/sk/9fesf+ioa1f+Cr3/ACZP4t/6/dO/9K46AM//AIKgf8mc2n/Ya0n/ANDqppn/ACleT/sly/8ApStW/wDgqB/yZzaf9hrSf/Q6qaZ/yleT/sly/wDpStAF2b/lLZD/ANkw/wDbw1qf8Ezf+SJ+L/8AsdtY/wDRwrLm/wCUtkP/AGTD/wBvDWp/wTN/5In4v/7HbWP/AEcKAPnTwf8A8mY/ts/9jtrn/tGvrnR/+Uedr/2TNf8A0218jeD/APkzH9tn/sdtc/8AaNfXOj/8o87X/sma/wDptoA+OviR/wAo9/2TP+xv0j/25r62/wCClf8AyZT8SP8Ar3t//SmKvkn4kf8AKPf9kz/sb9I/9ua+tv8AgpX/AMmU/Ej/AK97f/0pioA9v+Dv/JJvBf8A2BLH/wBEJXytqX/KW7SP+yZn/wBKpa+qfg7/AMkm8F/9gSx/9EJXytqX/KW7SP8AsmZ/9KpaAPtmiiigApGNLTCaAClWmZNOXtQA+iiigD48/bH/AOTpP2VP+xju/wD0SlerftlfCvX/AI1fs2+NfBvhiK3m13UraNbaK5lESOyzI5G48AkKcZ4z6V5T+2P/AMnSfsqf9jHd/wDolK+wKAPi3wzrH7aug+GdJ0W18AfDO3h06zhs45brVJnZljQKCdr4zgU6bUP28biQmPTfhDaoeil7tsfjvr7QooA+L1s/28brAe++D9sP928OP/HTVoeEP24LtAJfHfwtsc9fs+n3DkfTdHzX2NRQB8cf8Kj/AGzLv/W/HHwhY56/ZvD6yY+m5Kik/Z5/a7vP9b+09p9t/s2/hO1/ntFfZlFAHxYf2WP2qbj/AF37V7p/1y8LQD+TCr1p+yL+0HNGV1L9rDXGY97PQIIh/wCh19i0UAfHM37D/wAV77H2v9qvx1IO/kW6Q/lh6iP/AATz8T3XN5+098XJG7/Z9ZaEH8A1fZi0uRQB8Xv/AME13nH+kftEfGKY993iL/FTS2f/AATH0SOQtefGr4tX4P8ADJ4i2/yjr7PyKMigD5Cb/gmP8ObhQLzxp8Rr09zN4mkO76/LVWb/AIJRfAq8GL9PFGpd/wDS9dlb+WK+x8ijIoA+P4P+CT/7OEP3vCmozf7+tXX9JBViP/glR+zWmM+B7t/97XL7/wCPV9cZFGRQB8zaf/wTZ/Zx05Aq/DWzmA73F3cSH8zJWtD/AME+/wBneHG34UaGcf3xK383r6DyKMigDw23/YZ+AFt9z4R+Fj/10sFf/wBCzV1f2MfgOq4Hwg8F/jokB/8AZa9lyKM0AVNL0my0LTbXTtOtYbGwtYlhgtrdAkcUajCqqjgAAYAFfHPx4/5SW/s3/wDYH1j/ANETV9oNXxf8eP8AlJb+zf8A9gfWP/RE1AH2gn3adTU+7TqAEJpM0lITQA4H1rxj9tGGS6/ZP+K8UPMr+HbxV+vlmvZQa8Z/bOuHs/2UfivPHw8fh67ZfqIzQBZ/Y/WRf2VfhIsufNXwtpwfPXP2dM16+teQ/sh3TXv7LXwnuGGGm8M6fIR7mBDXry0AfJPj7/lJl8Lv+xH1L/0aayfjf/ykq/Z9/wCwDq3/AKLkrW8ff8pMvhd/2I+pf+jTWF+114Y+KOh/tTfCv4peAPhvdfES38PaRfWs1nb30VqvmykqFZmJK/K5YEKQSMeuAD7Vor4p/wCGrv2ppP8AV/snTL/v+KIP/iBSr+1F+1e54/ZTUf73iq3H9KAPtWvjv4tf8pLPgX/2LOrf+gNVQftJftbTAeX+yxaxn1k8XWuP5isbwD4Y+PfxW/bE+H/xJ+Ifwss/AOheG9Jv7KWWDXILzeZYyEG1W3bix9MYByRwCAaf/BTL/j1+AH/ZTdL/AJPX2rXyv/wUA+C/j34v+Efh5P8ADzSrTWtb8L+LLXXmsbu6W3WVIkfA3MQPvFc85xnFc5/ws/8AbWl+58H/AAJAf+mutFsflJQB9l0V8bx+OP23rjO34dfDKAdhLqU5/lJSv4i/bmuB+78K/CO1/wCul3dt/KSgD6F/aG/5IP8AEX/sXdQ/9J3rzf8A4J6/8mY/Cv8A7BZ/9GyV5J4u0j9uPxx4X1fw/qOmfCOLTtVtJbK5NrNeLKI5EKtsYsQGwTgkHHoa+i/2UvhfrPwV/Z38EeCdea2l1nRrHyLk2cheLfvZsKxAJHzdcUAeJfsgf8ngfta/9hnS/wD0RNX2PXwrq3wB/ac+HPx++K3jH4S33gFNH8a6hBdufEMtw8wWKLaq7EjwpBaTPJzx0rftNI/brk3faNc+EUHTG2C7fP8A44MUAfZdFfIC+E/225s7/HPwtt8dNum3DZ/Najl+H37a1xgH4o/DmD3i0eX+qUAerfttf8mj/Fz/ALFq9/8ARRq1+x6R/wAMo/B//sU9M/8ASWOvn7xz+zn+1x8S/ButeF/Efxi8EzaLrFs1neW0WiMvmRMMMocIGXI4yCD719V/BXwDL8KfhB4K8GT3iahP4f0a00yS7jQoszQwrGXCkkgErnFAHzb+zD/yf9+1f/3Af/SRq+y6+L/G37Hfxig+PnxA+I3ww+Mtj4CHi+S1a7tn0JLyQrBAkaKzSll4IdgVUH5+c4GEP7Nf7WUgw/7VUK/7vhG1H+FAH2jRXxQf2W/2qZD8/wC1e6/7vhaAf+zCgfsnftPyMPM/a0vAP9jwxD/8doA+16+Pfgd/ykW/aI/7Auif+iRVeH9kr9odl/0j9rDW2PbyfD8Cf+zmu7/Zt/ZP1j4I/Efxl448SfEe++IfiDxNa21pPdXthHbMqw52k7WOeCB0HA70AU/+CknP7FvxI/69oD/5MR17j8K3H/Cr/B/P/MHs/wD0QlYP7Qvwatf2gPg/4j8A3upz6Pb6xCsTX1tGsjxFXVwdrcEZUAjjgnkda+dLb9gHx1bWcNon7T3xEitoUEUUVuVjCIAAqjD8YAoA+0dw9aNw9a+Kz/wTv8TzNun/AGn/AItsf+mWsPGP0epV/wCCdOrkYk/aW+Mjj28QuP8AGgD7P3D1pGYV8Yt/wTfkkXD/ALRHxkfPXPiP/wCxqI/8E0beRsyfH74wOfX/AISEZ/8AQKAGfs3t/wAbIv2of+vLRv8A0mirofiN/wApLvhGf+pL1T/0M12P7NX7Gnhz9mfxN4l8Qab4o8S+K9Y1+CG3urvxHcxzybYixHzLGpYncBlieFAGK8N/a6+F+kfGD9uj4V+HNb1/VfDVjL4S1CY6ho1/9juEZJSQBJ2B6Ed6AO5/YOYN8Sf2nSP+iiXP/oIrwT9mn/kLfG//ALKbrn/oUVfaX7Mv7O/g79nnRNfs/COtalr41i+W+vrzVL5buVphGqcuoHYZ55ya+Lf2af8AkLfG/wD7Kbrn/oUVAH6ctXx1+xv/AMnWftZ/9jFYf+iZa+xWr46/Y3/5Os/az/7GKw/9Ey0AfYlFFFAHxh/wTA/5EX4vf9lE1X+UVfZ9fGH/AATA/wCRF+L3/ZRNV/lFX2fQB8gfEj/lJx8H/wDsT9U/9nr6/r5A+JH/ACk4+D//AGJ+qf8As9fX9ABS7TQtOoAbzRzTqKAG80YNOooAbtNG006igBu00bTTqKAOW+KH/JM/Fv8A2Cbr/wBEtX5ff8E9v+Tnvg3/ANknn/8ATlc1+oXxS/5Jn4s/7BN1/wCiWr8vf+Ce3/Jz3wb/AOyTz/8ApyuaAMf4N/8AJwWkf9l/1b/0nNXv+ChX/JUP2mv+xY8M/wDpfb1R+Df/ACcFpH/Zf9W/9JzV7/goV/yVD9pr/sWPDP8A6X29AH0p+1h/yWb9lH/r4v8A/wBIBXjPwv8A+ULHiD/r11H/ANOLV7N+1h/yWb9lH/r4v/8A0gFeM/C//lCx4g/69dR/9OLUAepfsVf8nkfGL/sUfCv/AKb4K5r9nH/k3v8AbQ/7G3xL/wCiK6X9ir/k8j4xf9ij4V/9N8Fc1+zj/wAm9/tof9jb4l/9EUAfTn7BX/Jnvwn/AOwFD/Nq99rwL9gr/kz34T/9gKH+bV77QAUUUUAFFFFAHxN+1z/yfT+yT/196x/6KhrV/wCCr3/Jk/i3/r907/0rjrK/a5/5Pp/ZJ/6+9Y/9FQ16D/wUO+Fvib4x/sr+IvDHhHSZtb1u4u7GRLO3ZBIyJcxs5G9lBwoJxkdKAOD/AOCoH/JnNp/2GtJ/9Dqppf8AylfT/sly/wDpSteZftGa9+0f+0x8KbX4f3f7NeoeGIRfWd1/aSeILa65hYHBQhMA+u449DXc/Grw98Yfhj+2zD8VvA/wmvPiPpreDIdC8qHUoLOMSGVmcl2LHK7E+XZg7uoxyAdDN/ylrh/7Jh/7eGtT/gmb/wAkT8X/APY7ax/6OFcl8CdE+L/xI/bj/wCFs+O/hRefDfS4/B0uheXNqMN5GZFuEkQh1KsS29+NnATqc8cf8BfE37Rn7MuheI/Cunfs333i+zuvEN/qkepHxBb2gZZpiVATa+RtAOcjr045AOR8H/8AJmP7bP8A2O2uf+0a+udH/wCUedr/ANkzX/02189/DX4D/FG7/Y5/aU0nV/A15ofi7xxr2oatp2gy3ELyOJ44W2K4faQGDqGJXO3OBnFTWPxQ/aStPgHD8LT+y/qD20fhweHDqw8SWwcqLbyPP8nbjOPm2b/bd3oA84+JH/KPf9kz/sb9I/8Abmvrb/gpX/yZT8SP+ve3/wDSmKvB/ij+z38T5v2F/gF4Z0vwddan4v8ACOuWOp6jokc8IljWJLg43F9p+Z4wcE4DE4OMU39o74k/tKftDfBnxJ8P5v2YNQ0CPWIkT+0I/EUFyYikiyD92UTOSgH3uM556UAfdPwd/wCSTeCv+wJY/wDohK+VtS/5S3aR/wBkzP8A6VS19Z/DPS7rQ/hz4V06+hNve2elWtvPExBKSJCqsuRxwQRxXyZqX/KW7SP+yZn/ANKpaAPtmkzS0xu9AC54prULS0AN209RQtOoAKKKKAPjz9sf/k6T9lT/ALGO7/8ARKV7j+0x8Zn/AGffgj4n8fR6auryaPFG62ckpiWQvIqDLAEgDdngHpXh37Y//J0n7Kn/AGMd3/6JSur/AOCj1vNdfsW/EtYIZJ2WzhdljUsQq3EZZjjsACSewFAHnuk/tPftXa9p9rf2P7MthcWN3Es8E48WW6q8bKGVhkg4IIPTPrWpD8eP2t7ndj9m3R4Nv/PbxbDz9MGsD4f/APBTX4ReG/AXhnSbqw8YG7sNNtrSby9AlKh44lRsHPIyDW//AMPVfgd/f8Uf+CGb/CgCQfGn9r6T7n7PnhqP/rp4qjP/ALNTW+MH7YsmdvwI8JRf73iVD/7NTf8Ah6r8Df7/AIo/8EM3+FH/AA9V+Bv9/wAUf+CGb/CgBv8AwtL9tCTO34NeCI/Tdr2cf+P0z/hYf7bL8L8LPh3Hnu+rucfXElS/8PVfgb/f8Uf+CGb/AAo/4eq/A3+/4o/8EM3+FAEEnjT9uGdcRfD/AOGFs396XUJ3H5CSmf8ACSft2Sfd8KfCOLH/AD0uLs5/KWrf/D1f4EL/AK268SQ+m/QZ+f0o/wCHrPwD/wCgh4h/8EU/+FAFT+2/2735GgfByP8A2TJfH/2rSre/t2vybH4Pp7Zvf/ijVr/h6z8A/wDoIeIf/BFP/hR/w9Z+Af8A0EPEP/gin/woApNN+3c33YfhCh+t5/jUTR/t6P0l+EMf0F3/AIGtL/h6z8A/+gh4h/8ABFP/AIUH/gq3+z+oLSapr8SDku+hXAA+vFAGZ9j/AG9JP+X/AOEMWP8AZu+f/HDUkGlft3yMfN1v4Rwjtthu2z/45V//AIew/s6f9DJq3/gkuf8A4mk/4exfs6f9DJq3/gkuf/iaAFXw7+26ygt4t+Fin0Gn3J/9lqYeD/21G4PxB+GSf7Q0mc4/8dqD/h7F+zp/0Mmrf+CS5/8AiaP+HsX7On/Qyat/4JLn/wCJoAmk8A/toPgf8LQ+HI900WYf+y1A3w0/bQm6/FzwHB/1y0Rzn80pf+HsX7On/Qyat/4JLn/4mnL/AMFYP2cmzu8T6on+9ol1/wDEUAQH4R/tl3H3/jf4Pgx08rQAc/mlcP8AGTwv+198Ivhf4p8b33x70S7s9BsJL+Wzs/D0CySKgyVVmiIB9Mgj2r0D/h7B+zh/0Nepf+CS6/8AiK8x/ac/4KRfAj4pfs+/EDwh4f8AEl9c63rWjz2VlDNpVxCjyuuFBdlCqM9yQBQB9i/s2+N9U+JXwD+HvirXJI5dY1nQrO+u5Ik2I0skKs5CjgZJJwPWvnn48f8AKS39m/8A7A+sf+iJq9s/Y3t5bX9lL4RRyxtHIvhfT8qwwR/o6dRXifx4/wCUlv7N/wD2B9Y/9ETUAfaCfdpT0pE+7St0oAbmm9aUClCnmgBAMV4p+2x/yaR8W/8AsXLz/wBFmvbK8T/bY/5NI+Lf/YuXn/os0AWf2Nf+TTfg/wD9irpv/pOleyLXjf7Gv/Jpvwf/AOxV03/0nSvZFoA+SfH/APyky+Fv/Yj6l/6NNd5+0J+2N4R/Zx8WeH/DWtaH4l1/WNbtZry2t/Duni7YRxsFO5d4PcngHhTnHGeD8f8A/KTL4W/9iPqX/o01k/G//lJZ+z5/2ANW/wDRctAFz/h5b4QI+X4X/FRj6f8ACLt/8XUX/Dy7w32+EPxZYeo8Mn/4uvsSigD4xm/4KbaLHIVj+CXxdnX+8vhwAfrKDXU/Bn/goF4Y+MHxY0z4e/8ACBeOPCGu6nbTXNo3iXTY7WOVYlLMB+8LdAecY4xX1LXyB8XP+UlfwL/7FjVv5PQB65+1B+1BoX7LPhTRNb1vRNX186xqS6XaWWipG8zStG8g4d1zkRkADJJYADmvEP8Ah5pD/wBG/fF//wAJ8f8AxdH/AAU0/wCPf9n7/spml/yevtWgD4s/4eW7lBT9nn4wuPX/AIR//wCyoH/BSmZvu/s6/GFv+5fP+NfadFAHxTcf8FL2s7eW4uf2evi5a20Sl5bi40MRxxqOSzOzAKoHJJOBX0/8Ffitp3xw+Fvh3x1pNrc2On63bfaYbe82+bGNxUhtpIzlT0NU/wBoYkfAn4iYOP8AindQ/wDSd685/wCCev8AyZn8Lf8AsGH/ANHSUAcj48/4KCxeFvil4t8EaH8H/Hnjq78M3S2l9eeHLJbmJXZFcZCksoOSBuAztbHQ1nr/AMFBPE83+q/Zj+Ljeu/Ryn5cc0n7IZ/4zA/a2/7DOk/+iJq+x6APjo/t+eLyPk/Zf+K5P+1puP6Uh/b48b4H/GL3xR/8Av8A7GvseigD4n17/goZ4y8N6Le6xqn7M3xC07SLKJp7m+vAsMUEajLO7FcKAO5NfVfwu8e2vxU+G3hbxlY201nZ6/plvqcNvcEGSJZo1kCtjjIDY4rz39tz/k0f4uf9i1e/+ijVv9j3/k1H4P8A/Yp6X/6Sx0AeUfED9ufX9D+NHjH4d+Dfgv4i+IN74Wa3S+u9Luo1VTNCJVJUqSoIJAJ6lTVD/htL4yY/5NS8ZZ/6/wCP/wCN039mP/k/z9q//uAf+kjV9lgUAfG6/tkfHCQBk/ZN8WFT0zq0Q/8AadSL+1/8dpFyn7JvijHT59bgX+cdfYtFAHx037XPx9fiL9kzxDu/6aeIbdR+fl12H7Mv7WHiP42fEzxp4G8W/DWb4da74Zs7W7mtp9UW8ciYthWCxqF+UKwILZDdsV9JPXx98D/+Ui/7RX/YG0T/ANEigD3X9pX4zj9n34J+J/H/APZX9tnRoFkWw8/yfOZpFQAvtbaMtnOD0r5x0/8Aa+/aX1jT7S+sf2ULia0uolnhl/4SuDDowDKw/djqCK7/AP4KSf8AJlfxK/69YP8A0pir3D4Wf8kx8If9gez/APRCUAfKx/as/akb7v7J0wPv4pg/+Ipv/DUv7VbdP2UW/wDCog/+Jr7UWpFoA+KP+GoP2rm6fspY+vim3/wpP+Gm/wBrNun7KsY+vii3r7YoYcHigD5b/ZX/AGsPGHxq+KHj3wB47+H8HgLxH4UtrW4ntYdS+1kGbJCOQoXO3y2BViMNzzwPM/2qvgv4S+Pn7enwn8JeNtNk1XQZvCeoTvbR3MluS6Skqd8bK3X0Nav7Of8Aykk/ah/68tH/APSaKt34oXkFj/wUk+EU1zPHbxL4N1TMkzhVH7w9zQBi/wDBNvwjpngDWv2g/DOiW/2PRtI8cSWVnb7y/lxRxKqgsTljgDLHknk147+zT/yFvjf/ANlN1z/0KKvev2DJFl+In7TToyyI3xDuSGUggjYOQR1FeC/s0/8AIW+N/wD2U3XP/QoqAP05avjr9jf/AJOs/az/AOxisP8A0TLX2M1fCLfCX9pv4O/H/wCLHiz4ZaB4K1vQfGmqRXzf21fyJMFjj2oAFK7Dlnzndnjp3APuyivkT/hZn7ZVjGTN8HPA9+R/z7+IdpP0BNZtx+0R+13YTeW/7MumXw/56WvieBV/8ebP6UAN/wCCYH/Ii/F7/somq/yir7Pr80v2cr79qT9nPQ/FWm6f+zm2uf8ACQa/c6/JJc+ILWDyHm25iAEjbgu0YbIznpXrKftGftfXEhCfsw6fEvHMvie349/v8/hQBq/Ej/lJx8H/APsT9U/9nr6/r81vEnjT9oTS/wBqjwT8WPG/7P8Aqktro2i3mmrZeEbpL/eJQfmZtx2EFuh6jp0r1u7/AOCiWv6ZLsvf2afixF/1y0nzcfXA4oA+z1pcivjBP+ClltGha7+AHxkt1HVl8Nhh+sgoi/4KieCEIF/8M/ihpXr9r8OgY/75kNAH2fmlr4/T/gqN8GUj3Xdt4uscdRP4fn4+uAajT/grB+znu2y+J9UgYcFZNFucj8kNAH2JRXyVa/8ABVD9mq4YL/wnlxCT/wA9NFvQPz8muhsf+Cjv7OWoKDH8UNOjz2ntrmL/ANCjFAH0pRXg9r+3d+z9dDK/Frwyv/XS8CfzAq9F+2t8BZvu/F7weP8Ae1aFf5mgD2qivLtO/al+DmrRh7P4qeDrhT3TXLY/+z1uWvxt+Hl9j7N478Nz56eXq0DfyegC78Uv+SZ+LP8AsE3X/olq/L3/AIJ7f8nPfBv/ALJPP/6crmv0n+I3jjw5f/DTxX9m1/S7jdpN1jyryNs/uW9Gr81/+CezD/hp/wCDeOf+LTzj/wAqVzQBkfBv/k4LSP8Asv8Aq3/pOavf8FCv+SoftNf9ix4Z/wDS+3ql8GgT+0FpH/Zf9W/9JzV7/goUp/4Wf+02fTwx4Yz/AOB9vQB9J/tYf8lm/ZR/6+L/AP8ASAV4z8L/APlCx4g/69dR/wDTi1ezftYf8lm/ZR/6+L//ANIBXjPwv/5QseIP+vXUf/Ti1AHqX7FX/J5Hxi/7FHwr/wCm+Cua/Zx/5N7/AG0P+xt8S/8Aoiul/Yq/5PI+MX/Yo+Ff/TfBXNfs4/8AJvf7aH/Y2+Jf/RFAH05+wV/yZ78J/wDsBQ/zavfa8C/YK/5M9+E//YCh/m1e+0AFFFFABRRRQB8Tftc/8n0/sk/9fesf+ioa+1kr4p/a5/5Pp/ZJ/wCvvWP/AEVDX2slAD6KKKAEak2mnUUAN2mjaadRQA3aaNpp1FABXxNqX/KW7SP+yZn/ANKpa+2a+KtQt5G/4KzaVOF/dL8NdpbI6m6loA+1Kae9K1JQAi0tLtNG00AC06kWloAKKKKAPjz9sf8A5Ok/ZU/7GO7/APRKV9fsoZSCMg8EGvkD9sf/AJOk/ZU/7GO7/wDRKV9gUAQ/YoP+eEf/AHwKf9li/wCeSf8AfIqRadQBD9li/wCeSf8AfIo+yxf88k/75FTUUAQ/ZYv+eSf98ij7LF/zyT/vkVNRQBB9kiPWGM/8BFJ9jh/54R/98irFFAFf7HD/AM8I/wDvkUfY4f8AnhH/AN8irFFAFf7HD/zwj/75FH2OD/nhH/3yKsUUAVv7Pt/+feL/AL4FH9n23/PtF/3wKs0UAVv7Ptv+faL/AL4FH9n23/PtF/3wKs0UAVv7Ptv+faL/AL4FRtpFk3Wytz9Yl/wq7RQBR/sax/58bf8A79L/AIUf2Lp562Fsf+2K/wCFXqKAGbQiqqgKoGAB0FfGHx4/5SW/s3/9gfWP/RE1faDV8X/Hj/lJb+zf/wBgfWP/AERNQB9oL0paRPu06gBMUtFFADWrxL9tj/k0j4t/9i5ef+izXtzV4l+2wP8AjEf4t/8AYuXn/os0AWP2Nf8Ak034P/8AYq6b/wCk6V7IteNfsbnH7Jvwf/7FXTf/AEnSvW7zVbLS4995eQWiE4DTyqg/U0AfKfj/AP5SZfC3/sR9S/8ARprJ+N//ACks/Z8/7AGrf+i5af4k8UaN4m/4KYfDVtH1ax1ZbfwXqUUzWNykwjfzCdrbScHHY0z43/8AKSz9nz/sAat/6LloA+y6KKKACvkD4uf8pK/gX/2LGrfyevr+vj/4unH/AAUr+BX/AGLGrf8AoL0AZv8AwU0/49/2fv8Aspml/wAnr7Vr4p/4KZ/8e/7P3/ZTNL/k9fa1ABRRRQB55+0P/wAkJ+In/Yu6h/6TvXnX/BPX/kzP4Wf9gw/+jZK9F/aG/wCSE/ET/sXdQ/8ASd686/4J6/8AJmfws/7Bh/8AR0lAHn/7If8AyeB+1t/2GdJ/9ETV9j18cfsh/wDJ4H7W3/YZ0n/0RNX2RQAUUUUAeIftuf8AJo/xc/7Fq9/9FGrf7Hv/ACaj8H/+xT0v/wBJY6qftuf8mj/Fz/sWr3/0Uat/se/8mo/B/wD7FPS//SWOgDxf9mP/AJP8/aw/7gH/AKSNX2XXxp+zH/yf5+1h/wBwD/0kavsugBaKKKAGPXx98D/+Ui/7RX/YG0T/ANEivsF6+Pvgf/ykX/aK/wCwNon/AKJFAHTf8FJP+TK/iV/16wf+lMVe5fCtT/wrHwh/2B7P/wBEJXhv/BST/ky34lf9esH/AKUxV7r8Kv8AkmHhD/sD2f8A6ISgDplWn0UUAFI33TS0jfdNAHxL+zn/AMpJP2of+vLRv/SaKsn9qv4KeEvj/wDt4fCvwh41sJNS0KXwjqFw8ENxJAxdJSVO5CD1961v2c/+UkX7UX/Xno3/AKTRV0nxE/5SV/Cb/sStU/8ARhoA9m+A/wCzj4E/Zv0PUdI8CaZPptnqFwtzcC4vZrlmdUVFwZGYgBVAwK+Ff2af+Qt8b/8Aspuuf+hRV+m61+ZH7NP/ACFvjf8A9lN1z/0KKgD9O6KKKACiiigAooooAKSlooASmsqD+FefanH261G3y9OfWgBGggk4aKNh7qDVSXw9pNx/rdMs5f8Aft0P9Kt+46U9e1AGLP4D8NXSlZvD2lSj0eyjP/stY958Evh5qBzdeBPDdyf+mukwN/NK7WigDzDUP2Xfg5qi7bv4V+DZx1+fQbX/AOIrDm/Yo+Ak7Et8IfCAP+xpMS/yFe10UAeEXH7Cf7P10pVvhN4ZXP8AzztAh/QisG+/4Jwfs56hnzPhlYR5/wCeFzcRf+gyCvpWigD5G1b/AIJU/s3ahazpb+CbjT55EZUng1m9JjYggMFaYqcHnBGOK8o8Nf8ABLXx38PfEmma74M/aG1DQdT02xbTLS4bw/HM0Nszl2iX98AFLEnGO9fohRQB+b2m/wDBLv4qeHNcg1nSPj5axanBrMniKO4k8N8jUnG17nBnYFmGQVI28/dqH4gf8E1vjh8Sr3xLe+I/jVoOuXviO1trLVLi40Mwtcw28qywqfLIC7WRTlQCcc5r9J6KAPz7+In7Iv7U3jTX/BGsXnxM8D6rfeEHlfS2bS5LdUMkXlNvCqd2V/lXE6F+xj+1j4d/Z2vPgpb6p8NpfA10k0ciPdXX2zEkvmttl8gAHeTjKnjiv06ooA/Nv4d/AH9sP4QfEjxB420TTvhrf6xrthY6bex3F5cNAIbSJIofLX5GViqDcSzZOcAdKp+B/gd+1d8OfAPxW8NW/gLwfqkHxB1C+1O/n/tzbJby3UeyQRA4G0dQGyfc1+lzUlAHwb8G7D9sX4R/CXwx4I0j4ceBTbaHZrZR3Woa0zSSKpOGZVbAPPaujj1b9vK7mbGjfCGxjzwJpLtsfish/lX2gtOoA+LptN/byusbdW+D1pnrsS8JH5xmr9r8Pf2076M/a/ip8PdOY9Vt9EeQD6EqP1r7CooA+Mb39n79r/U5Fdv2ktG04c5Sy8Mwlf8Ax5KP+GW/2prpQLj9rGSL18jwlbf0da+zqKAPy++MHwW+OHwH+Onwe+IniPW/FH7Rdrod5eTyDS9IEEmngxqvlqqu4/e5BycAeVjvXtcP/BSa+jYC6/Zw+L8Hrt0FmP64r7UZc0m32oA+MJf+Cnmi2e37b8D/AIwWYPVpfDiAD85a0LX/AIKhfC1sfbvDXj3S27rc+HJSR9dpNfX+2kMYbqoP1FAHyFP/AMFWPgBZEC91XX7Ek4xcaDcr/wCy1Lb/APBVz9myY4fxnfQe8mh3h/8AQYjX1hLpNnP/AKyzt5P96JT/AEqpJ4S0SVdr6Np7r6Naxn+lAHznp3/BTj9mzVG2xfEiKI/9PGl3sI/NoRXSWf7fX7PV6AU+K/h9M/8APaZo/wD0JRXqd58KPBWo5+1eENCuM/8APXTYW/mtYt3+zn8K74EXHw38Jzbuu/RbY5/8coA5aP8Abf8AgFKwC/FzwmD/ALWpIv8AM1r2P7WXwV1JQ1t8WPBsinof7ctgP1eqFx+xr8Crpy8nwj8HFicll0WBT+i1XuP2J/gPdWwt5PhR4XEIOQiaeiDP4AUAdrpvx2+G+sMVsPH3hm9bGcW+rQP/ACevlfWvG2i2/wDwU80TVJNY02LRP+FevE2pNdxiDzBcOdhfO0HBzjOea9Vu/wDgnj+zvesxPwv0qEsCD9nlniyD/uuKiP8AwTp/Z7ZQjfD2F4wuzym1G7ZMf7plxQB6Jqn7Tfwi0OJpL/4n+EbRFOD5ut2wx+G+ubn/AG4vgDa7t/xc8KHH/PPUUf8A9BzVLTP2B/2fNJULD8KPD0gH/P1C0/8A6GTXQ6V+yD8ENFuFnsvhN4OhmXpJ/Y0DMPxKGgDgta/4KUfs4aHnz/iVaz84/wBDsbq4z/37iNczN/wVf/ZyWTZB4o1S8YnA8jQ7rn/vpBX0jp3wd8B6O26x8FeHrM+sGlwJ/JK3YfDOkW+PK0qyi/3LdB/SgD5Mv/8AgqJ8NI1J0jwn8QPETdVSw8OyAt9N7KKpyf8ABSpbpVOm/s+/GG8z6+Hto/8AHWavtFVCqAoAA6AUtAHxyv7cnxJ1e283RP2XfiJcE9Ptypb/AJgjIqkn7VX7UOoKTZ/sm3UPPBuvFVun6Mi19pUhXd1ANAH5peOviF8ZPHn7U37N7/FX4Z2fw7ih8RT/ANnx2+ppeyXBMQ37tjELjC49cn0r9LcGvC/2m/2U7H9pKbwjeSeLNc8Hap4ZuZrqy1DQnRZVaRQpOWGVI28FcHk/h5kf2GfiHaqBp/7UPxLhP/TxNHKP/QhQB9hLS18XTfsafH63kzpv7WfiKFfS90SO5P6yilb9ln9qa2XbbftYySjt53hK2z/6G1AH2hRXxfZ/s8fteafIzr+0vpV+OyXnhiED/wAdWr0nwz/bOs1At/jD4Gvcf899A2Z/JTQB9hUV8Wr4f/bvtJiE8TfCO+iHRriG6Qn6hYv60ssn7eVqvyw/B67P+w16M/mRQB9o0V8aad4r/bjsw327wP8AC/UT2MGozw5/OQ1avfi3+2PpcIZvgf4N1Jv7tl4jAJ/76bigD7Bor4th/aQ/a8j4uP2WrOU/9MvFtov/ALOabcftZftQWbHzv2Srt/8Arj4pgf8A9BjNAH2pRXx3Y/tl/GheNS/ZV8YxP6Wt/DIPzKiodQ/b+8Z6Km6//Zh+J6Y6/Z7QT/8AoK0AfZVFfFyf8FJriNd13+zn8YrdfVfDxYfqRTf+HoHh63mVL34LfFywU9ZJ/DqgD/yLmgD7Tor5Ah/4KffC/bm68N+PLA9xP4cm4/LNRzf8FWvgDZSBL7VNe0+QjOy60O4U/ltoA+w6K+Q7f/gq1+zbMcP4zvbf/rpol4f/AEGI1raf/wAFPP2bNTfbH8RUiPTNxpd5CPzaEUAfU1FfP1n+35+z1fKCnxW0FM9ppXj/APQlFaEX7cXwBm4X4t+FR/v6gi/zoA9vavi/48f8pLf2b/8AsD6x/wCiJq9wi/bE+BVxjZ8YPBI/39etl/m4r5W+Ofx1+HNx+338A/FsHjvw7ceGNL0jVVvtXg1SGS2tmeGRUV5FYhSxZQATk5FAH6Ep92nV8ueLP+Cln7O/hOZLX/hYEesXb/dh0WwuLzPoN6Jsz7bq5T/h5APEl79l8DfAz4n+LSzlI7r+yPstq+BnPmMTj/gQFAH2dSZr4uh+On7YHjwTR6B8AdB8FIyHyrvxTrwnCn3SMq34ED60D4U/toePYW/tz4weDPh4pkyIvC+jm8bbjpunUEck9D2HNAH2jXgX7cXiTSbT9lX4q2U+qWcN5PoF1DFbvcIJJHZCFVVzkknoBya8tb/gnt4o8Yxxt8QP2kPiRr8pB86LSbtdOt3z1HljeAK3/D3/AAS9/Z80W8W9v/Cl54mvsfNca1qtzNvbj5mUOFJ47gigDx/4B/sW+KPix8Bfh3rGq/H74g6Ro97o1rd2eheH7sWcFjDJErJApGdwRcLkjt0FemWv/BK74M3cMX/CT3fi7xtcKdxuNd1+ZmY+/l7APwx1r6x8P+HdO8K6Hp+jaPYw6bpOnwJa2lnbIEihiRQqoqjoAABWpQB8C+FfgH4E/Z6/4KHfDTQfAOhR6Dplx4O1K4mjWaSZpJN+3czSMzE4A6mvQv2qvgB8XvF/x7+HnxR+Et34Wi1Xwzpt3ZGLxNLMse6U43bY0bcNjOOq4ODzSfED/lJn8Lf+xI1L/wBGmvragD4zK/t4W4zn4NXOe3+nDH8qrTap+3rF93R/hDN/uPdj+cgr7VooA+NrXxd+3FbqPtPgT4Y3jdzDqM0Y/IyGqPgb4X/tAePv2uPAPxM+J3hfwz4d0jw3pV9Yk6LqZnZ/OQgZU853N9AAc9s/a9FAHyt/wUB+EPjn4qeEfh5eeAdEj8Rav4W8WWuuvp73McBkSJXxhnZRjcVzznGSAcYrmP8Aho39ruFj5n7MdhIM8eX4otuf/H6+z2pVFAHxmP2nv2rYVzL+ykr/APXPxfa/4Gmy/tZ/tO24+f8AZIu2P/TPxZA38ojX2fx60bRQB8F+Ov2nP2iPHHgjxJ4bvv2U9d05NW06408XNrrMdwYzLGybtvlLnGc9a+h/2KPButfD39ln4d+HfEenTaRrdhp3l3VlcACSJjI7YbB64I/OvbSMUlAH59aL448e/s0ftRfHzW/+FL+M/GukeL9Us5rC90W1zEUhhILBiMMCZccdNpzXazf8FGNcs52hn/Zp+LSsvXy9HaQfmFxX2hRQB8Yr/wAFJLiPH2j9nT4ww+mPDzH+ZFP/AOHmGnwqTcfAX4yQj/sWlx+sor7LooA/Ov8AaG/4KA6N8Wfgf478F2Xwl+KOk6hrej3FjBcal4fVYY3kUqGcrKzBRnkgE+xr67/ZN0270n9mD4T2V9azWV7b+FtNimt7iMxyRuLaMFWUjIIPUGvWePSigD86NH/aG8M/sxft1ftHaj44s9cgsdfOjCwuLDSpblJPKtBv5UcD5xg+x9K9Xm/4Kufs/WjbbnVtetW9JtCuF/pX17JDHL9+NX7fMoNVn0ewk+/Y2zf70Kn+lAHyVH/wVk/Zxk6+KdSj/wB7RLk/ySrUP/BVb9myT73jm6i/39Cvv6RGvqVvDekSfe0qyb626H+lRN4P0FwQ2iacw97SP/CgD5oT/gqT+zRMwUfERwTx82iago/MwVwn7IPxM8M/GL9uT49+LPCGqx6zoF9o2ji3vI0dAxRNjja4DDDKRyO3HFfY83w38JXH+t8LaLL/AL+nwn+a1b8P+DdA8LSTyaLoem6RJOAJWsLSOAyAZwGKgZxk9fWgD58/4KTYX9iv4kkkAfZoBzx/y8xVP8Nf22vgPYfD3wxaXPxW8M291b6Xawywy3yqyOsKhlIPcEEV9D65oOm+KNHu9J1jT7XVdLu4zFcWV7CssMyHqrIwII9iK87u/wBlf4NX8Xl3Hwr8HTR/3W0O2I/9AoAw1/be+AT9Pi74T/HU4x/M1Zj/AGz/AIDyYA+L/gwf72tQD+bUkn7F/wABpOvwg8Gj/d0aAfyWoj+xL8BD/wA0h8I/+CqL/CgDXt/2rvgtef6n4s+CpP8Ad1+1/wDi6vx/tHfCi44i+JXhOX/c1q2P/s9cjN+wv+z/AHHDfCTwuP8AcsVT+WKz7j/gn7+zxc/e+FOhL/1zWRP5PQB47+y1rFh4i/4KG/tNanpV7b6lp1xZaOYbu0lWWKQCCNSVZSQcMpHHcGrv7QHxD8M/C/8A4KFfCrXfFuu2Ph3Ro/BupRNfajMIog7SkKu49ya+ifhD+zP8M/gHeandeAfCVp4buNSRI7uS3eRzKqElR87NgAk9Mda+d/j58P8Aw18TP+CiHwn0PxZoWn+I9Hk8G6lK9jqVus8LMsrFWKsCMg9KAPaI/wBtj4CNn/i7vhEfXVYh/Wvi79li+t9Yk+MeoWM8d3Y3vxG1i6trmFw0c0MgheORGHBVlZWBHBBBr7Wb9i34DPjPwh8Hfho8I/ktdl4I+CPw/wDhtpMumeF/BmiaHp8sxuHt7OxjRGkKqpcjHXCqPwFAHc0UUUAFFFFABRRRQAUm6kakoAXdnjpTT8vvS0UAM29/0qRaFFOoAKKKKACiiigAooooAKKKKACiiigAooooARqTaadRQAi0tFFABRRRQAUUUUAFFFFABRRRQAUUUUAFNanU1hmgBKKAuKKAFWnU1adQAUUUUAFFFFABRRRQAUUUUAFFFFABRRRQAUUUUAFFFFABRRRQAUUUUAFFFFACUbR6ClooAayLIuGUMPQjNVZdG0+fJksbaQnruhU/0q5RQBlyeFdFmXbJpFg6+jWyEfyrJuvhT4Jvcm48IaFPnr5mmwt/Na6qigDz68/Z7+F9+CLj4d+FZc/3tGtv/iK526/Y4+Bl5KZJvhJ4Nkc9W/sW3B/Ra9jooA8Qn/Yh+AdwuH+EfhID/pnpkafyAqlb/sFfs+W94tyvwm8ONIvRZLdnT8UZip/KvfKKAOR8LfCPwP4Ht0t/D3g/QtEhUBQthp0MIwOn3VFdX5YHTj6U+igBuwd+aNo9KdRQAmKWiigAooooA+S/2nPgL8Z/EX7QXg74pfB7U/CVpqOj6LcaTNH4oafbiSQsSqxxtnIPcjGO9YUi/t5WwwP+FO3Xuv20fzxX2jRQB8Z6d4i/bms9327wj8K9R/u/Z724h/m5/pVm8+K37ZemxjPwV8D6i3f7Lr5Gf++mFfYdFAHxbD+0X+19D/x8fsuafOB18nxZar/NzSSftYftQWmPP/ZLuX9fJ8UwP/KM19p0UAfH1r+2N8aoYi2o/sp+Lo2H3vsuowyAfT5Rmq19+35400jH2/8AZf8Aiepzgi0sxcH8kWvsqigD4vX/AIKRTxR77v8AZz+MluPUeHSR+ZYUxP8AgqF4cjmEd78Gfi1p47vN4dXA/KXP6V9p0mAOgoA+RIf+CnXwtMe688O+PdPPcTeGpuPyJqo3/BV/9n23uDDeavr1hIOq3OhzqfyAJr7EkhSZdsiK6+jDIqrJounzMTJYWzn1aFT/AEoA+UoP+Cqv7Ncy5fxvdwHA4k0O+J/SE1raV/wUy/Zv1g/uviNDAM4zdafdQf8AocQr6OuPCOh3S7ZtG0+VfR7ZCP5Vk3Xwk8D3uftHg7QZs9fM0yBv5rQB5Zb/ALe37PdyoZPix4eUf9NJmT+a1eg/bc+Adx9z4ueEx/101KNP5kV119+zv8LtSXFz8O/C8w/2tHt//iK5yb9jL4E3DFn+EXg0k9xotuP5LQBND+198DbjaE+L/ggljgA6/ag/q9dFp/x6+GmrLmy+IPhe7H/THWLd/wCT1xVz+wz8ALpcP8JPCwH/AEz09Iz/AOO4rIuP+CeX7Oty25vhXo6n/pm8yD9HFAHssPxG8J3ABi8T6NID0238Rz/49Whb+JtHu/8AUatYzf8AXO5Rv5Gvm7VP+CYv7N+qZ3fD1bb/AK9dTu4v5S1jSf8ABKD9m6TOPCOoR5/u63d8fnJQB9breQMAVnjIPo4qRXV/usrfQ18dj/gk/wDAW3ObC08R6Y39611yZT+pNTL/AMEw/h5aqRY+OviTp/8AdFv4lcAfmlAH2BtNKtfF0/8AwTJ07zM2nx1+L1mnZF8RAgf+Q6fD/wAE5dTsMmy/aR+L0Df7eulx+WKAPs+ivjVv2EviRa4+wftS/EWPHT7U6z/zYUkn7H37QdmmNM/a015SOgvfD8M385aAPsuivitv2W/2rIG/cftW+YP+m3ha3/xNXLf4D/tfabGBF+0boWoMP+fzwtCuf++RQB9kUV8azfD39tqxX/Rfip8PtSI/5/NGaLP4rGahGk/t42vA1j4O3oH8TJeqT9cRigD7Oavkn4i/8pLvhJ/2JWqf+jGrC+1/t528gLWHwhu17qr3a5/EsKm+GPwq/aA8VftX+EfiZ8VtE8KaVYaHod7pe7w9fPJvMvK5R8nOSeQcYoA+zKXaaVaWgAooooAKKKKACiiigBlI1FFACLTqKKAFWnUUUAFFFFABRRRQAUUUUAFFFFABRRRQAUUUUAFFFFABRRRQAUUUUAFFFFABRRRQAUUUUAFFFFABRRRQAUm2iigAAxS0UUAFFFFABRRRQAUUUUAFFFFABRRRQAUUUUAFFFFABRRRQAUUUUAFFFFABRRRQAUUUUAFFFFABRRRQAUUUUAFFFFABRRRQAUUUUAFFFFABRRRQAUUUUAFFFFABRRRQAUUUUAFFFFABRRRQAUUUUAFFFFABRRRQAm6iiigBaKKKACiiigAooooAKKKKACiiigAooooAKKKKAP/2Q==;" parent="1" vertex="1">
          <mxGeometry x="225" y="200" width="522.01" height="360" as="geometry" />
        </mxCell>
        <mxCell id="_SnBmvqW-da6uGwA_qLJ-26" value="" style="group;fillColor=none;" parent="1" vertex="1" connectable="0">
          <mxGeometry x="270" y="460" width="57" height="115" as="geometry" />
        </mxCell>
        <mxCell id="_SnBmvqW-da6uGwA_qLJ-3" value="" style="ellipse;whiteSpace=wrap;html=1;aspect=fixed;strokeColor=#99CCFF;strokeWidth=5;fillColor=#99CCFF;" parent="_SnBmvqW-da6uGwA_qLJ-26" vertex="1">
          <mxGeometry x="14" width="28.125" height="28.125" as="geometry" />
        </mxCell>
        <mxCell id="_SnBmvqW-da6uGwA_qLJ-5" value="" style="endArrow=none;html=1;strokeColor=#99CCFF;strokeWidth=5;exitX=0.5;exitY=1;exitDx=0;exitDy=0;entryX=0.177;entryY=-0.031;entryDx=0;entryDy=0;entryPerimeter=0;" parent="_SnBmvqW-da6uGwA_qLJ-26" source="_SnBmvqW-da6uGwA_qLJ-3" target="k-dpR7HA_-HZ3Fbqk2lw-17" edge="1">
          <mxGeometry width="50" height="50" relative="1" as="geometry">
            <mxPoint x="27.5" y="17.02702702702703" as="sourcePoint" />
            <mxPoint x="50" y="110" as="targetPoint" />
            <Array as="points">
              <mxPoint x="27.5" y="71.08108108108104" />
            </Array>
          </mxGeometry>
        </mxCell>
        <mxCell id="_axvJHcLCZw86LOWZs9C-15" value="" style="endArrow=none;html=1;strokeColor=#99CCFF;strokeWidth=5;" parent="_SnBmvqW-da6uGwA_qLJ-26" edge="1">
          <mxGeometry width="50" height="50" relative="1" as="geometry">
            <mxPoint x="27.5" y="67.70270270270271" as="sourcePoint" />
            <mxPoint x="5" y="115" as="targetPoint" />
          </mxGeometry>
        </mxCell>
        <mxCell id="_SnBmvqW-da6uGwA_qLJ-10" value="" style="endArrow=none;html=1;strokeColor=#99CCFF;strokeWidth=5;entryX=0.406;entryY=1.032;entryDx=0;entryDy=0;entryPerimeter=0;" parent="_SnBmvqW-da6uGwA_qLJ-26" edge="1">
          <mxGeometry width="50" height="50" relative="1" as="geometry">
            <mxPoint x="20" y="60" as="sourcePoint" />
            <mxPoint x="25" y="28.129999999999995" as="targetPoint" />
            <Array as="points">
              <mxPoint y="49" />
            </Array>
          </mxGeometry>
        </mxCell>
        <mxCell id="_SnBmvqW-da6uGwA_qLJ-12" value="" style="endArrow=none;html=1;strokeColor=#99CCFF;strokeWidth=5;entryX=0.406;entryY=1.032;entryDx=0;entryDy=0;entryPerimeter=0;" parent="_SnBmvqW-da6uGwA_qLJ-26" edge="1">
          <mxGeometry width="50" height="50" relative="1" as="geometry">
            <mxPoint x="70" y="20" as="sourcePoint" />
            <mxPoint x="32" y="28.120000000000005" as="targetPoint" />
            <Array as="points">
              <mxPoint x="57" y="48.99000000000001" />
            </Array>
          </mxGeometry>
        </mxCell>
        <mxCell id="_SnBmvqW-da6uGwA_qLJ-27" value="" style="group" parent="1" vertex="1" connectable="0">
          <mxGeometry x="350" y="460" width="57" height="115" as="geometry" />
        </mxCell>
        <mxCell id="_SnBmvqW-da6uGwA_qLJ-28" value="" style="ellipse;whiteSpace=wrap;html=1;aspect=fixed;strokeColor=#99FFCC;strokeWidth=5;fillColor=#99FFCC;" parent="_SnBmvqW-da6uGwA_qLJ-27" vertex="1">
          <mxGeometry x="14" width="28.125" height="28.125" as="geometry" />
        </mxCell>
        <mxCell id="_SnBmvqW-da6uGwA_qLJ-29" value="" style="endArrow=none;html=1;strokeColor=#99FFCC;strokeWidth=5;exitX=0.5;exitY=1;exitDx=0;exitDy=0;entryX=0.177;entryY=-0.031;entryDx=0;entryDy=0;entryPerimeter=0;" parent="_SnBmvqW-da6uGwA_qLJ-27" source="_SnBmvqW-da6uGwA_qLJ-28" edge="1">
          <mxGeometry width="50" height="50" relative="1" as="geometry">
            <mxPoint x="27.5" y="17.02702702702703" as="sourcePoint" />
            <mxPoint x="50" y="110" as="targetPoint" />
            <Array as="points">
              <mxPoint x="27.5" y="71.08108108108104" />
            </Array>
          </mxGeometry>
        </mxCell>
        <mxCell id="_SnBmvqW-da6uGwA_qLJ-30" value="" style="endArrow=none;html=1;strokeColor=#99FFCC;strokeWidth=5;" parent="_SnBmvqW-da6uGwA_qLJ-27" edge="1">
          <mxGeometry width="50" height="50" relative="1" as="geometry">
            <mxPoint x="27.5" y="67.70270270270271" as="sourcePoint" />
            <mxPoint x="5" y="115" as="targetPoint" />
          </mxGeometry>
        </mxCell>
        <mxCell id="_SnBmvqW-da6uGwA_qLJ-31" value="" style="endArrow=none;html=1;strokeColor=#99FFCC;strokeWidth=5;entryX=0.406;entryY=1.032;entryDx=0;entryDy=0;entryPerimeter=0;" parent="_SnBmvqW-da6uGwA_qLJ-27" edge="1">
          <mxGeometry width="50" height="50" relative="1" as="geometry">
            <mxPoint y="30" as="sourcePoint" />
            <mxPoint x="25" y="28.129999999999995" as="targetPoint" />
            <Array as="points">
              <mxPoint y="49" />
            </Array>
          </mxGeometry>
        </mxCell>
        <mxCell id="_SnBmvqW-da6uGwA_qLJ-32" value="" style="endArrow=none;html=1;strokeColor=#99FFCC;strokeWidth=5;entryX=0.406;entryY=1.032;entryDx=0;entryDy=0;entryPerimeter=0;exitX=0.221;exitY=0.925;exitDx=0;exitDy=0;exitPerimeter=0;" parent="_SnBmvqW-da6uGwA_qLJ-27" edge="1">
          <mxGeometry width="50" height="50" relative="1" as="geometry">
            <mxPoint x="40" y="60" as="sourcePoint" />
            <mxPoint x="32" y="28.120000000000005" as="targetPoint" />
            <Array as="points">
              <mxPoint x="57" y="48.99000000000001" />
            </Array>
          </mxGeometry>
        </mxCell>
        <mxCell id="_SnBmvqW-da6uGwA_qLJ-35" value="&lt;b style=&quot;&quot;&gt;&lt;font color=&quot;#ea6b66&quot;&gt;With passion and precision...&lt;/font&gt;&lt;/b&gt;" style="text;strokeColor=none;align=center;fillColor=none;html=1;verticalAlign=middle;whiteSpace=wrap;rounded=0;" parent="1" vertex="1">
          <mxGeometry x="226.5" y="220" width="171" height="30" as="geometry" />
        </mxCell>
        <mxCell id="_SnBmvqW-da6uGwA_qLJ-36" value="&lt;b style=&quot;&quot;&gt;&lt;font color=&quot;#67ab9f&quot;&gt;...we transform ideas into groundbreaking realities.&lt;/font&gt;&lt;/b&gt;" style="text;strokeColor=none;align=center;fillColor=none;html=1;verticalAlign=middle;whiteSpace=wrap;rounded=0;" parent="1" vertex="1">
          <mxGeometry x="240.75" y="230" width="300" height="30" as="geometry" />
        </mxCell>
        <mxCell id="_SnBmvqW-da6uGwA_qLJ-37" value="&lt;b style=&quot;&quot;&gt;&lt;font color=&quot;#ea6b66&quot;&gt;We&#39;re the dreamweavers...&lt;/font&gt;&lt;/b&gt;" style="text;strokeColor=none;align=center;fillColor=none;html=1;verticalAlign=middle;whiteSpace=wrap;rounded=0;" parent="1" vertex="1">
          <mxGeometry x="226.5" y="250" width="154" height="30" as="geometry" />
        </mxCell>
        <mxCell id="_SnBmvqW-da6uGwA_qLJ-38" value="&lt;b style=&quot;&quot;&gt;&lt;font color=&quot;#67ab9f&quot;&gt;...who bridge imagination and technology seamlessly.&lt;/font&gt;&lt;/b&gt;" style="text;strokeColor=none;align=center;fillColor=none;html=1;verticalAlign=middle;whiteSpace=wrap;rounded=0;" parent="1" vertex="1">
          <mxGeometry x="240.75" y="260" width="310" height="30" as="geometry" />
        </mxCell>
        <mxCell id="_SnBmvqW-da6uGwA_qLJ-39" value="&lt;b style=&quot;&quot;&gt;&lt;font color=&quot;#ea6b66&quot;&gt;Together, we break barriers...&lt;/font&gt;&lt;/b&gt;" style="text;strokeColor=none;align=center;fillColor=none;html=1;verticalAlign=middle;whiteSpace=wrap;rounded=0;" parent="1" vertex="1">
          <mxGeometry x="226.5" y="280" width="173.5" height="30" as="geometry" />
        </mxCell>
        <mxCell id="_SnBmvqW-da6uGwA_qLJ-40" value="&lt;font color=&quot;#67ab9f&quot;&gt;&lt;b&gt;...and redefine what&#39;s possible.&lt;/b&gt;&lt;/font&gt;" style="text;strokeColor=none;align=center;fillColor=none;html=1;verticalAlign=middle;whiteSpace=wrap;rounded=0;" parent="1" vertex="1">
          <mxGeometry x="243.5" y="290" width="180" height="30" as="geometry" />
        </mxCell>
        <mxCell id="_SnBmvqW-da6uGwA_qLJ-56" value="" style="group;fillColor=#4D4D4D;" parent="1" vertex="1" connectable="0">
          <mxGeometry x="226.5" y="193" width="324.25" height="130" as="geometry" />
        </mxCell>
        <mxCell id="_SnBmvqW-da6uGwA_qLJ-34" value="&lt;b style=&quot;&quot;&gt;&lt;font color=&quot;#99ffcc&quot;&gt;...we&#39;re the architects of extraordinary experiences.&lt;/font&gt;&lt;/b&gt;" style="text;strokeColor=none;align=center;fillColor=none;html=1;verticalAlign=middle;whiteSpace=wrap;rounded=0;" parent="_SnBmvqW-da6uGwA_qLJ-56" vertex="1">
          <mxGeometry x="13.5" y="10" width="301.5" height="30" as="geometry" />
        </mxCell>
        <mxCell id="_SnBmvqW-da6uGwA_qLJ-55" value="" style="group" parent="_SnBmvqW-da6uGwA_qLJ-56" vertex="1" connectable="0">
          <mxGeometry width="324.25" height="130" as="geometry" />
        </mxCell>
        <mxCell id="_SnBmvqW-da6uGwA_qLJ-33" value="&lt;b style=&quot;&quot;&gt;&lt;font color=&quot;#99ccff&quot;&gt;In the realm of digital innovation...&lt;/font&gt;&lt;/b&gt;" style="text;strokeColor=none;align=center;fillColor=none;html=1;verticalAlign=middle;whiteSpace=wrap;rounded=0;" parent="_SnBmvqW-da6uGwA_qLJ-55" vertex="1">
          <mxGeometry width="197" height="30" as="geometry" />
        </mxCell>
        <mxCell id="_SnBmvqW-da6uGwA_qLJ-49" value="&lt;b style=&quot;&quot;&gt;&lt;font color=&quot;#99ffcc&quot;&gt;...and redefine what&#39;s possible.&lt;/font&gt;&lt;/b&gt;" style="text;strokeColor=none;align=center;fillColor=none;html=1;verticalAlign=middle;whiteSpace=wrap;rounded=0;" parent="_SnBmvqW-da6uGwA_qLJ-55" vertex="1">
          <mxGeometry x="17" y="100" width="180" height="30" as="geometry" />
        </mxCell>
        <mxCell id="_SnBmvqW-da6uGwA_qLJ-50" value="&lt;b style=&quot;&quot;&gt;&lt;font color=&quot;#99ccff&quot;&gt;Together, we break barriers...&lt;/font&gt;&lt;/b&gt;" style="text;strokeColor=none;align=center;fillColor=none;html=1;verticalAlign=middle;whiteSpace=wrap;rounded=0;" parent="_SnBmvqW-da6uGwA_qLJ-55" vertex="1">
          <mxGeometry y="90" width="173.5" height="30" as="geometry" />
        </mxCell>
        <mxCell id="_SnBmvqW-da6uGwA_qLJ-51" value="&lt;b style=&quot;&quot;&gt;&lt;font color=&quot;#ffe599&quot;&gt;We&#39;re the dreamweavers...&lt;/font&gt;&lt;/b&gt;" style="text;strokeColor=none;align=center;fillColor=none;html=1;verticalAlign=middle;whiteSpace=wrap;rounded=0;" parent="_SnBmvqW-da6uGwA_qLJ-55" vertex="1">
          <mxGeometry y="60" width="154" height="30" as="geometry" />
        </mxCell>
        <mxCell id="_SnBmvqW-da6uGwA_qLJ-52" value="&lt;b style=&quot;&quot;&gt;&lt;font color=&quot;#99ffcc&quot;&gt;...who bridge imagination and technology seamlessly.&lt;/font&gt;&lt;/b&gt;" style="text;strokeColor=none;align=center;fillColor=none;html=1;verticalAlign=middle;whiteSpace=wrap;rounded=0;" parent="_SnBmvqW-da6uGwA_qLJ-55" vertex="1">
          <mxGeometry x="14.25" y="70" width="310" height="30" as="geometry" />
        </mxCell>
        <mxCell id="_SnBmvqW-da6uGwA_qLJ-53" value="&lt;b style=&quot;&quot;&gt;&lt;font color=&quot;#99ffcc&quot;&gt;...we transform ideas into groundbreaking realities.&lt;/font&gt;&lt;/b&gt;" style="text;strokeColor=none;align=center;fillColor=none;html=1;verticalAlign=middle;whiteSpace=wrap;rounded=0;" parent="_SnBmvqW-da6uGwA_qLJ-55" vertex="1">
          <mxGeometry x="14.25" y="40" width="300" height="30" as="geometry" />
        </mxCell>
        <mxCell id="_SnBmvqW-da6uGwA_qLJ-54" value="&lt;b style=&quot;&quot;&gt;&lt;font color=&quot;#99ccff&quot;&gt;With passion and precision...&lt;/font&gt;&lt;/b&gt;" style="text;strokeColor=none;align=center;fillColor=none;html=1;verticalAlign=middle;whiteSpace=wrap;rounded=0;" parent="_SnBmvqW-da6uGwA_qLJ-55" vertex="1">
          <mxGeometry y="30" width="171" height="30" as="geometry" />
        </mxCell>
      </root>
    </mxGraphModel>
  </diagram>
</mxfile>
